<?xml version="1.0" encoding="utf-8" standalone="no"?>
<!DOCTYPE svg PUBLIC "-//W3C//DTD SVG 1.1//EN"
  "http://www.w3.org/Graphics/SVG/1.1/DTD/svg11.dtd">
<svg xmlns:xlink="http://www.w3.org/1999/xlink" width="460.8pt" height="345.6pt" viewBox="0 0 460.8 345.6" xmlns="http://www.w3.org/2000/svg" version="1.1">
 <metadata>
  <rdf:RDF xmlns:dc="http://purl.org/dc/elements/1.1/" xmlns:cc="http://creativecommons.org/ns#" xmlns:rdf="http://www.w3.org/1999/02/22-rdf-syntax-ns#">
   <cc:Work>
    <dc:type rdf:resource="http://purl.org/dc/dcmitype/StillImage"/>
    <dc:date>2025-10-02T20:51:16.549487</dc:date>
    <dc:format>image/svg+xml</dc:format>
    <dc:creator>
     <cc:Agent>
      <dc:title>Matplotlib v3.7.2, https://matplotlib.org/</dc:title>
     </cc:Agent>
    </dc:creator>
   </cc:Work>
  </rdf:RDF>
 </metadata>
 <defs>
  <style type="text/css">*{stroke-linejoin: round; stroke-linecap: butt}</style>
 </defs>
 <g id="figure_1">
  <g id="patch_1">
   <path d="M 0 345.6 
L 460.8 345.6 
L 460.8 0 
L 0 0 
z
" style="fill: #ffffff"/>
  </g>
  <g id="axes_1">
   <g id="patch_2">
    <path d="M 44.66 284.065464 
L 400.715412 284.065464 
L 400.715412 10.8 
L 44.66 10.8 
z
" style="fill: #ffffff"/>
   </g>
   <g id="PolyCollection_1"/>
   <g id="PolyCollection_2"/>
   <g id="PolyCollection_3"/>
   <g id="matplotlib.axis_1">
    <g id="xtick_1">
     <g id="line2d_1">
      <path d="M 53.406213 284.065464 
L 53.406213 10.8 
" clip-path="url(#pfa9b14c645)" style="fill: none; stroke: #b0b0b0; stroke-width: 0.8; stroke-linecap: square"/>
     </g>
     <g id="line2d_2">
      <defs>
       <path id="mea0f3c5088" d="M 0 0 
L 0 3.5 
" style="stroke: #000000; stroke-width: 0.8"/>
      </defs>
      <g>
       <use xlink:href="#mea0f3c5088" x="53.406213" y="284.065464" style="stroke: #000000; stroke-width: 0.8"/>
      </g>
     </g>
     <g id="text_1">
      <!-- 2023-10 -->
      <g transform="translate(36.693412 318.53731) rotate(-30) scale(0.1 -0.1)">
       <defs>
        <path id="DejaVuSans-32" d="M 1228 531 
L 3431 531 
L 3431 0 
L 469 0 
L 469 531 
Q 828 903 1448 1529 
Q 2069 2156 2228 2338 
Q 2531 2678 2651 2914 
Q 2772 3150 2772 3378 
Q 2772 3750 2511 3984 
Q 2250 4219 1831 4219 
Q 1534 4219 1204 4116 
Q 875 4013 500 3803 
L 500 4441 
Q 881 4594 1212 4672 
Q 1544 4750 1819 4750 
Q 2544 4750 2975 4387 
Q 3406 4025 3406 3419 
Q 3406 3131 3298 2873 
Q 3191 2616 2906 2266 
Q 2828 2175 2409 1742 
Q 1991 1309 1228 531 
z
" transform="scale(0.015625)"/>
        <path id="DejaVuSans-30" d="M 2034 4250 
Q 1547 4250 1301 3770 
Q 1056 3291 1056 2328 
Q 1056 1369 1301 889 
Q 1547 409 2034 409 
Q 2525 409 2770 889 
Q 3016 1369 3016 2328 
Q 3016 3291 2770 3770 
Q 2525 4250 2034 4250 
z
M 2034 4750 
Q 2819 4750 3233 4129 
Q 3647 3509 3647 2328 
Q 3647 1150 3233 529 
Q 2819 -91 2034 -91 
Q 1250 -91 836 529 
Q 422 1150 422 2328 
Q 422 3509 836 4129 
Q 1250 4750 2034 4750 
z
" transform="scale(0.015625)"/>
        <path id="DejaVuSans-33" d="M 2597 2516 
Q 3050 2419 3304 2112 
Q 3559 1806 3559 1356 
Q 3559 666 3084 287 
Q 2609 -91 1734 -91 
Q 1441 -91 1130 -33 
Q 819 25 488 141 
L 488 750 
Q 750 597 1062 519 
Q 1375 441 1716 441 
Q 2309 441 2620 675 
Q 2931 909 2931 1356 
Q 2931 1769 2642 2001 
Q 2353 2234 1838 2234 
L 1294 2234 
L 1294 2753 
L 1863 2753 
Q 2328 2753 2575 2939 
Q 2822 3125 2822 3475 
Q 2822 3834 2567 4026 
Q 2313 4219 1838 4219 
Q 1578 4219 1281 4162 
Q 984 4106 628 3988 
L 628 4550 
Q 988 4650 1302 4700 
Q 1616 4750 1894 4750 
Q 2613 4750 3031 4423 
Q 3450 4097 3450 3541 
Q 3450 3153 3228 2886 
Q 3006 2619 2597 2516 
z
" transform="scale(0.015625)"/>
        <path id="DejaVuSans-2d" d="M 313 2009 
L 1997 2009 
L 1997 1497 
L 313 1497 
L 313 2009 
z
" transform="scale(0.015625)"/>
        <path id="DejaVuSans-31" d="M 794 531 
L 1825 531 
L 1825 4091 
L 703 3866 
L 703 4441 
L 1819 4666 
L 2450 4666 
L 2450 531 
L 3481 531 
L 3481 0 
L 794 0 
L 794 531 
z
" transform="scale(0.015625)"/>
       </defs>
       <use xlink:href="#DejaVuSans-32"/>
       <use xlink:href="#DejaVuSans-30" x="63.623047"/>
       <use xlink:href="#DejaVuSans-32" x="127.246094"/>
       <use xlink:href="#DejaVuSans-33" x="190.869141"/>
       <use xlink:href="#DejaVuSans-2d" x="254.492188"/>
       <use xlink:href="#DejaVuSans-31" x="290.576172"/>
       <use xlink:href="#DejaVuSans-30" x="354.199219"/>
      </g>
     </g>
    </g>
    <g id="xtick_2">
     <g id="line2d_3">
      <path d="M 96.59288 284.065464 
L 96.59288 10.8 
" clip-path="url(#pfa9b14c645)" style="fill: none; stroke: #b0b0b0; stroke-width: 0.8; stroke-linecap: square"/>
     </g>
     <g id="line2d_4">
      <g>
       <use xlink:href="#mea0f3c5088" x="96.59288" y="284.065464" style="stroke: #000000; stroke-width: 0.8"/>
      </g>
     </g>
     <g id="text_2">
      <!-- 2024-01 -->
      <g transform="translate(79.880079 318.53731) rotate(-30) scale(0.1 -0.1)">
       <defs>
        <path id="DejaVuSans-34" d="M 2419 4116 
L 825 1625 
L 2419 1625 
L 2419 4116 
z
M 2253 4666 
L 3047 4666 
L 3047 1625 
L 3713 1625 
L 3713 1100 
L 3047 1100 
L 3047 0 
L 2419 0 
L 2419 1100 
L 313 1100 
L 313 1709 
L 2253 4666 
z
" transform="scale(0.015625)"/>
       </defs>
       <use xlink:href="#DejaVuSans-32"/>
       <use xlink:href="#DejaVuSans-30" x="63.623047"/>
       <use xlink:href="#DejaVuSans-32" x="127.246094"/>
       <use xlink:href="#DejaVuSans-34" x="190.869141"/>
       <use xlink:href="#DejaVuSans-2d" x="254.492188"/>
       <use xlink:href="#DejaVuSans-30" x="290.576172"/>
       <use xlink:href="#DejaVuSans-31" x="354.199219"/>
      </g>
     </g>
    </g>
    <g id="xtick_3">
     <g id="line2d_5">
      <path d="M 139.310126 284.065464 
L 139.310126 10.8 
" clip-path="url(#pfa9b14c645)" style="fill: none; stroke: #b0b0b0; stroke-width: 0.8; stroke-linecap: square"/>
     </g>
     <g id="line2d_6">
      <g>
       <use xlink:href="#mea0f3c5088" x="139.310126" y="284.065464" style="stroke: #000000; stroke-width: 0.8"/>
      </g>
     </g>
     <g id="text_3">
      <!-- 2024-04 -->
      <g transform="translate(122.597325 318.53731) rotate(-30) scale(0.1 -0.1)">
       <use xlink:href="#DejaVuSans-32"/>
       <use xlink:href="#DejaVuSans-30" x="63.623047"/>
       <use xlink:href="#DejaVuSans-32" x="127.246094"/>
       <use xlink:href="#DejaVuSans-34" x="190.869141"/>
       <use xlink:href="#DejaVuSans-2d" x="254.492188"/>
       <use xlink:href="#DejaVuSans-30" x="290.576172"/>
       <use xlink:href="#DejaVuSans-34" x="354.199219"/>
      </g>
     </g>
    </g>
    <g id="xtick_4">
     <g id="line2d_7">
      <path d="M 182.027373 284.065464 
L 182.027373 10.8 
" clip-path="url(#pfa9b14c645)" style="fill: none; stroke: #b0b0b0; stroke-width: 0.8; stroke-linecap: square"/>
     </g>
     <g id="line2d_8">
      <g>
       <use xlink:href="#mea0f3c5088" x="182.027373" y="284.065464" style="stroke: #000000; stroke-width: 0.8"/>
      </g>
     </g>
     <g id="text_4">
      <!-- 2024-07 -->
      <g transform="translate(165.314572 318.53731) rotate(-30) scale(0.1 -0.1)">
       <defs>
        <path id="DejaVuSans-37" d="M 525 4666 
L 3525 4666 
L 3525 4397 
L 1831 0 
L 1172 0 
L 2766 4134 
L 525 4134 
L 525 4666 
z
" transform="scale(0.015625)"/>
       </defs>
       <use xlink:href="#DejaVuSans-32"/>
       <use xlink:href="#DejaVuSans-30" x="63.623047"/>
       <use xlink:href="#DejaVuSans-32" x="127.246094"/>
       <use xlink:href="#DejaVuSans-34" x="190.869141"/>
       <use xlink:href="#DejaVuSans-2d" x="254.492188"/>
       <use xlink:href="#DejaVuSans-30" x="290.576172"/>
       <use xlink:href="#DejaVuSans-37" x="354.199219"/>
      </g>
     </g>
    </g>
    <g id="xtick_5">
     <g id="line2d_9">
      <path d="M 225.21404 284.065464 
L 225.21404 10.8 
" clip-path="url(#pfa9b14c645)" style="fill: none; stroke: #b0b0b0; stroke-width: 0.8; stroke-linecap: square"/>
     </g>
     <g id="line2d_10">
      <g>
       <use xlink:href="#mea0f3c5088" x="225.21404" y="284.065464" style="stroke: #000000; stroke-width: 0.8"/>
      </g>
     </g>
     <g id="text_5">
      <!-- 2024-10 -->
      <g transform="translate(208.501239 318.53731) rotate(-30) scale(0.1 -0.1)">
       <use xlink:href="#DejaVuSans-32"/>
       <use xlink:href="#DejaVuSans-30" x="63.623047"/>
       <use xlink:href="#DejaVuSans-32" x="127.246094"/>
       <use xlink:href="#DejaVuSans-34" x="190.869141"/>
       <use xlink:href="#DejaVuSans-2d" x="254.492188"/>
       <use xlink:href="#DejaVuSans-31" x="290.576172"/>
       <use xlink:href="#DejaVuSans-30" x="354.199219"/>
      </g>
     </g>
    </g>
    <g id="xtick_6">
     <g id="line2d_11">
      <path d="M 268.400707 284.065464 
L 268.400707 10.8 
" clip-path="url(#pfa9b14c645)" style="fill: none; stroke: #b0b0b0; stroke-width: 0.8; stroke-linecap: square"/>
     </g>
     <g id="line2d_12">
      <g>
       <use xlink:href="#mea0f3c5088" x="268.400707" y="284.065464" style="stroke: #000000; stroke-width: 0.8"/>
      </g>
     </g>
     <g id="text_6">
      <!-- 2025-01 -->
      <g transform="translate(251.687906 318.53731) rotate(-30) scale(0.1 -0.1)">
       <defs>
        <path id="DejaVuSans-35" d="M 691 4666 
L 3169 4666 
L 3169 4134 
L 1269 4134 
L 1269 2991 
Q 1406 3038 1543 3061 
Q 1681 3084 1819 3084 
Q 2600 3084 3056 2656 
Q 3513 2228 3513 1497 
Q 3513 744 3044 326 
Q 2575 -91 1722 -91 
Q 1428 -91 1123 -41 
Q 819 9 494 109 
L 494 744 
Q 775 591 1075 516 
Q 1375 441 1709 441 
Q 2250 441 2565 725 
Q 2881 1009 2881 1497 
Q 2881 1984 2565 2268 
Q 2250 2553 1709 2553 
Q 1456 2553 1204 2497 
Q 953 2441 691 2322 
L 691 4666 
z
" transform="scale(0.015625)"/>
       </defs>
       <use xlink:href="#DejaVuSans-32"/>
       <use xlink:href="#DejaVuSans-30" x="63.623047"/>
       <use xlink:href="#DejaVuSans-32" x="127.246094"/>
       <use xlink:href="#DejaVuSans-35" x="190.869141"/>
       <use xlink:href="#DejaVuSans-2d" x="254.492188"/>
       <use xlink:href="#DejaVuSans-30" x="290.576172"/>
       <use xlink:href="#DejaVuSans-31" x="354.199219"/>
      </g>
     </g>
    </g>
    <g id="xtick_7">
     <g id="line2d_13">
      <path d="M 310.648533 284.065464 
L 310.648533 10.8 
" clip-path="url(#pfa9b14c645)" style="fill: none; stroke: #b0b0b0; stroke-width: 0.8; stroke-linecap: square"/>
     </g>
     <g id="line2d_14">
      <g>
       <use xlink:href="#mea0f3c5088" x="310.648533" y="284.065464" style="stroke: #000000; stroke-width: 0.8"/>
      </g>
     </g>
     <g id="text_7">
      <!-- 2025-04 -->
      <g transform="translate(293.935732 318.53731) rotate(-30) scale(0.1 -0.1)">
       <use xlink:href="#DejaVuSans-32"/>
       <use xlink:href="#DejaVuSans-30" x="63.623047"/>
       <use xlink:href="#DejaVuSans-32" x="127.246094"/>
       <use xlink:href="#DejaVuSans-35" x="190.869141"/>
       <use xlink:href="#DejaVuSans-2d" x="254.492188"/>
       <use xlink:href="#DejaVuSans-30" x="290.576172"/>
       <use xlink:href="#DejaVuSans-34" x="354.199219"/>
      </g>
     </g>
    </g>
    <g id="xtick_8">
     <g id="line2d_15">
      <path d="M 353.36578 284.065464 
L 353.36578 10.8 
" clip-path="url(#pfa9b14c645)" style="fill: none; stroke: #b0b0b0; stroke-width: 0.8; stroke-linecap: square"/>
     </g>
     <g id="line2d_16">
      <g>
       <use xlink:href="#mea0f3c5088" x="353.36578" y="284.065464" style="stroke: #000000; stroke-width: 0.8"/>
      </g>
     </g>
     <g id="text_8">
      <!-- 2025-07 -->
      <g transform="translate(336.652979 318.53731) rotate(-30) scale(0.1 -0.1)">
       <use xlink:href="#DejaVuSans-32"/>
       <use xlink:href="#DejaVuSans-30" x="63.623047"/>
       <use xlink:href="#DejaVuSans-32" x="127.246094"/>
       <use xlink:href="#DejaVuSans-35" x="190.869141"/>
       <use xlink:href="#DejaVuSans-2d" x="254.492188"/>
       <use xlink:href="#DejaVuSans-30" x="290.576172"/>
       <use xlink:href="#DejaVuSans-37" x="354.199219"/>
      </g>
     </g>
    </g>
    <g id="xtick_9">
     <g id="line2d_17">
      <path d="M 396.552447 284.065464 
L 396.552447 10.8 
" clip-path="url(#pfa9b14c645)" style="fill: none; stroke: #b0b0b0; stroke-width: 0.8; stroke-linecap: square"/>
     </g>
     <g id="line2d_18">
      <g>
       <use xlink:href="#mea0f3c5088" x="396.552447" y="284.065464" style="stroke: #000000; stroke-width: 0.8"/>
      </g>
     </g>
     <g id="text_9">
      <!-- 2025-10 -->
      <g transform="translate(379.839646 318.53731) rotate(-30) scale(0.1 -0.1)">
       <use xlink:href="#DejaVuSans-32"/>
       <use xlink:href="#DejaVuSans-30" x="63.623047"/>
       <use xlink:href="#DejaVuSans-32" x="127.246094"/>
       <use xlink:href="#DejaVuSans-35" x="190.869141"/>
       <use xlink:href="#DejaVuSans-2d" x="254.492188"/>
       <use xlink:href="#DejaVuSans-31" x="290.576172"/>
       <use xlink:href="#DejaVuSans-30" x="354.199219"/>
      </g>
     </g>
    </g>
    <g id="text_10">
     <!-- Date &amp; time -->
     <g transform="translate(192.363487 331.93681) scale(0.1 -0.1)">
      <defs>
       <path id="DejaVuSans-44" d="M 1259 4147 
L 1259 519 
L 2022 519 
Q 2988 519 3436 956 
Q 3884 1394 3884 2338 
Q 3884 3275 3436 3711 
Q 2988 4147 2022 4147 
L 1259 4147 
z
M 628 4666 
L 1925 4666 
Q 3281 4666 3915 4102 
Q 4550 3538 4550 2338 
Q 4550 1131 3912 565 
Q 3275 0 1925 0 
L 628 0 
L 628 4666 
z
" transform="scale(0.015625)"/>
       <path id="DejaVuSans-61" d="M 2194 1759 
Q 1497 1759 1228 1600 
Q 959 1441 959 1056 
Q 959 750 1161 570 
Q 1363 391 1709 391 
Q 2188 391 2477 730 
Q 2766 1069 2766 1631 
L 2766 1759 
L 2194 1759 
z
M 3341 1997 
L 3341 0 
L 2766 0 
L 2766 531 
Q 2569 213 2275 61 
Q 1981 -91 1556 -91 
Q 1019 -91 701 211 
Q 384 513 384 1019 
Q 384 1609 779 1909 
Q 1175 2209 1959 2209 
L 2766 2209 
L 2766 2266 
Q 2766 2663 2505 2880 
Q 2244 3097 1772 3097 
Q 1472 3097 1187 3025 
Q 903 2953 641 2809 
L 641 3341 
Q 956 3463 1253 3523 
Q 1550 3584 1831 3584 
Q 2591 3584 2966 3190 
Q 3341 2797 3341 1997 
z
" transform="scale(0.015625)"/>
       <path id="DejaVuSans-74" d="M 1172 4494 
L 1172 3500 
L 2356 3500 
L 2356 3053 
L 1172 3053 
L 1172 1153 
Q 1172 725 1289 603 
Q 1406 481 1766 481 
L 2356 481 
L 2356 0 
L 1766 0 
Q 1100 0 847 248 
Q 594 497 594 1153 
L 594 3053 
L 172 3053 
L 172 3500 
L 594 3500 
L 594 4494 
L 1172 4494 
z
" transform="scale(0.015625)"/>
       <path id="DejaVuSans-65" d="M 3597 1894 
L 3597 1613 
L 953 1613 
Q 991 1019 1311 708 
Q 1631 397 2203 397 
Q 2534 397 2845 478 
Q 3156 559 3463 722 
L 3463 178 
Q 3153 47 2828 -22 
Q 2503 -91 2169 -91 
Q 1331 -91 842 396 
Q 353 884 353 1716 
Q 353 2575 817 3079 
Q 1281 3584 2069 3584 
Q 2775 3584 3186 3129 
Q 3597 2675 3597 1894 
z
M 3022 2063 
Q 3016 2534 2758 2815 
Q 2500 3097 2075 3097 
Q 1594 3097 1305 2825 
Q 1016 2553 972 2059 
L 3022 2063 
z
" transform="scale(0.015625)"/>
       <path id="DejaVuSans-20" transform="scale(0.015625)"/>
       <path id="DejaVuSans-26" d="M 1556 2509 
Q 1272 2256 1139 2004 
Q 1006 1753 1006 1478 
Q 1006 1022 1337 719 
Q 1669 416 2169 416 
Q 2466 416 2725 514 
Q 2984 613 3213 813 
L 1556 2509 
z
M 1997 2859 
L 3584 1234 
Q 3769 1513 3872 1830 
Q 3975 2147 3994 2503 
L 4575 2503 
Q 4538 2091 4375 1687 
Q 4213 1284 3922 891 
L 4794 0 
L 4006 0 
L 3559 459 
Q 3234 181 2878 45 
Q 2522 -91 2113 -91 
Q 1359 -91 881 339 
Q 403 769 403 1441 
Q 403 1841 612 2192 
Q 822 2544 1241 2853 
Q 1091 3050 1012 3245 
Q 934 3441 934 3628 
Q 934 4134 1281 4442 
Q 1628 4750 2203 4750 
Q 2463 4750 2720 4694 
Q 2978 4638 3244 4525 
L 3244 3956 
Q 2972 4103 2725 4179 
Q 2478 4256 2266 4256 
Q 1938 4256 1733 4082 
Q 1528 3909 1528 3634 
Q 1528 3475 1620 3314 
Q 1713 3153 1997 2859 
z
" transform="scale(0.015625)"/>
       <path id="DejaVuSans-69" d="M 603 3500 
L 1178 3500 
L 1178 0 
L 603 0 
L 603 3500 
z
M 603 4863 
L 1178 4863 
L 1178 4134 
L 603 4134 
L 603 4863 
z
" transform="scale(0.015625)"/>
       <path id="DejaVuSans-6d" d="M 3328 2828 
Q 3544 3216 3844 3400 
Q 4144 3584 4550 3584 
Q 5097 3584 5394 3201 
Q 5691 2819 5691 2113 
L 5691 0 
L 5113 0 
L 5113 2094 
Q 5113 2597 4934 2840 
Q 4756 3084 4391 3084 
Q 3944 3084 3684 2787 
Q 3425 2491 3425 1978 
L 3425 0 
L 2847 0 
L 2847 2094 
Q 2847 2600 2669 2842 
Q 2491 3084 2119 3084 
Q 1678 3084 1418 2786 
Q 1159 2488 1159 1978 
L 1159 0 
L 581 0 
L 581 3500 
L 1159 3500 
L 1159 2956 
Q 1356 3278 1631 3431 
Q 1906 3584 2284 3584 
Q 2666 3584 2933 3390 
Q 3200 3197 3328 2828 
z
" transform="scale(0.015625)"/>
      </defs>
      <use xlink:href="#DejaVuSans-44"/>
      <use xlink:href="#DejaVuSans-61" x="77.001953"/>
      <use xlink:href="#DejaVuSans-74" x="138.28125"/>
      <use xlink:href="#DejaVuSans-65" x="177.490234"/>
      <use xlink:href="#DejaVuSans-20" x="239.013672"/>
      <use xlink:href="#DejaVuSans-26" x="270.800781"/>
      <use xlink:href="#DejaVuSans-20" x="348.779297"/>
      <use xlink:href="#DejaVuSans-74" x="380.566406"/>
      <use xlink:href="#DejaVuSans-69" x="419.775391"/>
      <use xlink:href="#DejaVuSans-6d" x="447.558594"/>
      <use xlink:href="#DejaVuSans-65" x="544.970703"/>
     </g>
    </g>
   </g>
   <g id="matplotlib.axis_2">
    <g id="ytick_1">
     <g id="line2d_19">
      <path d="M 44.66 271.644306 
L 400.715412 271.644306 
" clip-path="url(#pfa9b14c645)" style="fill: none; stroke: #b0b0b0; stroke-width: 0.8; stroke-linecap: square"/>
     </g>
     <g id="line2d_20">
      <defs>
       <path id="m1dbf7731cb" d="M 0 0 
L -3.5 0 
" style="stroke: #000000; stroke-width: 0.8"/>
      </defs>
      <g>
       <use xlink:href="#m1dbf7731cb" x="44.66" y="271.644306" style="stroke: #000000; stroke-width: 0.8"/>
      </g>
     </g>
     <g id="text_11">
      <!-- 0 -->
      <g transform="translate(31.2975 275.443525) scale(0.1 -0.1)">
       <use xlink:href="#DejaVuSans-30"/>
      </g>
     </g>
    </g>
    <g id="ytick_2">
     <g id="line2d_21">
      <path d="M 44.66 238.30563 
L 400.715412 238.30563 
" clip-path="url(#pfa9b14c645)" style="fill: none; stroke: #b0b0b0; stroke-width: 0.8; stroke-linecap: square"/>
     </g>
     <g id="line2d_22">
      <g>
       <use xlink:href="#m1dbf7731cb" x="44.66" y="238.30563" style="stroke: #000000; stroke-width: 0.8"/>
      </g>
     </g>
     <g id="text_12">
      <!-- 10 -->
      <g transform="translate(24.935 242.104849) scale(0.1 -0.1)">
       <use xlink:href="#DejaVuSans-31"/>
       <use xlink:href="#DejaVuSans-30" x="63.623047"/>
      </g>
     </g>
    </g>
    <g id="ytick_3">
     <g id="line2d_23">
      <path d="M 44.66 204.966953 
L 400.715412 204.966953 
" clip-path="url(#pfa9b14c645)" style="fill: none; stroke: #b0b0b0; stroke-width: 0.8; stroke-linecap: square"/>
     </g>
     <g id="line2d_24">
      <g>
       <use xlink:href="#m1dbf7731cb" x="44.66" y="204.966953" style="stroke: #000000; stroke-width: 0.8"/>
      </g>
     </g>
     <g id="text_13">
      <!-- 20 -->
      <g transform="translate(24.935 208.766172) scale(0.1 -0.1)">
       <use xlink:href="#DejaVuSans-32"/>
       <use xlink:href="#DejaVuSans-30" x="63.623047"/>
      </g>
     </g>
    </g>
    <g id="ytick_4">
     <g id="line2d_25">
      <path d="M 44.66 171.628277 
L 400.715412 171.628277 
" clip-path="url(#pfa9b14c645)" style="fill: none; stroke: #b0b0b0; stroke-width: 0.8; stroke-linecap: square"/>
     </g>
     <g id="line2d_26">
      <g>
       <use xlink:href="#m1dbf7731cb" x="44.66" y="171.628277" style="stroke: #000000; stroke-width: 0.8"/>
      </g>
     </g>
     <g id="text_14">
      <!-- 30 -->
      <g transform="translate(24.935 175.427495) scale(0.1 -0.1)">
       <use xlink:href="#DejaVuSans-33"/>
       <use xlink:href="#DejaVuSans-30" x="63.623047"/>
      </g>
     </g>
    </g>
    <g id="ytick_5">
     <g id="line2d_27">
      <path d="M 44.66 138.2896 
L 400.715412 138.2896 
" clip-path="url(#pfa9b14c645)" style="fill: none; stroke: #b0b0b0; stroke-width: 0.8; stroke-linecap: square"/>
     </g>
     <g id="line2d_28">
      <g>
       <use xlink:href="#m1dbf7731cb" x="44.66" y="138.2896" style="stroke: #000000; stroke-width: 0.8"/>
      </g>
     </g>
     <g id="text_15">
      <!-- 40 -->
      <g transform="translate(24.935 142.088819) scale(0.1 -0.1)">
       <use xlink:href="#DejaVuSans-34"/>
       <use xlink:href="#DejaVuSans-30" x="63.623047"/>
      </g>
     </g>
    </g>
    <g id="ytick_6">
     <g id="line2d_29">
      <path d="M 44.66 104.950923 
L 400.715412 104.950923 
" clip-path="url(#pfa9b14c645)" style="fill: none; stroke: #b0b0b0; stroke-width: 0.8; stroke-linecap: square"/>
     </g>
     <g id="line2d_30">
      <g>
       <use xlink:href="#m1dbf7731cb" x="44.66" y="104.950923" style="stroke: #000000; stroke-width: 0.8"/>
      </g>
     </g>
     <g id="text_16">
      <!-- 50 -->
      <g transform="translate(24.935 108.750142) scale(0.1 -0.1)">
       <use xlink:href="#DejaVuSans-35"/>
       <use xlink:href="#DejaVuSans-30" x="63.623047"/>
      </g>
     </g>
    </g>
    <g id="ytick_7">
     <g id="line2d_31">
      <path d="M 44.66 71.612247 
L 400.715412 71.612247 
" clip-path="url(#pfa9b14c645)" style="fill: none; stroke: #b0b0b0; stroke-width: 0.8; stroke-linecap: square"/>
     </g>
     <g id="line2d_32">
      <g>
       <use xlink:href="#m1dbf7731cb" x="44.66" y="71.612247" style="stroke: #000000; stroke-width: 0.8"/>
      </g>
     </g>
     <g id="text_17">
      <!-- 60 -->
      <g transform="translate(24.935 75.411465) scale(0.1 -0.1)">
       <defs>
        <path id="DejaVuSans-36" d="M 2113 2584 
Q 1688 2584 1439 2293 
Q 1191 2003 1191 1497 
Q 1191 994 1439 701 
Q 1688 409 2113 409 
Q 2538 409 2786 701 
Q 3034 994 3034 1497 
Q 3034 2003 2786 2293 
Q 2538 2584 2113 2584 
z
M 3366 4563 
L 3366 3988 
Q 3128 4100 2886 4159 
Q 2644 4219 2406 4219 
Q 1781 4219 1451 3797 
Q 1122 3375 1075 2522 
Q 1259 2794 1537 2939 
Q 1816 3084 2150 3084 
Q 2853 3084 3261 2657 
Q 3669 2231 3669 1497 
Q 3669 778 3244 343 
Q 2819 -91 2113 -91 
Q 1303 -91 875 529 
Q 447 1150 447 2328 
Q 447 3434 972 4092 
Q 1497 4750 2381 4750 
Q 2619 4750 2861 4703 
Q 3103 4656 3366 4563 
z
" transform="scale(0.015625)"/>
       </defs>
       <use xlink:href="#DejaVuSans-36"/>
       <use xlink:href="#DejaVuSans-30" x="63.623047"/>
      </g>
     </g>
    </g>
    <g id="ytick_8">
     <g id="line2d_33">
      <path d="M 44.66 38.27357 
L 400.715412 38.27357 
" clip-path="url(#pfa9b14c645)" style="fill: none; stroke: #b0b0b0; stroke-width: 0.8; stroke-linecap: square"/>
     </g>
     <g id="line2d_34">
      <g>
       <use xlink:href="#m1dbf7731cb" x="44.66" y="38.27357" style="stroke: #000000; stroke-width: 0.8"/>
      </g>
     </g>
     <g id="text_18">
      <!-- 70 -->
      <g transform="translate(24.935 42.072789) scale(0.1 -0.1)">
       <use xlink:href="#DejaVuSans-37"/>
       <use xlink:href="#DejaVuSans-30" x="63.623047"/>
      </g>
     </g>
    </g>
    <g id="text_19">
     <!-- Word count (K) -->
     <g transform="translate(18.855313 184.749138) rotate(-90) scale(0.1 -0.1)">
      <defs>
       <path id="DejaVuSans-57" d="M 213 4666 
L 850 4666 
L 1831 722 
L 2809 4666 
L 3519 4666 
L 4500 722 
L 5478 4666 
L 6119 4666 
L 4947 0 
L 4153 0 
L 3169 4050 
L 2175 0 
L 1381 0 
L 213 4666 
z
" transform="scale(0.015625)"/>
       <path id="DejaVuSans-6f" d="M 1959 3097 
Q 1497 3097 1228 2736 
Q 959 2375 959 1747 
Q 959 1119 1226 758 
Q 1494 397 1959 397 
Q 2419 397 2687 759 
Q 2956 1122 2956 1747 
Q 2956 2369 2687 2733 
Q 2419 3097 1959 3097 
z
M 1959 3584 
Q 2709 3584 3137 3096 
Q 3566 2609 3566 1747 
Q 3566 888 3137 398 
Q 2709 -91 1959 -91 
Q 1206 -91 779 398 
Q 353 888 353 1747 
Q 353 2609 779 3096 
Q 1206 3584 1959 3584 
z
" transform="scale(0.015625)"/>
       <path id="DejaVuSans-72" d="M 2631 2963 
Q 2534 3019 2420 3045 
Q 2306 3072 2169 3072 
Q 1681 3072 1420 2755 
Q 1159 2438 1159 1844 
L 1159 0 
L 581 0 
L 581 3500 
L 1159 3500 
L 1159 2956 
Q 1341 3275 1631 3429 
Q 1922 3584 2338 3584 
Q 2397 3584 2469 3576 
Q 2541 3569 2628 3553 
L 2631 2963 
z
" transform="scale(0.015625)"/>
       <path id="DejaVuSans-64" d="M 2906 2969 
L 2906 4863 
L 3481 4863 
L 3481 0 
L 2906 0 
L 2906 525 
Q 2725 213 2448 61 
Q 2172 -91 1784 -91 
Q 1150 -91 751 415 
Q 353 922 353 1747 
Q 353 2572 751 3078 
Q 1150 3584 1784 3584 
Q 2172 3584 2448 3432 
Q 2725 3281 2906 2969 
z
M 947 1747 
Q 947 1113 1208 752 
Q 1469 391 1925 391 
Q 2381 391 2643 752 
Q 2906 1113 2906 1747 
Q 2906 2381 2643 2742 
Q 2381 3103 1925 3103 
Q 1469 3103 1208 2742 
Q 947 2381 947 1747 
z
" transform="scale(0.015625)"/>
       <path id="DejaVuSans-63" d="M 3122 3366 
L 3122 2828 
Q 2878 2963 2633 3030 
Q 2388 3097 2138 3097 
Q 1578 3097 1268 2742 
Q 959 2388 959 1747 
Q 959 1106 1268 751 
Q 1578 397 2138 397 
Q 2388 397 2633 464 
Q 2878 531 3122 666 
L 3122 134 
Q 2881 22 2623 -34 
Q 2366 -91 2075 -91 
Q 1284 -91 818 406 
Q 353 903 353 1747 
Q 353 2603 823 3093 
Q 1294 3584 2113 3584 
Q 2378 3584 2631 3529 
Q 2884 3475 3122 3366 
z
" transform="scale(0.015625)"/>
       <path id="DejaVuSans-75" d="M 544 1381 
L 544 3500 
L 1119 3500 
L 1119 1403 
Q 1119 906 1312 657 
Q 1506 409 1894 409 
Q 2359 409 2629 706 
Q 2900 1003 2900 1516 
L 2900 3500 
L 3475 3500 
L 3475 0 
L 2900 0 
L 2900 538 
Q 2691 219 2414 64 
Q 2138 -91 1772 -91 
Q 1169 -91 856 284 
Q 544 659 544 1381 
z
M 1991 3584 
L 1991 3584 
z
" transform="scale(0.015625)"/>
       <path id="DejaVuSans-6e" d="M 3513 2113 
L 3513 0 
L 2938 0 
L 2938 2094 
Q 2938 2591 2744 2837 
Q 2550 3084 2163 3084 
Q 1697 3084 1428 2787 
Q 1159 2491 1159 1978 
L 1159 0 
L 581 0 
L 581 3500 
L 1159 3500 
L 1159 2956 
Q 1366 3272 1645 3428 
Q 1925 3584 2291 3584 
Q 2894 3584 3203 3211 
Q 3513 2838 3513 2113 
z
" transform="scale(0.015625)"/>
       <path id="DejaVuSans-28" d="M 1984 4856 
Q 1566 4138 1362 3434 
Q 1159 2731 1159 2009 
Q 1159 1288 1364 580 
Q 1569 -128 1984 -844 
L 1484 -844 
Q 1016 -109 783 600 
Q 550 1309 550 2009 
Q 550 2706 781 3412 
Q 1013 4119 1484 4856 
L 1984 4856 
z
" transform="scale(0.015625)"/>
       <path id="DejaVuSans-4b" d="M 628 4666 
L 1259 4666 
L 1259 2694 
L 3353 4666 
L 4166 4666 
L 1850 2491 
L 4331 0 
L 3500 0 
L 1259 2247 
L 1259 0 
L 628 0 
L 628 4666 
z
" transform="scale(0.015625)"/>
       <path id="DejaVuSans-29" d="M 513 4856 
L 1013 4856 
Q 1481 4119 1714 3412 
Q 1947 2706 1947 2009 
Q 1947 1309 1714 600 
Q 1481 -109 1013 -844 
L 513 -844 
Q 928 -128 1133 580 
Q 1338 1288 1338 2009 
Q 1338 2731 1133 3434 
Q 928 4138 513 4856 
z
" transform="scale(0.015625)"/>
      </defs>
      <use xlink:href="#DejaVuSans-57"/>
      <use xlink:href="#DejaVuSans-6f" x="93.001953"/>
      <use xlink:href="#DejaVuSans-72" x="154.183594"/>
      <use xlink:href="#DejaVuSans-64" x="193.546875"/>
      <use xlink:href="#DejaVuSans-20" x="257.023438"/>
      <use xlink:href="#DejaVuSans-63" x="288.810547"/>
      <use xlink:href="#DejaVuSans-6f" x="343.791016"/>
      <use xlink:href="#DejaVuSans-75" x="404.972656"/>
      <use xlink:href="#DejaVuSans-6e" x="468.351562"/>
      <use xlink:href="#DejaVuSans-74" x="531.730469"/>
      <use xlink:href="#DejaVuSans-20" x="570.939453"/>
      <use xlink:href="#DejaVuSans-28" x="602.726562"/>
      <use xlink:href="#DejaVuSans-4b" x="641.740234"/>
      <use xlink:href="#DejaVuSans-29" x="707.316406"/>
     </g>
    </g>
   </g>
   <g id="line2d_35">
    <path d="M 47.945942 271.644306 
L 47.946931 271.644306 
L 48.035012 263.55301 
L 48.090316 263.55301 
L 48.098275 199.862802 
L 49.592532 199.772787 
L 49.603126 197.955829 
L 49.614362 197.955829 
L 50.789825 197.955829 
L 50.895157 195.032028 
L 51.358291 194.935345 
L 51.358291 194.725312 
L 52.305748 194.75865 
L 52.305748 194.425264 
L 52.351109 194.428597 
L 52.721191 194.435265 
L 52.721191 193.838503 
L 52.747036 194.618628 
L 53.568022 194.618628 
L 53.568022 196.625616 
L 54.077348 196.625616 
L 54.077348 196.012185 
L 54.53356 196.012185 
L 54.53356 195.842157 
L 54.536766 195.842157 
L 58.278665 195.828822 
L 58.285777 194.945347 
L 58.302343 198.382565 
L 58.309416 198.265879 
L 74.960026 198.265879 
L 74.960026 197.125696 
L 75.221956 197.125696 
L 75.221956 196.608947 
L 75.774785 196.608947 
L 75.774785 196.27556 
L 78.076776 196.27556 
L 78.162347 190.924703 
L 78.576377 190.861359 
L 78.576377 190.071232 
L 78.577338 190.071232 
L 79.086132 190.071232 
L 79.086132 188.57766 
L 79.087007 188.57766 
L 79.422594 188.57766 
L 79.422594 187.35413 
L 80.435607 187.297455 
L 80.483266 184.123613 
L 80.49818 184.393656 
L 80.910162 184.393656 
L 80.910162 182.696717 
L 81.38081 182.640041 
L 81.440753 179.186155 
L 81.792188 179.186155 
L 81.861727 177.622571 
L 81.864378 177.622571 
L 83.767106 177.622571 
L 83.837915 175.948969 
L 84.216418 175.948969 
L 84.276905 162.620166 
L 84.66359 162.620166 
L 84.691788 158.372819 
L 85.205705 158.372819 
L 85.205705 156.045779 
L 85.206015 156.045779 
L 100.546969 156.045779 
L 100.546969 154.55554 
L 104.406147 154.55554 
L 104.406147 153.365349 
L 107.698315 153.365349 
L 107.7007 152.031802 
L 108.138082 151.945122 
L 108.138082 150.384872 
L 108.13963 150.384872 
L 115.24009 150.384872 
L 115.24009 149.131338 
L 121.277395 149.131338 
L 121.277395 148.984647 
L 126.484689 148.984647 
L 126.484689 147.684439 
L 126.490655 147.684439 
L 129.667897 147.684439 
L 129.723809 145.137364 
L 129.740114 148.234527 
L 129.74923 148.127843 
L 130.140696 148.127843 
L 130.231543 161.760028 
L 130.612665 161.760028 
L 130.711977 158.969581 
L 131.148787 158.969581 
L 131.158274 157.215967 
L 131.550652 157.215967 
L 131.550652 156.405837 
L 132.958658 156.405837 
L 133.046511 153.828757 
L 133.421955 153.765414 
L 133.436516 153.298672 
L 133.470179 153.388687 
L 133.886469 153.328677 
L 133.967651 152.705244 
L 133.997267 152.818595 
L 134.338862 152.861935 
L 134.414649 151.458377 
L 134.415062 151.465045 
L 134.468627 151.465045 
L 134.518774 152.99529 
L 134.523697 152.981955 
L 136.282974 152.971953 
L 136.308227 154.915598 
L 136.352518 154.898929 
L 136.709614 154.888927 
L 136.709614 154.465526 
L 136.722463 154.465526 
L 137.282464 154.465526 
L 137.282464 152.518547 
L 137.326543 152.525215 
L 137.612145 152.525215 
L 137.612145 151.698416 
L 137.626722 151.698416 
L 140.05256 151.698416 
L 140.089006 151.261679 
L 140.089299 151.261679 
L 140.445792 151.261679 
L 140.445792 151.088318 
L 140.469584 151.164997 
L 140.916565 151.164997 
L 140.962823 149.901461 
L 140.994514 150.918291 
L 141.431162 150.904955 
L 141.436264 150.798271 
L 141.499603 150.798271 
L 181.79758 150.818275 
L 181.79758 148.127843 
L 184.182653 148.127843 
L 184.197709 147.861134 
L 185.261782 147.861134 
L 185.261782 148.641259 
L 185.265455 148.641259 
L 185.527016 148.641259 
L 185.538659 147.561086 
L 185.565254 147.767786 
L 185.990193 147.767786 
L 185.990193 147.234367 
L 186.05595 147.367722 
L 186.512641 147.367722 
L 186.512641 146.637605 
L 186.56124 150.544897 
L 187.358521 150.638246 
L 187.389 150.348199 
L 187.468009 150.664917 
L 187.510946 150.664917 
L 187.510946 150.458217 
L 188.798174 150.458217 
L 188.84535 133.425487 
L 188.851304 133.432155 
L 189.79083 133.475495 
L 189.79083 133.625519 
L 189.832474 133.605516 
L 195.457575 133.665525 
L 195.457575 133.84222 
L 195.824983 133.84222 
L 195.824983 134.028917 
L 195.84037 133.985577 
L 199.099065 133.985577 
L 199.099065 133.618851 
L 199.181718 134.909058 
L 199.576254 134.909058 
L 199.585865 134.679021 
L 199.591755 134.679021 
L 228.710439 134.682355 
L 228.710439 135.202438 
L 229.090305 135.202438 
L 229.090305 134.582339 
L 229.246203 134.582339 
L 229.246203 133.632187 
L 229.763587 133.632187 
L 229.763587 131.968587 
L 230.131853 131.968587 
L 230.131853 131.455171 
L 230.205206 131.868571 
L 231.533806 131.868571 
L 231.625278 129.92826 
L 232.514965 129.921592 
L 232.514965 126.170991 
L 232.555284 126.384358 
L 236.195345 126.444368 
L 236.195345 125.697582 
L 236.213476 125.697582 
L 240.120704 125.710917 
L 240.120704 124.924124 
L 248.974422 124.924124 
L 248.974422 124.207343 
L 260.43164 124.160669 
L 260.43164 124.007311 
L 262.474732 124.007311 
L 262.474732 124.197341 
L 271.522064 124.194007 
L 271.522064 124.194007 
" clip-path="url(#pfa9b14c645)" style="fill: none; stroke: #1f77b4; stroke-width: 1.5; stroke-linecap: square"/>
   </g>
   <g id="line2d_36">
    <path d="M 74.758816 271.644306 
L 78.507268 271.644306 
L 78.507268 270.894186 
L 81.435059 270.887519 
L 81.435059 271.644306 
L 81.435706 270.200742 
L 95.013905 270.200742 
L 95.07625 269.987374 
L 95.07625 269.987374 
L 124.129895 269.987374 
L 124.129895 258.678895 
L 133.088324 258.678895 
L 133.088324 241.592823 
L 136.346927 241.592823 
L 136.346927 240.212602 
L 142.935752 240.185931 
L 142.935752 237.815551 
L 143.26734 237.815551 
L 143.26734 236.275304 
L 143.746746 236.275304 
L 143.746746 232.974775 
L 146.67795 232.974775 
L 146.67795 232.648056 
L 150.388027 232.648056 
L 150.388027 230.774423 
L 157.496669 230.774423 
L 157.496669 228.644081 
L 159.823788 228.644081 
L 159.823788 223.666617 
L 163.948656 223.666617 
L 163.948656 223.876651 
L 165.90698 223.876651 
L 165.90698 222.803145 
L 166.741098 222.803145 
L 166.741098 205.15365 
L 169.677653 205.15365 
L 169.677653 215.968716 
L 170.130644 215.968716 
L 170.130644 215.021898 
L 170.60861 215.021898 
L 170.60861 213.331627 
L 171.117703 213.331627 
L 171.117703 213.081587 
L 172.972435 213.081587 
L 172.972435 210.571185 
L 173.336138 210.571185 
L 173.336138 211.214621 
L 175.65973 211.214621 
L 175.65973 210.787886 
L 177.637674 210.787886 
L 177.637674 206.113804 
L 179.540755 206.113804 
L 179.540755 204.396862 
L 188.905961 204.396862 
L 188.949176 202.863283 
L 189.04356 202.903289 
L 189.04356 204.053473 
L 189.397603 204.053473 
L 189.397603 225.603594 
L 189.404585 225.603594 
L 189.78218 225.603594 
L 189.858754 168.781154 
L 202.457294 168.781154 
L 202.457294 163.553649 
L 203.296524 163.553649 
L 203.319131 194.151886 
L 206.214243 194.151886 
L 206.214243 192.921689 
L 206.373417 192.921689 
L 206.373417 191.468123 
L 206.374454 191.478125 
L 206.75168 191.478125 
L 206.75168 189.934544 
L 207.150541 189.934544 
L 207.150541 190.868027 
L 207.194777 190.32794 
L 208.545708 190.32794 
L 208.545708 188.641003 
L 209.068628 188.641003 
L 209.068628 187.364132 
L 209.583795 187.364132 
L 209.668106 183.08678 
L 210.138537 183.08678 
L 210.138537 181.62988 
L 210.429632 181.62988 
L 210.429632 176.762433 
L 210.512068 177.185834 
L 211.912641 177.185834 
L 211.912641 176.355701 
L 212.319836 176.355701 
L 212.410482 174.202022 
L 212.527582 174.202022 
L 212.527582 173.771953 
L 219.780783 173.771953 
L 219.780783 171.808305 
L 220.377794 171.704955 
L 220.377794 170.398079 
L 221.45337 170.398079 
L 221.45337 168.634463 
L 221.87562 168.634463 
L 221.87562 167.484279 
L 222.255584 167.484279 
L 222.255584 164.720503 
L 222.862456 164.720503 
L 222.862456 159.432989 
L 223.167509 159.432989 
L 223.168509 173.318547 
L 223.168509 173.31188 
L 223.697253 173.31188 
L 223.697253 173.485241 
L 229.166396 173.485241 
L 229.166396 173.221865 
L 238.628562 173.221865 
L 238.628562 171.281554 
L 239.239053 171.281554 
L 239.239053 171.614941 
L 239.654609 171.614941 
L 239.654609 171.368235 
L 240.103541 171.368235 
L 240.103541 170.988174 
L 240.563231 170.988174 
L 240.563231 169.731306 
L 241.050184 169.731306 
L 241.056627 167.634303 
L 241.402434 167.634303 
L 241.402434 167.270912 
L 241.523554 167.270912 
L 241.523554 165.090562 
L 241.651829 165.090562 
L 241.651829 164.220423 
L 241.890082 164.220423 
L 241.891375 162.516816 
L 242.933081 162.540153 
L 242.933081 156.525856 
L 243.380453 156.525856 
L 243.481183 161.836707 
L 243.972559 161.836707 
L 243.972559 159.553008 
L 244.403621 159.553008 
L 244.403621 157.776056 
L 244.786389 157.776056 
L 244.786389 157.446003 
L 244.787361 163.747013 
L 245.264926 163.747013 
L 245.264926 159.229623 
L 246.260488 159.229623 
L 246.260488 148.987981 
L 246.261455 148.987981 
L 246.683754 148.987981 
L 246.683754 148.594585 
L 247.209815 148.594585 
L 247.209815 160.259788 
L 247.758884 160.259788 
L 247.758884 158.996252 
L 247.966537 158.996252 
L 248.077085 157.07261 
L 248.236813 157.065943 
L 248.239768 156.472514 
L 248.563353 156.472514 
L 248.563353 153.105308 
L 249.487079 153.105308 
L 249.487079 154.885593 
L 250.379999 154.885593 
L 250.379999 259.885755 
L 250.476762 259.885755 
L 307.773617 259.885755 
L 307.773617 158.63286 
L 320.323367 158.63286 
L 320.323367 157.335986 
L 329.20889 157.335986 
L 329.20889 156.059115 
L 333.034503 156.059115 
L 333.034503 152.631899 
L 339.529785 152.631899 
L 339.529785 151.411703 
L 339.648846 151.411703 
L 339.648846 151.048311 
L 340.161215 151.048311 
L 340.161215 150.758265 
L 340.280184 150.758265 
L 340.280184 149.504731 
L 347.70988 149.504731 
L 347.70988 149.291363 
L 362.593589 149.291363 
L 362.593589 149.421384 
L 362.593589 149.421384 
" clip-path="url(#pfa9b14c645)" style="fill: none; stroke-dasharray: 6,2.25; stroke-dashoffset: 0; stroke: #ff7f0e; stroke-width: 1.5"/>
   </g>
   <g id="line2d_37">
    <path d="M 222.11554 271.644306 
L 222.116236 271.644306 
L 222.198379 211.774711 
L 222.669222 211.774711 
L 222.679545 119.133196 
L 223.158365 119.133196 
L 223.158365 110.408465 
L 223.65344 110.408465 
L 223.65344 114.185737 
L 225.981982 114.185737 
L 225.981982 115.599297 
L 228.211582 115.599297 
L 228.289216 120.690112 
L 228.296529 120.686779 
L 240.095571 120.686779 
L 240.095571 118.753135 
L 241.963744 118.753135 
L 241.963744 117.746307 
L 244.713156 117.746307 
L 244.713156 118.306397 
L 246.121471 118.306397 
L 246.13921 117.279566 
L 249.464678 117.279566 
L 249.464678 117.156213 
L 249.4891 117.159547 
L 256.532545 117.159547 
L 256.532545 112.502134 
L 257.936584 112.502134 
L 257.936584 231.211159 
L 257.939002 110.271776 
L 259.331828 110.281778 
L 259.39684 109.478316 
L 259.8061 109.478316 
L 259.8061 109.02491 
L 273.38243 109.02491 
L 273.38243 107.317969 
L 275.79587 107.317969 
L 275.79587 103.91409 
L 276.238505 103.91409 
L 276.238505 100.373523 
L 277.641365 100.373523 
L 277.648613 99.386698 
L 277.653541 99.700082 
L 278.123157 99.700082 
L 278.144585 97.689759 
L 278.509717 97.689759 
L 278.602356 91.422088 
L 280.955385 91.422088 
L 280.955385 84.774356 
L 282.331808 84.774356 
L 282.331808 81.24379 
L 282.805298 81.24379 
L 282.805298 81.043758 
L 285.616039 81.043758 
L 285.616039 79.793558 
L 285.980035 79.793558 
L 285.980035 80.396988 
L 286.150738 80.396988 
L 286.150738 80.203624 
L 287.451532 80.203624 
L 287.463773 76.189647 
L 288.016934 76.189647 
L 288.025241 83.76086 
L 288.445366 83.76086 
L 288.461144 79.470173 
L 288.931939 79.470173 
L 288.931939 75.866262 
L 289.387787 75.866262 
L 289.392819 79.333484 
L 290.71973 79.333484 
L 290.816738 76.653055 
L 291.382047 76.653055 
L 291.382047 75.976279 
L 292.737036 75.976279 
L 292.737036 78.486682 
L 293.14102 78.486682 
L 293.14102 78.023274 
L 295.508306 78.039943 
L 295.508306 77.739895 
L 297.424991 77.739895 
L 297.424991 76.87309 
L 298.794546 76.87309 
L 298.794546 76.349673 
L 299.167029 76.349673 
L 299.238241 72.432378 
L 300.65194 72.432378 
L 300.65194 71.562239 
L 301.022924 71.562239 
L 301.022924 70.752109 
L 301.140208 70.752109 
L 301.140208 71.358873 
L 302.031634 71.358873 
L 302.031634 71.915629 
L 302.040224 71.432218 
L 304.817073 71.432218 
L 304.817073 44.36788 
L 304.895266 70.46873 
L 318.36206 70.46873 
L 318.469749 68.171695 
L 321.629605 68.171695 
L 321.629605 66.201379 
L 321.635533 66.281392 
L 330.238779 66.281392 
L 330.238779 64.681136 
L 331.084295 64.681136 
L 331.084295 61.250586 
L 331.516357 61.250586 
L 331.516357 56.429813 
L 332.436877 56.429813 
L 332.527773 41.580767 
L 332.861621 41.580767 
L 332.963579 35.529797 
L 332.98674 35.529797 
L 332.99709 32.776022 
L 333.401373 32.776022 
L 333.401373 27.055105 
L 333.496746 27.138452 
L 334.786424 27.091778 
L 334.786424 27.691874 
L 337.275992 27.691874 
L 337.275992 26.875076 
L 340.362675 26.875076 
L 340.362675 26.415003 
L 351.798655 26.415003 
L 351.798655 26.208303 
L 352.695617 26.208303 
L 352.695617 31.699183 
L 352.735154 31.169098 
L 355.998701 31.169098 
L 355.998701 30.802373 
L 356.517389 30.802373 
L 356.528412 30.315628 
L 371.46679 30.315628 
L 371.510048 24.618048 
L 382.79489 24.61138 
L 382.838382 24.037955 
L 383.235884 24.037955 
L 383.235884 23.221157 
L 384.638239 23.221157 
L 384.638239 26.555025 
L 386.092416 26.555025 
L 386.092416 28.298638 
L 389.246594 28.298638 
L 389.246594 30.992403 
L 389.807502 30.992403 
L 389.807502 30.815708 
L 391.236751 30.815708 
L 391.236751 37.250073 
L 392.658079 37.250073 
L 392.665337 37.870172 
L 393.038217 37.790159 
L 393.038217 37.746819 
L 395.902458 37.783491 
L 395.902458 34.352942 
L 396.399299 34.352942 
L 396.399299 32.345953 
L 396.856679 32.345953 
L 396.856679 30.422312 
L 397.42947 30.422312 
L 397.42947 32.025902 
L 397.42947 32.025902 
" clip-path="url(#pfa9b14c645)" style="fill: none; stroke-dasharray: 1.5,1.5; stroke-dashoffset: 0; stroke: #2ca02c; stroke-width: 1.5"/>
   </g>
   <g id="line2d_38"/>
   <g id="line2d_39"/>
   <g id="line2d_40"/>
   <g id="line2d_41">
    <path d="M 44.66 71.612247 
L 400.715412 71.612247 
" clip-path="url(#pfa9b14c645)" style="fill: none; stroke: #808080; stroke-width: 1.5; stroke-linecap: square"/>
   </g>
   <g id="line2d_42">
    <path d="M 139.310126 284.065464 
L 139.310126 10.8 
" clip-path="url(#pfa9b14c645)" style="fill: none; stroke: #808080; stroke-width: 1.5; stroke-linecap: square"/>
   </g>
   <g id="line2d_43">
    <path d="M 111.144909 284.065464 
L 111.144909 10.8 
" clip-path="url(#pfa9b14c645)" style="fill: none; stroke-dasharray: 5.55,2.4; stroke-dashoffset: 0; stroke: #808080; stroke-width: 1.5"/>
   </g>
   <g id="line2d_44">
    <path d="M 396.552447 284.065464 
L 396.552447 10.8 
" clip-path="url(#pfa9b14c645)" style="fill: none; stroke-dasharray: 5.55,2.4; stroke-dashoffset: 0; stroke: #808080; stroke-width: 1.5"/>
   </g>
   <g id="patch_3">
    <path d="M 44.66 284.065464 
L 44.66 10.8 
" style="fill: none; stroke: #000000; stroke-width: 0.8; stroke-linejoin: miter; stroke-linecap: square"/>
   </g>
   <g id="patch_4">
    <path d="M 400.715412 284.065464 
L 400.715412 10.8 
" style="fill: none; stroke: #000000; stroke-width: 0.8; stroke-linejoin: miter; stroke-linecap: square"/>
   </g>
   <g id="patch_5">
    <path d="M 44.66 284.065464 
L 400.715412 284.065464 
" style="fill: none; stroke: #000000; stroke-width: 0.8; stroke-linejoin: miter; stroke-linecap: square"/>
   </g>
   <g id="patch_6">
    <path d="M 44.66 10.8 
L 400.715412 10.8 
" style="fill: none; stroke: #000000; stroke-width: 0.8; stroke-linejoin: miter; stroke-linecap: square"/>
   </g>
   <g id="text_20">
    <!--  3y apj39 -->
    <g transform="translate(139.310126 88.281585) scale(0.1 -0.1)">
     <defs>
      <path id="DejaVuSans-79" d="M 2059 -325 
Q 1816 -950 1584 -1140 
Q 1353 -1331 966 -1331 
L 506 -1331 
L 506 -850 
L 844 -850 
Q 1081 -850 1212 -737 
Q 1344 -625 1503 -206 
L 1606 56 
L 191 3500 
L 800 3500 
L 1894 763 
L 2988 3500 
L 3597 3500 
L 2059 -325 
z
" transform="scale(0.015625)"/>
      <path id="DejaVuSans-70" d="M 1159 525 
L 1159 -1331 
L 581 -1331 
L 581 3500 
L 1159 3500 
L 1159 2969 
Q 1341 3281 1617 3432 
Q 1894 3584 2278 3584 
Q 2916 3584 3314 3078 
Q 3713 2572 3713 1747 
Q 3713 922 3314 415 
Q 2916 -91 2278 -91 
Q 1894 -91 1617 61 
Q 1341 213 1159 525 
z
M 3116 1747 
Q 3116 2381 2855 2742 
Q 2594 3103 2138 3103 
Q 1681 3103 1420 2742 
Q 1159 2381 1159 1747 
Q 1159 1113 1420 752 
Q 1681 391 2138 391 
Q 2594 391 2855 752 
Q 3116 1113 3116 1747 
z
" transform="scale(0.015625)"/>
      <path id="DejaVuSans-6a" d="M 603 3500 
L 1178 3500 
L 1178 -63 
Q 1178 -731 923 -1031 
Q 669 -1331 103 -1331 
L -116 -1331 
L -116 -844 
L 38 -844 
Q 366 -844 484 -692 
Q 603 -541 603 -63 
L 603 3500 
z
M 603 4863 
L 1178 4863 
L 1178 4134 
L 603 4134 
L 603 4863 
z
" transform="scale(0.015625)"/>
      <path id="DejaVuSans-39" d="M 703 97 
L 703 672 
Q 941 559 1184 500 
Q 1428 441 1663 441 
Q 2288 441 2617 861 
Q 2947 1281 2994 2138 
Q 2813 1869 2534 1725 
Q 2256 1581 1919 1581 
Q 1219 1581 811 2004 
Q 403 2428 403 3163 
Q 403 3881 828 4315 
Q 1253 4750 1959 4750 
Q 2769 4750 3195 4129 
Q 3622 3509 3622 2328 
Q 3622 1225 3098 567 
Q 2575 -91 1691 -91 
Q 1453 -91 1209 -44 
Q 966 3 703 97 
z
M 1959 2075 
Q 2384 2075 2632 2365 
Q 2881 2656 2881 3163 
Q 2881 3666 2632 3958 
Q 2384 4250 1959 4250 
Q 1534 4250 1286 3958 
Q 1038 3666 1038 3163 
Q 1038 2656 1286 2365 
Q 1534 2075 1959 2075 
z
" transform="scale(0.015625)"/>
     </defs>
     <use xlink:href="#DejaVuSans-20"/>
     <use xlink:href="#DejaVuSans-33" x="31.787109"/>
     <use xlink:href="#DejaVuSans-79" x="95.410156"/>
     <use xlink:href="#DejaVuSans-20" x="154.589844"/>
     <use xlink:href="#DejaVuSans-61" x="186.376953"/>
     <use xlink:href="#DejaVuSans-70" x="247.65625"/>
     <use xlink:href="#DejaVuSans-6a" x="311.132812"/>
     <use xlink:href="#DejaVuSans-33" x="338.916016"/>
     <use xlink:href="#DejaVuSans-39" x="402.539062"/>
    </g>
   </g>
   <g id="text_21">
    <!--  3y cjj39 -->
    <g transform="translate(111.144909 88.281585) scale(0.1 -0.1)">
     <use xlink:href="#DejaVuSans-20"/>
     <use xlink:href="#DejaVuSans-33" x="31.787109"/>
     <use xlink:href="#DejaVuSans-79" x="95.410156"/>
     <use xlink:href="#DejaVuSans-20" x="154.589844"/>
     <use xlink:href="#DejaVuSans-63" x="186.376953"/>
     <use xlink:href="#DejaVuSans-6a" x="241.357422"/>
     <use xlink:href="#DejaVuSans-6a" x="269.140625"/>
     <use xlink:href="#DejaVuSans-33" x="296.923828"/>
     <use xlink:href="#DejaVuSans-39" x="360.546875"/>
    </g>
   </g>
   <g id="text_22">
    <!--  3y jb2328 -->
    <g transform="translate(396.552447 88.281585) scale(0.1 -0.1)">
     <defs>
      <path id="DejaVuSans-62" d="M 3116 1747 
Q 3116 2381 2855 2742 
Q 2594 3103 2138 3103 
Q 1681 3103 1420 2742 
Q 1159 2381 1159 1747 
Q 1159 1113 1420 752 
Q 1681 391 2138 391 
Q 2594 391 2855 752 
Q 3116 1113 3116 1747 
z
M 1159 2969 
Q 1341 3281 1617 3432 
Q 1894 3584 2278 3584 
Q 2916 3584 3314 3078 
Q 3713 2572 3713 1747 
Q 3713 922 3314 415 
Q 2916 -91 2278 -91 
Q 1894 -91 1617 61 
Q 1341 213 1159 525 
L 1159 0 
L 581 0 
L 581 4863 
L 1159 4863 
L 1159 2969 
z
" transform="scale(0.015625)"/>
      <path id="DejaVuSans-38" d="M 2034 2216 
Q 1584 2216 1326 1975 
Q 1069 1734 1069 1313 
Q 1069 891 1326 650 
Q 1584 409 2034 409 
Q 2484 409 2743 651 
Q 3003 894 3003 1313 
Q 3003 1734 2745 1975 
Q 2488 2216 2034 2216 
z
M 1403 2484 
Q 997 2584 770 2862 
Q 544 3141 544 3541 
Q 544 4100 942 4425 
Q 1341 4750 2034 4750 
Q 2731 4750 3128 4425 
Q 3525 4100 3525 3541 
Q 3525 3141 3298 2862 
Q 3072 2584 2669 2484 
Q 3125 2378 3379 2068 
Q 3634 1759 3634 1313 
Q 3634 634 3220 271 
Q 2806 -91 2034 -91 
Q 1263 -91 848 271 
Q 434 634 434 1313 
Q 434 1759 690 2068 
Q 947 2378 1403 2484 
z
M 1172 3481 
Q 1172 3119 1398 2916 
Q 1625 2713 2034 2713 
Q 2441 2713 2670 2916 
Q 2900 3119 2900 3481 
Q 2900 3844 2670 4047 
Q 2441 4250 2034 4250 
Q 1625 4250 1398 4047 
Q 1172 3844 1172 3481 
z
" transform="scale(0.015625)"/>
     </defs>
     <use xlink:href="#DejaVuSans-20"/>
     <use xlink:href="#DejaVuSans-33" x="31.787109"/>
     <use xlink:href="#DejaVuSans-79" x="95.410156"/>
     <use xlink:href="#DejaVuSans-20" x="154.589844"/>
     <use xlink:href="#DejaVuSans-6a" x="186.376953"/>
     <use xlink:href="#DejaVuSans-62" x="214.160156"/>
     <use xlink:href="#DejaVuSans-32" x="277.636719"/>
     <use xlink:href="#DejaVuSans-33" x="341.259766"/>
     <use xlink:href="#DejaVuSans-32" x="404.882812"/>
     <use xlink:href="#DejaVuSans-38" x="468.505859"/>
    </g>
   </g>
   <g id="PathCollection_1">
    <defs>
     <path id="mf45d31f2b3" d="M 0 -5 
L -1.12257 -1.545085 
L -4.755283 -1.545085 
L -1.816356 0.59017 
L -2.938926 4.045085 
L -0 1.90983 
L 2.938926 4.045085 
L 1.816356 0.59017 
L 4.755283 -1.545085 
L 1.12257 -1.545085 
z
" style="stroke: #000000; stroke-width: 0.5"/>
    </defs>
    <g clip-path="url(#pfa9b14c645)">
     <use xlink:href="#mf45d31f2b3" x="199.591755" y="134.679021" style="fill: #ffd700; stroke: #000000; stroke-width: 0.5"/>
    </g>
   </g>
   <g id="legend_1">
    <g id="patch_7">
     <path d="M 51.66 92.190625 
L 140.86625 92.190625 
Q 142.86625 92.190625 142.86625 90.190625 
L 142.86625 17.8 
Q 142.86625 15.8 140.86625 15.8 
L 51.66 15.8 
Q 49.66 15.8 49.66 17.8 
L 49.66 90.190625 
Q 49.66 92.190625 51.66 92.190625 
z
" style="fill: #ffffff; opacity: 0.8; stroke: #cccccc; stroke-linejoin: miter"/>
    </g>
    <g id="line2d_45">
     <path d="M 53.66 23.898438 
L 63.66 23.898438 
L 73.66 23.898438 
" style="fill: none; stroke: #1f77b4; stroke-width: 1.5; stroke-linecap: square"/>
    </g>
    <g id="text_23">
     <!-- apj39 -->
     <g transform="translate(81.66 27.398438) scale(0.1 -0.1)">
      <use xlink:href="#DejaVuSans-61"/>
      <use xlink:href="#DejaVuSans-70" x="61.279297"/>
      <use xlink:href="#DejaVuSans-6a" x="124.755859"/>
      <use xlink:href="#DejaVuSans-33" x="152.539062"/>
      <use xlink:href="#DejaVuSans-39" x="216.162109"/>
     </g>
    </g>
    <g id="line2d_46">
     <path d="M 53.66 38.576563 
L 63.66 38.576563 
L 73.66 38.576563 
" style="fill: none; stroke-dasharray: 6,2.25; stroke-dashoffset: 0; stroke: #ff7f0e; stroke-width: 1.5"/>
    </g>
    <g id="text_24">
     <!-- cjj39 -->
     <g transform="translate(81.66 42.076563) scale(0.1 -0.1)">
      <use xlink:href="#DejaVuSans-63"/>
      <use xlink:href="#DejaVuSans-6a" x="54.980469"/>
      <use xlink:href="#DejaVuSans-6a" x="82.763672"/>
      <use xlink:href="#DejaVuSans-33" x="110.546875"/>
      <use xlink:href="#DejaVuSans-39" x="174.169922"/>
     </g>
    </g>
    <g id="line2d_47">
     <path d="M 53.66 53.254688 
L 63.66 53.254688 
L 73.66 53.254688 
" style="fill: none; stroke-dasharray: 1.5,1.5; stroke-dashoffset: 0; stroke: #2ca02c; stroke-width: 1.5"/>
    </g>
    <g id="text_25">
     <!-- jb2328 -->
     <g transform="translate(81.66 56.754688) scale(0.1 -0.1)">
      <use xlink:href="#DejaVuSans-6a"/>
      <use xlink:href="#DejaVuSans-62" x="27.783203"/>
      <use xlink:href="#DejaVuSans-32" x="91.259766"/>
      <use xlink:href="#DejaVuSans-33" x="154.882812"/>
      <use xlink:href="#DejaVuSans-32" x="218.505859"/>
      <use xlink:href="#DejaVuSans-38" x="282.128906"/>
     </g>
    </g>
    <g id="line2d_48">
     <path d="M 53.66 67.932813 
L 63.66 67.932813 
L 73.66 67.932813 
" style="fill: none; stroke: #808080; stroke-width: 1.5; stroke-linecap: square"/>
    </g>
    <g id="text_26">
     <!-- Word limit -->
     <g transform="translate(81.66 71.432813) scale(0.1 -0.1)">
      <defs>
       <path id="DejaVuSans-6c" d="M 603 4863 
L 1178 4863 
L 1178 0 
L 603 0 
L 603 4863 
z
" transform="scale(0.015625)"/>
      </defs>
      <use xlink:href="#DejaVuSans-57"/>
      <use xlink:href="#DejaVuSans-6f" x="93.001953"/>
      <use xlink:href="#DejaVuSans-72" x="154.183594"/>
      <use xlink:href="#DejaVuSans-64" x="193.546875"/>
      <use xlink:href="#DejaVuSans-20" x="257.023438"/>
      <use xlink:href="#DejaVuSans-6c" x="288.810547"/>
      <use xlink:href="#DejaVuSans-69" x="316.59375"/>
      <use xlink:href="#DejaVuSans-6d" x="344.376953"/>
      <use xlink:href="#DejaVuSans-69" x="441.789062"/>
      <use xlink:href="#DejaVuSans-74" x="469.572266"/>
     </g>
    </g>
    <g id="PathCollection_2">
     <g>
      <use xlink:href="#mf45d31f2b3" x="63.66" y="83.485938" style="fill: #ffd700; stroke: #000000; stroke-width: 0.5"/>
     </g>
    </g>
    <g id="text_27">
     <!-- Submission -->
     <g transform="translate(81.66 86.110938) scale(0.1 -0.1)">
      <defs>
       <path id="DejaVuSans-53" d="M 3425 4513 
L 3425 3897 
Q 3066 4069 2747 4153 
Q 2428 4238 2131 4238 
Q 1616 4238 1336 4038 
Q 1056 3838 1056 3469 
Q 1056 3159 1242 3001 
Q 1428 2844 1947 2747 
L 2328 2669 
Q 3034 2534 3370 2195 
Q 3706 1856 3706 1288 
Q 3706 609 3251 259 
Q 2797 -91 1919 -91 
Q 1588 -91 1214 -16 
Q 841 59 441 206 
L 441 856 
Q 825 641 1194 531 
Q 1563 422 1919 422 
Q 2459 422 2753 634 
Q 3047 847 3047 1241 
Q 3047 1584 2836 1778 
Q 2625 1972 2144 2069 
L 1759 2144 
Q 1053 2284 737 2584 
Q 422 2884 422 3419 
Q 422 4038 858 4394 
Q 1294 4750 2059 4750 
Q 2388 4750 2728 4690 
Q 3069 4631 3425 4513 
z
" transform="scale(0.015625)"/>
       <path id="DejaVuSans-73" d="M 2834 3397 
L 2834 2853 
Q 2591 2978 2328 3040 
Q 2066 3103 1784 3103 
Q 1356 3103 1142 2972 
Q 928 2841 928 2578 
Q 928 2378 1081 2264 
Q 1234 2150 1697 2047 
L 1894 2003 
Q 2506 1872 2764 1633 
Q 3022 1394 3022 966 
Q 3022 478 2636 193 
Q 2250 -91 1575 -91 
Q 1294 -91 989 -36 
Q 684 19 347 128 
L 347 722 
Q 666 556 975 473 
Q 1284 391 1588 391 
Q 1994 391 2212 530 
Q 2431 669 2431 922 
Q 2431 1156 2273 1281 
Q 2116 1406 1581 1522 
L 1381 1569 
Q 847 1681 609 1914 
Q 372 2147 372 2553 
Q 372 3047 722 3315 
Q 1072 3584 1716 3584 
Q 2034 3584 2315 3537 
Q 2597 3491 2834 3397 
z
" transform="scale(0.015625)"/>
      </defs>
      <use xlink:href="#DejaVuSans-53"/>
      <use xlink:href="#DejaVuSans-75" x="63.476562"/>
      <use xlink:href="#DejaVuSans-62" x="126.855469"/>
      <use xlink:href="#DejaVuSans-6d" x="190.332031"/>
      <use xlink:href="#DejaVuSans-69" x="287.744141"/>
      <use xlink:href="#DejaVuSans-73" x="315.527344"/>
      <use xlink:href="#DejaVuSans-73" x="367.626953"/>
      <use xlink:href="#DejaVuSans-69" x="419.726562"/>
      <use xlink:href="#DejaVuSans-6f" x="447.509766"/>
      <use xlink:href="#DejaVuSans-6e" x="508.691406"/>
     </g>
    </g>
   </g>
  </g>
 </g>
 <defs>
  <clipPath id="pfa9b14c645">
   <rect x="44.66" y="10.8" width="356.055412" height="273.265464"/>
  </clipPath>
 </defs>
</svg>
