<?xml version="1.0" encoding="utf-8" standalone="no"?>
<!DOCTYPE svg PUBLIC "-//W3C//DTD SVG 1.1//EN"
  "http://www.w3.org/Graphics/SVG/1.1/DTD/svg11.dtd">
<svg xmlns:xlink="http://www.w3.org/1999/xlink" width="460.8pt" height="345.6pt" viewBox="0 0 460.8 345.6" xmlns="http://www.w3.org/2000/svg" version="1.1">
 <metadata>
  <rdf:RDF xmlns:dc="http://purl.org/dc/elements/1.1/" xmlns:cc="http://creativecommons.org/ns#" xmlns:rdf="http://www.w3.org/1999/02/22-rdf-syntax-ns#">
   <cc:Work>
    <dc:type rdf:resource="http://purl.org/dc/dcmitype/StillImage"/>
    <dc:date>2025-05-17T10:09:16.052768</dc:date>
    <dc:format>image/svg+xml</dc:format>
    <dc:creator>
     <cc:Agent>
      <dc:title>Matplotlib v3.7.2, https://matplotlib.org/</dc:title>
     </cc:Agent>
    </dc:creator>
   </cc:Work>
  </rdf:RDF>
 </metadata>
 <defs>
  <style type="text/css">*{stroke-linejoin: round; stroke-linecap: butt}</style>
 </defs>
 <g id="figure_1">
  <g id="patch_1">
   <path d="M 0 345.6 
L 460.8 345.6 
L 460.8 0 
L 0 0 
z
" style="fill: #ffffff"/>
  </g>
  <g id="axes_1">
   <g id="patch_2">
    <path d="M 44.66 284.065464 
L 442.848658 284.065464 
L 442.848658 10.8 
L 44.66 10.8 
z
" style="fill: #ffffff"/>
   </g>
   <g id="PolyCollection_1"/>
   <g id="PolyCollection_2"/>
   <g id="PolyCollection_3"/>
   <g id="matplotlib.axis_1">
    <g id="xtick_1">
     <g id="line2d_1">
      <path d="M 76.532804 284.065464 
L 76.532804 10.8 
" clip-path="url(#p22a98be14c)" style="fill: none; stroke: #b0b0b0; stroke-width: 0.8; stroke-linecap: square"/>
     </g>
     <g id="line2d_2">
      <defs>
       <path id="mfd80956abe" d="M 0 0 
L 0 3.5 
" style="stroke: #000000; stroke-width: 0.8"/>
      </defs>
      <g>
       <use xlink:href="#mfd80956abe" x="76.532804" y="284.065464" style="stroke: #000000; stroke-width: 0.8"/>
      </g>
     </g>
     <g id="text_1">
      <!-- 2023-11 -->
      <g transform="translate(59.820003 318.53731) rotate(-30) scale(0.1 -0.1)">
       <defs>
        <path id="DejaVuSans-32" d="M 1228 531 
L 3431 531 
L 3431 0 
L 469 0 
L 469 531 
Q 828 903 1448 1529 
Q 2069 2156 2228 2338 
Q 2531 2678 2651 2914 
Q 2772 3150 2772 3378 
Q 2772 3750 2511 3984 
Q 2250 4219 1831 4219 
Q 1534 4219 1204 4116 
Q 875 4013 500 3803 
L 500 4441 
Q 881 4594 1212 4672 
Q 1544 4750 1819 4750 
Q 2544 4750 2975 4387 
Q 3406 4025 3406 3419 
Q 3406 3131 3298 2873 
Q 3191 2616 2906 2266 
Q 2828 2175 2409 1742 
Q 1991 1309 1228 531 
z
" transform="scale(0.015625)"/>
        <path id="DejaVuSans-30" d="M 2034 4250 
Q 1547 4250 1301 3770 
Q 1056 3291 1056 2328 
Q 1056 1369 1301 889 
Q 1547 409 2034 409 
Q 2525 409 2770 889 
Q 3016 1369 3016 2328 
Q 3016 3291 2770 3770 
Q 2525 4250 2034 4250 
z
M 2034 4750 
Q 2819 4750 3233 4129 
Q 3647 3509 3647 2328 
Q 3647 1150 3233 529 
Q 2819 -91 2034 -91 
Q 1250 -91 836 529 
Q 422 1150 422 2328 
Q 422 3509 836 4129 
Q 1250 4750 2034 4750 
z
" transform="scale(0.015625)"/>
        <path id="DejaVuSans-33" d="M 2597 2516 
Q 3050 2419 3304 2112 
Q 3559 1806 3559 1356 
Q 3559 666 3084 287 
Q 2609 -91 1734 -91 
Q 1441 -91 1130 -33 
Q 819 25 488 141 
L 488 750 
Q 750 597 1062 519 
Q 1375 441 1716 441 
Q 2309 441 2620 675 
Q 2931 909 2931 1356 
Q 2931 1769 2642 2001 
Q 2353 2234 1838 2234 
L 1294 2234 
L 1294 2753 
L 1863 2753 
Q 2328 2753 2575 2939 
Q 2822 3125 2822 3475 
Q 2822 3834 2567 4026 
Q 2313 4219 1838 4219 
Q 1578 4219 1281 4162 
Q 984 4106 628 3988 
L 628 4550 
Q 988 4650 1302 4700 
Q 1616 4750 1894 4750 
Q 2613 4750 3031 4423 
Q 3450 4097 3450 3541 
Q 3450 3153 3228 2886 
Q 3006 2619 2597 2516 
z
" transform="scale(0.015625)"/>
        <path id="DejaVuSans-2d" d="M 313 2009 
L 1997 2009 
L 1997 1497 
L 313 1497 
L 313 2009 
z
" transform="scale(0.015625)"/>
        <path id="DejaVuSans-31" d="M 794 531 
L 1825 531 
L 1825 4091 
L 703 3866 
L 703 4441 
L 1819 4666 
L 2450 4666 
L 2450 531 
L 3481 531 
L 3481 0 
L 794 0 
L 794 531 
z
" transform="scale(0.015625)"/>
       </defs>
       <use xlink:href="#DejaVuSans-32"/>
       <use xlink:href="#DejaVuSans-30" x="63.623047"/>
       <use xlink:href="#DejaVuSans-32" x="127.246094"/>
       <use xlink:href="#DejaVuSans-33" x="190.869141"/>
       <use xlink:href="#DejaVuSans-2d" x="254.492188"/>
       <use xlink:href="#DejaVuSans-31" x="290.576172"/>
       <use xlink:href="#DejaVuSans-31" x="354.199219"/>
      </g>
     </g>
    </g>
    <g id="xtick_2">
     <g id="line2d_3">
      <path d="M 115.705983 284.065464 
L 115.705983 10.8 
" clip-path="url(#p22a98be14c)" style="fill: none; stroke: #b0b0b0; stroke-width: 0.8; stroke-linecap: square"/>
     </g>
     <g id="line2d_4">
      <g>
       <use xlink:href="#mfd80956abe" x="115.705983" y="284.065464" style="stroke: #000000; stroke-width: 0.8"/>
      </g>
     </g>
     <g id="text_2">
      <!-- 2024-01 -->
      <g transform="translate(98.993182 318.53731) rotate(-30) scale(0.1 -0.1)">
       <defs>
        <path id="DejaVuSans-34" d="M 2419 4116 
L 825 1625 
L 2419 1625 
L 2419 4116 
z
M 2253 4666 
L 3047 4666 
L 3047 1625 
L 3713 1625 
L 3713 1100 
L 3047 1100 
L 3047 0 
L 2419 0 
L 2419 1100 
L 313 1100 
L 313 1709 
L 2253 4666 
z
" transform="scale(0.015625)"/>
       </defs>
       <use xlink:href="#DejaVuSans-32"/>
       <use xlink:href="#DejaVuSans-30" x="63.623047"/>
       <use xlink:href="#DejaVuSans-32" x="127.246094"/>
       <use xlink:href="#DejaVuSans-34" x="190.869141"/>
       <use xlink:href="#DejaVuSans-2d" x="254.492188"/>
       <use xlink:href="#DejaVuSans-30" x="290.576172"/>
       <use xlink:href="#DejaVuSans-31" x="354.199219"/>
      </g>
     </g>
    </g>
    <g id="xtick_3">
     <g id="line2d_5">
      <path d="M 154.236978 284.065464 
L 154.236978 10.8 
" clip-path="url(#p22a98be14c)" style="fill: none; stroke: #b0b0b0; stroke-width: 0.8; stroke-linecap: square"/>
     </g>
     <g id="line2d_6">
      <g>
       <use xlink:href="#mfd80956abe" x="154.236978" y="284.065464" style="stroke: #000000; stroke-width: 0.8"/>
      </g>
     </g>
     <g id="text_3">
      <!-- 2024-03 -->
      <g transform="translate(137.524177 318.53731) rotate(-30) scale(0.1 -0.1)">
       <use xlink:href="#DejaVuSans-32"/>
       <use xlink:href="#DejaVuSans-30" x="63.623047"/>
       <use xlink:href="#DejaVuSans-32" x="127.246094"/>
       <use xlink:href="#DejaVuSans-34" x="190.869141"/>
       <use xlink:href="#DejaVuSans-2d" x="254.492188"/>
       <use xlink:href="#DejaVuSans-30" x="290.576172"/>
       <use xlink:href="#DejaVuSans-33" x="354.199219"/>
      </g>
     </g>
    </g>
    <g id="xtick_4">
     <g id="line2d_7">
      <path d="M 193.410157 284.065464 
L 193.410157 10.8 
" clip-path="url(#p22a98be14c)" style="fill: none; stroke: #b0b0b0; stroke-width: 0.8; stroke-linecap: square"/>
     </g>
     <g id="line2d_8">
      <g>
       <use xlink:href="#mfd80956abe" x="193.410157" y="284.065464" style="stroke: #000000; stroke-width: 0.8"/>
      </g>
     </g>
     <g id="text_4">
      <!-- 2024-05 -->
      <g transform="translate(176.697356 318.53731) rotate(-30) scale(0.1 -0.1)">
       <defs>
        <path id="DejaVuSans-35" d="M 691 4666 
L 3169 4666 
L 3169 4134 
L 1269 4134 
L 1269 2991 
Q 1406 3038 1543 3061 
Q 1681 3084 1819 3084 
Q 2600 3084 3056 2656 
Q 3513 2228 3513 1497 
Q 3513 744 3044 326 
Q 2575 -91 1722 -91 
Q 1428 -91 1123 -41 
Q 819 9 494 109 
L 494 744 
Q 775 591 1075 516 
Q 1375 441 1709 441 
Q 2250 441 2565 725 
Q 2881 1009 2881 1497 
Q 2881 1984 2565 2268 
Q 2250 2553 1709 2553 
Q 1456 2553 1204 2497 
Q 953 2441 691 2322 
L 691 4666 
z
" transform="scale(0.015625)"/>
       </defs>
       <use xlink:href="#DejaVuSans-32"/>
       <use xlink:href="#DejaVuSans-30" x="63.623047"/>
       <use xlink:href="#DejaVuSans-32" x="127.246094"/>
       <use xlink:href="#DejaVuSans-34" x="190.869141"/>
       <use xlink:href="#DejaVuSans-2d" x="254.492188"/>
       <use xlink:href="#DejaVuSans-30" x="290.576172"/>
       <use xlink:href="#DejaVuSans-35" x="354.199219"/>
      </g>
     </g>
    </g>
    <g id="xtick_5">
     <g id="line2d_9">
      <path d="M 232.583336 284.065464 
L 232.583336 10.8 
" clip-path="url(#p22a98be14c)" style="fill: none; stroke: #b0b0b0; stroke-width: 0.8; stroke-linecap: square"/>
     </g>
     <g id="line2d_10">
      <g>
       <use xlink:href="#mfd80956abe" x="232.583336" y="284.065464" style="stroke: #000000; stroke-width: 0.8"/>
      </g>
     </g>
     <g id="text_5">
      <!-- 2024-07 -->
      <g transform="translate(215.870535 318.53731) rotate(-30) scale(0.1 -0.1)">
       <defs>
        <path id="DejaVuSans-37" d="M 525 4666 
L 3525 4666 
L 3525 4397 
L 1831 0 
L 1172 0 
L 2766 4134 
L 525 4134 
L 525 4666 
z
" transform="scale(0.015625)"/>
       </defs>
       <use xlink:href="#DejaVuSans-32"/>
       <use xlink:href="#DejaVuSans-30" x="63.623047"/>
       <use xlink:href="#DejaVuSans-32" x="127.246094"/>
       <use xlink:href="#DejaVuSans-34" x="190.869141"/>
       <use xlink:href="#DejaVuSans-2d" x="254.492188"/>
       <use xlink:href="#DejaVuSans-30" x="290.576172"/>
       <use xlink:href="#DejaVuSans-37" x="354.199219"/>
      </g>
     </g>
    </g>
    <g id="xtick_6">
     <g id="line2d_11">
      <path d="M 272.398698 284.065464 
L 272.398698 10.8 
" clip-path="url(#p22a98be14c)" style="fill: none; stroke: #b0b0b0; stroke-width: 0.8; stroke-linecap: square"/>
     </g>
     <g id="line2d_12">
      <g>
       <use xlink:href="#mfd80956abe" x="272.398698" y="284.065464" style="stroke: #000000; stroke-width: 0.8"/>
      </g>
     </g>
     <g id="text_6">
      <!-- 2024-09 -->
      <g transform="translate(255.685897 318.53731) rotate(-30) scale(0.1 -0.1)">
       <defs>
        <path id="DejaVuSans-39" d="M 703 97 
L 703 672 
Q 941 559 1184 500 
Q 1428 441 1663 441 
Q 2288 441 2617 861 
Q 2947 1281 2994 2138 
Q 2813 1869 2534 1725 
Q 2256 1581 1919 1581 
Q 1219 1581 811 2004 
Q 403 2428 403 3163 
Q 403 3881 828 4315 
Q 1253 4750 1959 4750 
Q 2769 4750 3195 4129 
Q 3622 3509 3622 2328 
Q 3622 1225 3098 567 
Q 2575 -91 1691 -91 
Q 1453 -91 1209 -44 
Q 966 3 703 97 
z
M 1959 2075 
Q 2384 2075 2632 2365 
Q 2881 2656 2881 3163 
Q 2881 3666 2632 3958 
Q 2384 4250 1959 4250 
Q 1534 4250 1286 3958 
Q 1038 3666 1038 3163 
Q 1038 2656 1286 2365 
Q 1534 2075 1959 2075 
z
" transform="scale(0.015625)"/>
       </defs>
       <use xlink:href="#DejaVuSans-32"/>
       <use xlink:href="#DejaVuSans-30" x="63.623047"/>
       <use xlink:href="#DejaVuSans-32" x="127.246094"/>
       <use xlink:href="#DejaVuSans-34" x="190.869141"/>
       <use xlink:href="#DejaVuSans-2d" x="254.492188"/>
       <use xlink:href="#DejaVuSans-30" x="290.576172"/>
       <use xlink:href="#DejaVuSans-39" x="354.199219"/>
      </g>
     </g>
    </g>
    <g id="xtick_7">
     <g id="line2d_13">
      <path d="M 311.571876 284.065464 
L 311.571876 10.8 
" clip-path="url(#p22a98be14c)" style="fill: none; stroke: #b0b0b0; stroke-width: 0.8; stroke-linecap: square"/>
     </g>
     <g id="line2d_14">
      <g>
       <use xlink:href="#mfd80956abe" x="311.571876" y="284.065464" style="stroke: #000000; stroke-width: 0.8"/>
      </g>
     </g>
     <g id="text_7">
      <!-- 2024-11 -->
      <g transform="translate(294.859075 318.53731) rotate(-30) scale(0.1 -0.1)">
       <use xlink:href="#DejaVuSans-32"/>
       <use xlink:href="#DejaVuSans-30" x="63.623047"/>
       <use xlink:href="#DejaVuSans-32" x="127.246094"/>
       <use xlink:href="#DejaVuSans-34" x="190.869141"/>
       <use xlink:href="#DejaVuSans-2d" x="254.492188"/>
       <use xlink:href="#DejaVuSans-31" x="290.576172"/>
       <use xlink:href="#DejaVuSans-31" x="354.199219"/>
      </g>
     </g>
    </g>
    <g id="xtick_8">
     <g id="line2d_15">
      <path d="M 350.745055 284.065464 
L 350.745055 10.8 
" clip-path="url(#p22a98be14c)" style="fill: none; stroke: #b0b0b0; stroke-width: 0.8; stroke-linecap: square"/>
     </g>
     <g id="line2d_16">
      <g>
       <use xlink:href="#mfd80956abe" x="350.745055" y="284.065464" style="stroke: #000000; stroke-width: 0.8"/>
      </g>
     </g>
     <g id="text_8">
      <!-- 2025-01 -->
      <g transform="translate(334.032254 318.53731) rotate(-30) scale(0.1 -0.1)">
       <use xlink:href="#DejaVuSans-32"/>
       <use xlink:href="#DejaVuSans-30" x="63.623047"/>
       <use xlink:href="#DejaVuSans-32" x="127.246094"/>
       <use xlink:href="#DejaVuSans-35" x="190.869141"/>
       <use xlink:href="#DejaVuSans-2d" x="254.492188"/>
       <use xlink:href="#DejaVuSans-30" x="290.576172"/>
       <use xlink:href="#DejaVuSans-31" x="354.199219"/>
      </g>
     </g>
    </g>
    <g id="xtick_9">
     <g id="line2d_17">
      <path d="M 388.633867 284.065464 
L 388.633867 10.8 
" clip-path="url(#p22a98be14c)" style="fill: none; stroke: #b0b0b0; stroke-width: 0.8; stroke-linecap: square"/>
     </g>
     <g id="line2d_18">
      <g>
       <use xlink:href="#mfd80956abe" x="388.633867" y="284.065464" style="stroke: #000000; stroke-width: 0.8"/>
      </g>
     </g>
     <g id="text_9">
      <!-- 2025-03 -->
      <g transform="translate(371.921066 318.53731) rotate(-30) scale(0.1 -0.1)">
       <use xlink:href="#DejaVuSans-32"/>
       <use xlink:href="#DejaVuSans-30" x="63.623047"/>
       <use xlink:href="#DejaVuSans-32" x="127.246094"/>
       <use xlink:href="#DejaVuSans-35" x="190.869141"/>
       <use xlink:href="#DejaVuSans-2d" x="254.492188"/>
       <use xlink:href="#DejaVuSans-30" x="290.576172"/>
       <use xlink:href="#DejaVuSans-33" x="354.199219"/>
      </g>
     </g>
    </g>
    <g id="xtick_10">
     <g id="line2d_19">
      <path d="M 427.807046 284.065464 
L 427.807046 10.8 
" clip-path="url(#p22a98be14c)" style="fill: none; stroke: #b0b0b0; stroke-width: 0.8; stroke-linecap: square"/>
     </g>
     <g id="line2d_20">
      <g>
       <use xlink:href="#mfd80956abe" x="427.807046" y="284.065464" style="stroke: #000000; stroke-width: 0.8"/>
      </g>
     </g>
     <g id="text_10">
      <!-- 2025-05 -->
      <g transform="translate(411.094245 318.53731) rotate(-30) scale(0.1 -0.1)">
       <use xlink:href="#DejaVuSans-32"/>
       <use xlink:href="#DejaVuSans-30" x="63.623047"/>
       <use xlink:href="#DejaVuSans-32" x="127.246094"/>
       <use xlink:href="#DejaVuSans-35" x="190.869141"/>
       <use xlink:href="#DejaVuSans-2d" x="254.492188"/>
       <use xlink:href="#DejaVuSans-30" x="290.576172"/>
       <use xlink:href="#DejaVuSans-35" x="354.199219"/>
      </g>
     </g>
    </g>
    <g id="text_11">
     <!-- Date &amp; time -->
     <g transform="translate(213.43011 331.93681) scale(0.1 -0.1)">
      <defs>
       <path id="DejaVuSans-44" d="M 1259 4147 
L 1259 519 
L 2022 519 
Q 2988 519 3436 956 
Q 3884 1394 3884 2338 
Q 3884 3275 3436 3711 
Q 2988 4147 2022 4147 
L 1259 4147 
z
M 628 4666 
L 1925 4666 
Q 3281 4666 3915 4102 
Q 4550 3538 4550 2338 
Q 4550 1131 3912 565 
Q 3275 0 1925 0 
L 628 0 
L 628 4666 
z
" transform="scale(0.015625)"/>
       <path id="DejaVuSans-61" d="M 2194 1759 
Q 1497 1759 1228 1600 
Q 959 1441 959 1056 
Q 959 750 1161 570 
Q 1363 391 1709 391 
Q 2188 391 2477 730 
Q 2766 1069 2766 1631 
L 2766 1759 
L 2194 1759 
z
M 3341 1997 
L 3341 0 
L 2766 0 
L 2766 531 
Q 2569 213 2275 61 
Q 1981 -91 1556 -91 
Q 1019 -91 701 211 
Q 384 513 384 1019 
Q 384 1609 779 1909 
Q 1175 2209 1959 2209 
L 2766 2209 
L 2766 2266 
Q 2766 2663 2505 2880 
Q 2244 3097 1772 3097 
Q 1472 3097 1187 3025 
Q 903 2953 641 2809 
L 641 3341 
Q 956 3463 1253 3523 
Q 1550 3584 1831 3584 
Q 2591 3584 2966 3190 
Q 3341 2797 3341 1997 
z
" transform="scale(0.015625)"/>
       <path id="DejaVuSans-74" d="M 1172 4494 
L 1172 3500 
L 2356 3500 
L 2356 3053 
L 1172 3053 
L 1172 1153 
Q 1172 725 1289 603 
Q 1406 481 1766 481 
L 2356 481 
L 2356 0 
L 1766 0 
Q 1100 0 847 248 
Q 594 497 594 1153 
L 594 3053 
L 172 3053 
L 172 3500 
L 594 3500 
L 594 4494 
L 1172 4494 
z
" transform="scale(0.015625)"/>
       <path id="DejaVuSans-65" d="M 3597 1894 
L 3597 1613 
L 953 1613 
Q 991 1019 1311 708 
Q 1631 397 2203 397 
Q 2534 397 2845 478 
Q 3156 559 3463 722 
L 3463 178 
Q 3153 47 2828 -22 
Q 2503 -91 2169 -91 
Q 1331 -91 842 396 
Q 353 884 353 1716 
Q 353 2575 817 3079 
Q 1281 3584 2069 3584 
Q 2775 3584 3186 3129 
Q 3597 2675 3597 1894 
z
M 3022 2063 
Q 3016 2534 2758 2815 
Q 2500 3097 2075 3097 
Q 1594 3097 1305 2825 
Q 1016 2553 972 2059 
L 3022 2063 
z
" transform="scale(0.015625)"/>
       <path id="DejaVuSans-20" transform="scale(0.015625)"/>
       <path id="DejaVuSans-26" d="M 1556 2509 
Q 1272 2256 1139 2004 
Q 1006 1753 1006 1478 
Q 1006 1022 1337 719 
Q 1669 416 2169 416 
Q 2466 416 2725 514 
Q 2984 613 3213 813 
L 1556 2509 
z
M 1997 2859 
L 3584 1234 
Q 3769 1513 3872 1830 
Q 3975 2147 3994 2503 
L 4575 2503 
Q 4538 2091 4375 1687 
Q 4213 1284 3922 891 
L 4794 0 
L 4006 0 
L 3559 459 
Q 3234 181 2878 45 
Q 2522 -91 2113 -91 
Q 1359 -91 881 339 
Q 403 769 403 1441 
Q 403 1841 612 2192 
Q 822 2544 1241 2853 
Q 1091 3050 1012 3245 
Q 934 3441 934 3628 
Q 934 4134 1281 4442 
Q 1628 4750 2203 4750 
Q 2463 4750 2720 4694 
Q 2978 4638 3244 4525 
L 3244 3956 
Q 2972 4103 2725 4179 
Q 2478 4256 2266 4256 
Q 1938 4256 1733 4082 
Q 1528 3909 1528 3634 
Q 1528 3475 1620 3314 
Q 1713 3153 1997 2859 
z
" transform="scale(0.015625)"/>
       <path id="DejaVuSans-69" d="M 603 3500 
L 1178 3500 
L 1178 0 
L 603 0 
L 603 3500 
z
M 603 4863 
L 1178 4863 
L 1178 4134 
L 603 4134 
L 603 4863 
z
" transform="scale(0.015625)"/>
       <path id="DejaVuSans-6d" d="M 3328 2828 
Q 3544 3216 3844 3400 
Q 4144 3584 4550 3584 
Q 5097 3584 5394 3201 
Q 5691 2819 5691 2113 
L 5691 0 
L 5113 0 
L 5113 2094 
Q 5113 2597 4934 2840 
Q 4756 3084 4391 3084 
Q 3944 3084 3684 2787 
Q 3425 2491 3425 1978 
L 3425 0 
L 2847 0 
L 2847 2094 
Q 2847 2600 2669 2842 
Q 2491 3084 2119 3084 
Q 1678 3084 1418 2786 
Q 1159 2488 1159 1978 
L 1159 0 
L 581 0 
L 581 3500 
L 1159 3500 
L 1159 2956 
Q 1356 3278 1631 3431 
Q 1906 3584 2284 3584 
Q 2666 3584 2933 3390 
Q 3200 3197 3328 2828 
z
" transform="scale(0.015625)"/>
      </defs>
      <use xlink:href="#DejaVuSans-44"/>
      <use xlink:href="#DejaVuSans-61" x="77.001953"/>
      <use xlink:href="#DejaVuSans-74" x="138.28125"/>
      <use xlink:href="#DejaVuSans-65" x="177.490234"/>
      <use xlink:href="#DejaVuSans-20" x="239.013672"/>
      <use xlink:href="#DejaVuSans-26" x="270.800781"/>
      <use xlink:href="#DejaVuSans-20" x="348.779297"/>
      <use xlink:href="#DejaVuSans-74" x="380.566406"/>
      <use xlink:href="#DejaVuSans-69" x="419.775391"/>
      <use xlink:href="#DejaVuSans-6d" x="447.558594"/>
      <use xlink:href="#DejaVuSans-65" x="544.970703"/>
     </g>
    </g>
   </g>
   <g id="matplotlib.axis_2">
    <g id="ytick_1">
     <g id="line2d_21">
      <path d="M 44.66 271.644306 
L 442.848658 271.644306 
" clip-path="url(#p22a98be14c)" style="fill: none; stroke: #b0b0b0; stroke-width: 0.8; stroke-linecap: square"/>
     </g>
     <g id="line2d_22">
      <defs>
       <path id="m096d3a07c5" d="M 0 0 
L -3.5 0 
" style="stroke: #000000; stroke-width: 0.8"/>
      </defs>
      <g>
       <use xlink:href="#m096d3a07c5" x="44.66" y="271.644306" style="stroke: #000000; stroke-width: 0.8"/>
      </g>
     </g>
     <g id="text_12">
      <!-- 0 -->
      <g transform="translate(31.2975 275.443525) scale(0.1 -0.1)">
       <use xlink:href="#DejaVuSans-30"/>
      </g>
     </g>
    </g>
    <g id="ytick_2">
     <g id="line2d_23">
      <path d="M 44.66 235.203664 
L 442.848658 235.203664 
" clip-path="url(#p22a98be14c)" style="fill: none; stroke: #b0b0b0; stroke-width: 0.8; stroke-linecap: square"/>
     </g>
     <g id="line2d_24">
      <g>
       <use xlink:href="#m096d3a07c5" x="44.66" y="235.203664" style="stroke: #000000; stroke-width: 0.8"/>
      </g>
     </g>
     <g id="text_13">
      <!-- 10 -->
      <g transform="translate(24.935 239.002883) scale(0.1 -0.1)">
       <use xlink:href="#DejaVuSans-31"/>
       <use xlink:href="#DejaVuSans-30" x="63.623047"/>
      </g>
     </g>
    </g>
    <g id="ytick_3">
     <g id="line2d_25">
      <path d="M 44.66 198.763021 
L 442.848658 198.763021 
" clip-path="url(#p22a98be14c)" style="fill: none; stroke: #b0b0b0; stroke-width: 0.8; stroke-linecap: square"/>
     </g>
     <g id="line2d_26">
      <g>
       <use xlink:href="#m096d3a07c5" x="44.66" y="198.763021" style="stroke: #000000; stroke-width: 0.8"/>
      </g>
     </g>
     <g id="text_14">
      <!-- 20 -->
      <g transform="translate(24.935 202.56224) scale(0.1 -0.1)">
       <use xlink:href="#DejaVuSans-32"/>
       <use xlink:href="#DejaVuSans-30" x="63.623047"/>
      </g>
     </g>
    </g>
    <g id="ytick_4">
     <g id="line2d_27">
      <path d="M 44.66 162.322379 
L 442.848658 162.322379 
" clip-path="url(#p22a98be14c)" style="fill: none; stroke: #b0b0b0; stroke-width: 0.8; stroke-linecap: square"/>
     </g>
     <g id="line2d_28">
      <g>
       <use xlink:href="#m096d3a07c5" x="44.66" y="162.322379" style="stroke: #000000; stroke-width: 0.8"/>
      </g>
     </g>
     <g id="text_15">
      <!-- 30 -->
      <g transform="translate(24.935 166.121597) scale(0.1 -0.1)">
       <use xlink:href="#DejaVuSans-33"/>
       <use xlink:href="#DejaVuSans-30" x="63.623047"/>
      </g>
     </g>
    </g>
    <g id="ytick_5">
     <g id="line2d_29">
      <path d="M 44.66 125.881736 
L 442.848658 125.881736 
" clip-path="url(#p22a98be14c)" style="fill: none; stroke: #b0b0b0; stroke-width: 0.8; stroke-linecap: square"/>
     </g>
     <g id="line2d_30">
      <g>
       <use xlink:href="#m096d3a07c5" x="44.66" y="125.881736" style="stroke: #000000; stroke-width: 0.8"/>
      </g>
     </g>
     <g id="text_16">
      <!-- 40 -->
      <g transform="translate(24.935 129.680955) scale(0.1 -0.1)">
       <use xlink:href="#DejaVuSans-34"/>
       <use xlink:href="#DejaVuSans-30" x="63.623047"/>
      </g>
     </g>
    </g>
    <g id="ytick_6">
     <g id="line2d_31">
      <path d="M 44.66 89.441093 
L 442.848658 89.441093 
" clip-path="url(#p22a98be14c)" style="fill: none; stroke: #b0b0b0; stroke-width: 0.8; stroke-linecap: square"/>
     </g>
     <g id="line2d_32">
      <g>
       <use xlink:href="#m096d3a07c5" x="44.66" y="89.441093" style="stroke: #000000; stroke-width: 0.8"/>
      </g>
     </g>
     <g id="text_17">
      <!-- 50 -->
      <g transform="translate(24.935 93.240312) scale(0.1 -0.1)">
       <use xlink:href="#DejaVuSans-35"/>
       <use xlink:href="#DejaVuSans-30" x="63.623047"/>
      </g>
     </g>
    </g>
    <g id="ytick_7">
     <g id="line2d_33">
      <path d="M 44.66 53.000451 
L 442.848658 53.000451 
" clip-path="url(#p22a98be14c)" style="fill: none; stroke: #b0b0b0; stroke-width: 0.8; stroke-linecap: square"/>
     </g>
     <g id="line2d_34">
      <g>
       <use xlink:href="#m096d3a07c5" x="44.66" y="53.000451" style="stroke: #000000; stroke-width: 0.8"/>
      </g>
     </g>
     <g id="text_18">
      <!-- 60 -->
      <g transform="translate(24.935 56.799669) scale(0.1 -0.1)">
       <defs>
        <path id="DejaVuSans-36" d="M 2113 2584 
Q 1688 2584 1439 2293 
Q 1191 2003 1191 1497 
Q 1191 994 1439 701 
Q 1688 409 2113 409 
Q 2538 409 2786 701 
Q 3034 994 3034 1497 
Q 3034 2003 2786 2293 
Q 2538 2584 2113 2584 
z
M 3366 4563 
L 3366 3988 
Q 3128 4100 2886 4159 
Q 2644 4219 2406 4219 
Q 1781 4219 1451 3797 
Q 1122 3375 1075 2522 
Q 1259 2794 1537 2939 
Q 1816 3084 2150 3084 
Q 2853 3084 3261 2657 
Q 3669 2231 3669 1497 
Q 3669 778 3244 343 
Q 2819 -91 2113 -91 
Q 1303 -91 875 529 
Q 447 1150 447 2328 
Q 447 3434 972 4092 
Q 1497 4750 2381 4750 
Q 2619 4750 2861 4703 
Q 3103 4656 3366 4563 
z
" transform="scale(0.015625)"/>
       </defs>
       <use xlink:href="#DejaVuSans-36"/>
       <use xlink:href="#DejaVuSans-30" x="63.623047"/>
      </g>
     </g>
    </g>
    <g id="ytick_8">
     <g id="line2d_35">
      <path d="M 44.66 16.559808 
L 442.848658 16.559808 
" clip-path="url(#p22a98be14c)" style="fill: none; stroke: #b0b0b0; stroke-width: 0.8; stroke-linecap: square"/>
     </g>
     <g id="line2d_36">
      <g>
       <use xlink:href="#m096d3a07c5" x="44.66" y="16.559808" style="stroke: #000000; stroke-width: 0.8"/>
      </g>
     </g>
     <g id="text_19">
      <!-- 70 -->
      <g transform="translate(24.935 20.359027) scale(0.1 -0.1)">
       <use xlink:href="#DejaVuSans-37"/>
       <use xlink:href="#DejaVuSans-30" x="63.623047"/>
      </g>
     </g>
    </g>
    <g id="text_20">
     <!-- Word count (K) -->
     <g transform="translate(18.855313 184.749138) rotate(-90) scale(0.1 -0.1)">
      <defs>
       <path id="DejaVuSans-57" d="M 213 4666 
L 850 4666 
L 1831 722 
L 2809 4666 
L 3519 4666 
L 4500 722 
L 5478 4666 
L 6119 4666 
L 4947 0 
L 4153 0 
L 3169 4050 
L 2175 0 
L 1381 0 
L 213 4666 
z
" transform="scale(0.015625)"/>
       <path id="DejaVuSans-6f" d="M 1959 3097 
Q 1497 3097 1228 2736 
Q 959 2375 959 1747 
Q 959 1119 1226 758 
Q 1494 397 1959 397 
Q 2419 397 2687 759 
Q 2956 1122 2956 1747 
Q 2956 2369 2687 2733 
Q 2419 3097 1959 3097 
z
M 1959 3584 
Q 2709 3584 3137 3096 
Q 3566 2609 3566 1747 
Q 3566 888 3137 398 
Q 2709 -91 1959 -91 
Q 1206 -91 779 398 
Q 353 888 353 1747 
Q 353 2609 779 3096 
Q 1206 3584 1959 3584 
z
" transform="scale(0.015625)"/>
       <path id="DejaVuSans-72" d="M 2631 2963 
Q 2534 3019 2420 3045 
Q 2306 3072 2169 3072 
Q 1681 3072 1420 2755 
Q 1159 2438 1159 1844 
L 1159 0 
L 581 0 
L 581 3500 
L 1159 3500 
L 1159 2956 
Q 1341 3275 1631 3429 
Q 1922 3584 2338 3584 
Q 2397 3584 2469 3576 
Q 2541 3569 2628 3553 
L 2631 2963 
z
" transform="scale(0.015625)"/>
       <path id="DejaVuSans-64" d="M 2906 2969 
L 2906 4863 
L 3481 4863 
L 3481 0 
L 2906 0 
L 2906 525 
Q 2725 213 2448 61 
Q 2172 -91 1784 -91 
Q 1150 -91 751 415 
Q 353 922 353 1747 
Q 353 2572 751 3078 
Q 1150 3584 1784 3584 
Q 2172 3584 2448 3432 
Q 2725 3281 2906 2969 
z
M 947 1747 
Q 947 1113 1208 752 
Q 1469 391 1925 391 
Q 2381 391 2643 752 
Q 2906 1113 2906 1747 
Q 2906 2381 2643 2742 
Q 2381 3103 1925 3103 
Q 1469 3103 1208 2742 
Q 947 2381 947 1747 
z
" transform="scale(0.015625)"/>
       <path id="DejaVuSans-63" d="M 3122 3366 
L 3122 2828 
Q 2878 2963 2633 3030 
Q 2388 3097 2138 3097 
Q 1578 3097 1268 2742 
Q 959 2388 959 1747 
Q 959 1106 1268 751 
Q 1578 397 2138 397 
Q 2388 397 2633 464 
Q 2878 531 3122 666 
L 3122 134 
Q 2881 22 2623 -34 
Q 2366 -91 2075 -91 
Q 1284 -91 818 406 
Q 353 903 353 1747 
Q 353 2603 823 3093 
Q 1294 3584 2113 3584 
Q 2378 3584 2631 3529 
Q 2884 3475 3122 3366 
z
" transform="scale(0.015625)"/>
       <path id="DejaVuSans-75" d="M 544 1381 
L 544 3500 
L 1119 3500 
L 1119 1403 
Q 1119 906 1312 657 
Q 1506 409 1894 409 
Q 2359 409 2629 706 
Q 2900 1003 2900 1516 
L 2900 3500 
L 3475 3500 
L 3475 0 
L 2900 0 
L 2900 538 
Q 2691 219 2414 64 
Q 2138 -91 1772 -91 
Q 1169 -91 856 284 
Q 544 659 544 1381 
z
M 1991 3584 
L 1991 3584 
z
" transform="scale(0.015625)"/>
       <path id="DejaVuSans-6e" d="M 3513 2113 
L 3513 0 
L 2938 0 
L 2938 2094 
Q 2938 2591 2744 2837 
Q 2550 3084 2163 3084 
Q 1697 3084 1428 2787 
Q 1159 2491 1159 1978 
L 1159 0 
L 581 0 
L 581 3500 
L 1159 3500 
L 1159 2956 
Q 1366 3272 1645 3428 
Q 1925 3584 2291 3584 
Q 2894 3584 3203 3211 
Q 3513 2838 3513 2113 
z
" transform="scale(0.015625)"/>
       <path id="DejaVuSans-28" d="M 1984 4856 
Q 1566 4138 1362 3434 
Q 1159 2731 1159 2009 
Q 1159 1288 1364 580 
Q 1569 -128 1984 -844 
L 1484 -844 
Q 1016 -109 783 600 
Q 550 1309 550 2009 
Q 550 2706 781 3412 
Q 1013 4119 1484 4856 
L 1984 4856 
z
" transform="scale(0.015625)"/>
       <path id="DejaVuSans-4b" d="M 628 4666 
L 1259 4666 
L 1259 2694 
L 3353 4666 
L 4166 4666 
L 1850 2491 
L 4331 0 
L 3500 0 
L 1259 2247 
L 1259 0 
L 628 0 
L 628 4666 
z
" transform="scale(0.015625)"/>
       <path id="DejaVuSans-29" d="M 513 4856 
L 1013 4856 
Q 1481 4119 1714 3412 
Q 1947 2706 1947 2009 
Q 1947 1309 1714 600 
Q 1481 -109 1013 -844 
L 513 -844 
Q 928 -128 1133 580 
Q 1338 1288 1338 2009 
Q 1338 2731 1133 3434 
Q 928 4138 513 4856 
z
" transform="scale(0.015625)"/>
      </defs>
      <use xlink:href="#DejaVuSans-57"/>
      <use xlink:href="#DejaVuSans-6f" x="93.001953"/>
      <use xlink:href="#DejaVuSans-72" x="154.183594"/>
      <use xlink:href="#DejaVuSans-64" x="193.546875"/>
      <use xlink:href="#DejaVuSans-20" x="257.023438"/>
      <use xlink:href="#DejaVuSans-63" x="288.810547"/>
      <use xlink:href="#DejaVuSans-6f" x="343.791016"/>
      <use xlink:href="#DejaVuSans-75" x="404.972656"/>
      <use xlink:href="#DejaVuSans-6e" x="468.351562"/>
      <use xlink:href="#DejaVuSans-74" x="531.730469"/>
      <use xlink:href="#DejaVuSans-20" x="570.939453"/>
      <use xlink:href="#DejaVuSans-28" x="602.726562"/>
      <use xlink:href="#DejaVuSans-4b" x="641.740234"/>
      <use xlink:href="#DejaVuSans-29" x="707.316406"/>
     </g>
    </g>
   </g>
   <g id="line2d_37">
    <path d="M 49.155283 271.644306 
L 49.156636 271.644306 
L 49.255505 262.902196 
L 49.352791 262.800163 
L 49.36368 193.183959 
L 51.407874 193.085569 
L 51.422368 191.099554 
L 51.437739 191.099554 
L 53.045813 191.099554 
L 53.045813 190.108369 
L 53.125611 190.108369 
L 53.189911 190.108369 
L 53.189911 187.90371 
L 53.823494 187.798032 
L 53.823494 187.568456 
L 55.119649 187.604896 
L 55.119649 187.24049 
L 55.181704 187.244134 
L 55.687989 187.251422 
L 55.687989 186.599135 
L 55.723346 187.451846 
L 56.846483 187.451846 
L 56.846483 189.645572 
L 57.543259 189.645572 
L 57.543259 188.975065 
L 58.167373 188.975065 
L 58.167373 188.789217 
L 58.171759 188.789217 
L 63.290807 188.774641 
L 63.290807 187.808964 
L 63.323198 191.565994 
L 63.332876 191.438452 
L 86.111487 191.438452 
L 86.111487 190.192182 
L 86.469817 190.192182 
L 86.469817 189.627352 
L 87.226106 189.627352 
L 87.226106 189.262946 
L 90.375309 189.262946 
L 90.428222 184.099307 
L 90.447087 184.172188 
L 90.49198 184.172188 
L 90.492374 183.414223 
L 91.058781 183.344985 
L 91.058781 182.481342 
L 91.060097 182.481342 
L 91.756144 182.481342 
L 91.756144 180.848801 
L 91.757341 180.848801 
L 92.216435 180.848801 
L 92.216435 179.51143 
L 93.602273 179.449481 
L 93.667472 175.980331 
L 93.687875 176.275501 
L 94.25148 176.275501 
L 94.25148 174.420672 
L 94.895343 174.358723 
L 94.977348 170.583472 
L 95.458123 170.583472 
L 95.553254 168.874406 
L 95.556881 168.874406 
L 98.159878 168.874406 
L 98.256749 167.045086 
L 98.774553 167.045086 
L 98.857301 152.476117 
L 99.3863 152.476117 
L 99.424875 147.833579 
L 100.127932 147.833579 
L 100.127932 145.290022 
L 100.128356 145.290022 
L 121.115314 145.290022 
L 121.115314 143.661125 
L 126.394803 143.661125 
L 126.394803 142.360195 
L 130.898604 142.360195 
L 130.901867 140.902569 
L 131.50022 140.807823 
L 131.50022 139.102401 
L 131.502338 139.102401 
L 141.216014 139.102401 
L 141.216014 137.732233 
L 149.475256 137.732233 
L 149.475256 137.571894 
L 156.599016 137.571894 
L 156.599016 136.150709 
L 156.607177 136.150709 
L 160.953754 136.150709 
L 161.030244 133.366644 
L 161.052549 136.75198 
L 161.062873 136.708251 
L 161.600561 136.63537 
L 161.600561 146.394174 
L 161.677823 145.894937 
L 161.724842 145.894937 
L 161.724842 151.535948 
L 162.24623 151.535948 
L 162.351142 149.662899 
L 162.351506 149.662899 
L 162.366676 149.662899 
L 162.366676 149.881543 
L 162.382092 148.485867 
L 162.979664 148.485867 
L 162.992641 146.569089 
L 163.529429 146.569089 
L 163.529429 145.683581 
L 165.45563 145.683581 
L 165.54862 143.300363 
L 165.574151 143.300363 
L 165.575816 142.866719 
L 166.089436 142.797482 
L 166.109356 142.287313 
L 166.155409 142.385703 
L 166.724908 142.32011 
L 166.835967 141.63867 
L 166.876014 141.63867 
L 166.880452 141.809941 
L 167.343797 141.809941 
L 167.447476 140.27579 
L 167.44804 140.283078 
L 167.521319 140.283078 
L 167.589923 141.955703 
L 167.596657 141.941127 
L 170.00341 141.930195 
L 170.037957 144.054684 
L 170.098548 144.036464 
L 170.587068 144.025532 
L 170.587068 143.562736 
L 170.604646 143.562736 
L 171.370747 143.562736 
L 171.370747 141.434602 
L 171.431048 141.44189 
L 171.821762 141.44189 
L 171.835141 140.538162 
L 171.841704 140.538162 
L 175.160334 140.538162 
L 175.210193 140.06079 
L 175.210594 140.06079 
L 175.698289 140.06079 
L 175.698289 139.871299 
L 175.730837 139.955112 
L 176.342323 139.955112 
L 176.405605 138.574012 
L 176.44896 139.685451 
L 177.046309 139.670875 
L 177.053288 139.554265 
L 177.139939 139.554265 
L 232.268971 139.576129 
L 232.268971 136.63537 
L 235.531834 136.63537 
L 235.55243 136.343844 
L 237.00812 136.343844 
L 237.00812 137.196555 
L 237.013144 137.196555 
L 237.370968 137.196555 
L 237.386896 136.015879 
L 237.423279 136.241811 
L 238.004611 136.241811 
L 238.004611 135.65876 
L 238.094569 135.804523 
L 238.719337 135.804523 
L 238.719337 135.006473 
L 238.785823 139.277316 
L 239.876531 139.37935 
L 239.918228 139.062316 
L 239.947089 139.299181 
L 240.085054 139.408502 
L 240.085054 139.18257 
L 241.846026 139.18257 
L 241.910564 120.565046 
L 241.918711 120.572334 
L 243.204014 120.619707 
L 243.204014 120.78369 
L 243.260985 120.761826 
L 250.956318 120.827419 
L 250.956318 121.020554 
L 251.458945 121.020554 
L 251.458945 121.224622 
L 251.479994 121.177249 
L 255.938002 121.177249 
L 255.938002 120.776402 
L 256.027432 122.033604 
L 256.02955 122.019028 
L 256.051076 122.019028 
L 256.051076 122.186655 
L 256.590814 122.186655 
L 256.603963 121.935214 
L 256.61202 121.935214 
L 296.44739 121.938858 
L 296.44739 122.507332 
L 296.967061 122.507332 
L 296.967061 121.829536 
L 297.180334 121.829536 
L 297.180334 120.790978 
L 297.888133 120.790978 
L 297.888133 118.97259 
L 298.391935 118.97259 
L 298.391935 118.411404 
L 298.492283 118.863268 
L 300.309855 118.863268 
L 300.309855 117.318185 
L 300.434992 117.318185 
L 300.542966 116.735135 
L 300.543605 116.735135 
L 301.652115 116.735135 
L 301.652115 112.635562 
L 301.707273 112.868782 
L 306.687002 112.934376 
L 306.687002 112.118105 
L 306.711805 112.118105 
L 312.05703 112.132681 
L 312.05703 111.272682 
L 324.169223 111.272682 
L 324.169223 110.489208 
L 339.843095 110.438192 
L 339.843095 110.270565 
L 342.638116 110.270565 
L 342.638116 110.478276 
L 355.01518 110.474632 
L 355.01518 110.474632 
" clip-path="url(#p22a98be14c)" style="fill: none; stroke: #1f77b4; stroke-width: 1.5; stroke-linecap: square"/>
   </g>
   <g id="line2d_38">
    <path d="M 85.836226 271.644306 
L 90.964237 271.644306 
L 90.964237 270.824392 
L 94.969558 270.817104 
L 94.969558 271.644306 
L 94.970443 270.066427 
L 113.545891 270.066427 
L 113.545891 269.833207 
L 113.631181 269.833207 
L 153.377575 269.833207 
L 153.377575 257.472541 
L 165.633018 257.472541 
L 165.633018 238.796711 
L 170.0909 238.796711 
L 170.0909 237.288069 
L 179.10464 237.258916 
L 179.10464 234.667986 
L 179.558264 234.667986 
L 179.558264 232.984429 
L 180.214109 232.984429 
L 180.214109 229.376805 
L 184.224097 229.376805 
L 184.224097 229.019687 
L 189.299612 229.019687 
L 189.299612 226.971723 
L 199.024481 226.971723 
L 199.024481 224.643166 
L 202.20806 224.643166 
L 202.20806 219.202578 
L 207.851022 219.202578 
L 207.851022 219.432154 
L 210.530079 219.432154 
L 210.530079 218.258765 
L 211.67118 218.258765 
L 211.67118 198.967089 
L 215.68849 198.967089 
L 215.68849 210.788433 
L 216.308197 210.788433 
L 216.308197 209.753519 
L 216.962072 209.753519 
L 216.962072 207.905978 
L 217.658528 207.905978 
L 217.658528 207.632674 
L 220.195866 207.632674 
L 220.195866 204.888693 
L 220.693424 204.888693 
L 220.693424 205.591998 
L 223.872179 205.591998 
L 223.872179 205.125557 
L 226.578075 205.125557 
L 226.578075 200.016579 
L 229.181556 200.016579 
L 229.181556 198.139886 
L 241.993483 198.139886 
L 242.052603 196.463617 
L 242.181723 196.507345 
L 242.181723 197.764548 
L 242.666066 197.764548 
L 242.666066 221.319779 
L 242.675617 221.319779 
L 243.192181 221.319779 
L 243.296937 159.210348 
L 260.532177 159.210348 
L 260.532177 153.496455 
L 261.680273 153.496455 
L 261.7112 186.941677 
L 265.671813 186.941677 
L 265.671813 185.597017 
L 265.889568 185.597017 
L 265.889568 184.008205 
L 265.890988 184.019137 
L 266.407046 184.019137 
L 266.407046 182.331935 
L 266.952701 182.331935 
L 266.952701 183.352273 
L 267.013218 182.761935 
L 268.861338 182.761935 
L 268.861338 180.918038 
L 269.576711 180.918038 
L 269.576711 179.522362 
L 270.281477 179.522362 
L 270.281477 176.22084 
L 270.396818 176.22084 
L 270.396818 174.847027 
L 271.040383 174.847027 
L 271.040383 173.254571 
L 271.438611 173.254571 
L 271.438611 167.934238 
L 271.550072 167.934238 
L 271.550072 168.397034 
L 271.551387 168.397034 
L 273.46742 168.397034 
L 273.46742 167.489662 
L 274.024477 167.489662 
L 274.024477 166.392798 
L 274.148484 166.392798 
L 274.148484 165.135596 
L 274.30868 165.135596 
L 274.30868 164.665512 
L 284.231311 164.665512 
L 284.231311 162.519158 
L 284.507286 162.519158 
L 284.507286 162.406192 
L 285.048043 162.406192 
L 285.048043 160.977719 
L 286.519468 160.977719 
L 286.519468 159.050009 
L 287.09712 159.050009 
L 287.09712 157.792807 
L 287.616925 157.792807 
L 287.616925 154.771877 
L 288.447147 154.771877 
L 288.447147 148.992391 
L 288.86447 148.992391 
L 288.86447 164.169919 
L 288.865837 164.162631 
L 289.589178 164.162631 
L 289.589178 164.352122 
L 297.071155 164.352122 
L 297.071155 164.064241 
L 310.015727 164.064241 
L 310.015727 161.943396 
L 310.850899 161.943396 
L 310.850899 162.307802 
L 311.419395 162.307802 
L 311.419395 162.038142 
L 312.03355 162.038142 
L 312.03355 161.622718 
L 312.662421 161.622718 
L 312.662421 160.248906 
L 313.32859 160.248906 
L 313.337405 157.95679 
L 313.81048 157.95679 
L 313.81048 157.559587 
L 313.976176 157.559587 
L 313.976176 155.176369 
L 314.151662 155.176369 
L 314.151662 154.225268 
L 314.4776 154.225268 
L 314.479369 152.363151 
L 315.904458 152.388659 
L 315.904458 145.814767 
L 316.516479 145.814767 
L 316.516479 150.894593 
L 316.654281 150.894593 
L 316.654281 151.619762 
L 317.3265 151.619762 
L 317.3265 149.123578 
L 317.916209 149.123578 
L 317.916209 147.181292 
L 318.439848 147.181292 
L 318.439848 146.820529 
L 318.441178 153.707811 
L 319.094503 153.707811 
L 319.094503 148.770104 
L 320.456467 148.770104 
L 320.456467 137.575538 
L 320.45779 137.575538 
L 321.03551 137.575538 
L 321.03551 137.145539 
L 321.755179 137.145539 
L 321.755179 149.896119 
L 322.506325 149.896119 
L 322.506325 148.515019 
L 322.790402 148.515019 
L 322.790402 148.041291 
L 322.941634 148.041291 
L 322.942928 146.405106 
L 323.160148 146.405106 
L 323.164191 145.756462 
L 323.606866 145.756462 
L 323.606866 142.075957 
L 324.870555 142.075957 
L 324.870555 144.021888 
L 326.092101 144.021888 
L 326.092101 258.791692 
L 326.101005 258.791692 
L 404.608563 258.791692 
L 404.608563 148.117816 
L 421.777057 148.117816 
L 421.777057 146.700275 
L 433.932761 146.700275 
L 433.932761 145.304598 
L 433.932761 145.304598 
" clip-path="url(#p22a98be14c)" style="fill: none; stroke-dasharray: 6,2.25; stroke-dashoffset: 0; stroke: #ff7f0e; stroke-width: 1.5"/>
   </g>
   <g id="line2d_39">
    <path d="M 287.42534 271.644306 
L 287.426291 271.644306 
L 287.437024 268.280835 
L 287.538666 268.280835 
L 287.538666 206.2042 
L 288.182797 206.2042 
L 288.196919 104.942943 
L 288.85196 104.942943 
L 288.85196 95.406426 
L 289.529241 95.406426 
L 289.529241 99.535151 
L 292.714767 99.535151 
L 292.714767 101.080235 
L 295.764937 101.080235 
L 295.871142 106.644721 
L 312.022646 106.641077 
L 312.022646 104.527519 
L 314.578372 104.527519 
L 314.578372 103.427012 
L 318.339663 103.427012 
L 318.339663 104.039215 
L 320.266287 104.039215 
L 320.290555 102.916843 
L 324.83991 102.916843 
L 324.83991 102.782013 
L 324.87332 102.785657 
L 334.508998 102.785657 
L 334.508998 97.694899 
L 336.429772 97.694899 
L 336.429772 227.449095 
L 336.43308 95.25702 
L 338.338513 95.267952 
L 338.427453 94.389733 
L 338.987334 94.389733 
L 338.987334 93.89414 
L 357.560225 93.89414 
L 357.560225 92.028379 
L 360.861894 92.028379 
L 360.861894 88.307789 
L 361.467434 88.307789 
L 361.467434 84.437793 
L 363.386596 84.437793 
L 363.396511 83.35915 
L 363.403253 83.701692 
L 364.045704 83.701692 
L 364.075018 81.504321 
L 364.574531 81.504321 
L 364.625371 75.378649 
L 364.701266 75.378649 
L 364.701266 74.65348 
L 367.920291 74.65348 
L 367.920291 67.387216 
L 369.803285 67.387216 
L 369.803285 63.528152 
L 370.451036 63.528152 
L 370.451036 63.309508 
L 374.296227 63.309508 
L 374.296227 61.942984 
L 374.794186 61.942984 
L 374.794186 62.60256 
L 375.027714 62.60256 
L 375.027714 62.391204 
L 376.807245 62.391204 
L 376.823991 58.003751 
L 377.580734 58.003751 
L 377.592099 66.279421 
L 378.166845 66.279421 
L 378.18843 61.58951 
L 378.832493 61.58951 
L 378.832493 57.650277 
L 379.45611 57.650277 
L 379.462993 61.440103 
L 381.278253 61.440103 
L 381.353628 59.792986 
L 381.410963 59.792986 
L 381.410963 58.510276 
L 382.184326 58.510276 
L 382.184326 57.770531 
L 384.037998 57.770531 
L 384.037998 60.514511 
L 384.590662 60.514511 
L 384.590662 60.007986 
L 387.829191 60.026207 
L 387.829191 59.698241 
L 390.451283 59.698241 
L 390.451283 58.750784 
L 392.324883 58.750784 
L 392.324883 58.178666 
L 392.834452 58.178666 
L 392.931872 53.89689 
L 394.865862 53.89689 
L 394.865862 52.94579 
L 395.37338 52.94579 
L 395.37338 52.060282 
L 395.533829 52.060282 
L 395.533829 52.723502 
L 396.753331 52.723502 
L 396.753331 53.33206 
L 396.765082 52.803671 
L 400.563908 52.803671 
L 400.563908 23.221157 
L 400.670879 51.750537 
L 419.09392 51.750537 
L 419.09392 49.403759 
L 419.241243 49.403759 
L 419.241243 49.239776 
L 423.564036 49.239776 
L 423.564036 47.086134 
L 423.572145 47.173592 
L 435.341684 47.173592 
L 435.341684 45.424441 
L 436.49838 45.424441 
L 436.49838 41.674699 
L 437.089456 41.674699 
L 437.089456 36.405382 
L 438.348759 36.405382 
L 438.353375 24.773529 
L 438.353375 24.773529 
" clip-path="url(#p22a98be14c)" style="fill: none; stroke-dasharray: 1.5,1.5; stroke-dashoffset: 0; stroke: #2ca02c; stroke-width: 1.5"/>
   </g>
   <g id="line2d_40"/>
   <g id="line2d_41"/>
   <g id="line2d_42"/>
   <g id="line2d_43">
    <path d="M 44.66 53.000451 
L 442.848658 53.000451 
" clip-path="url(#p22a98be14c)" style="fill: none; stroke: #808080; stroke-width: 1.5; stroke-linecap: square"/>
   </g>
   <g id="line2d_44">
    <path d="M 174.144659 284.065464 
L 174.144659 10.8 
" clip-path="url(#p22a98be14c)" style="fill: none; stroke: #808080; stroke-width: 1.5; stroke-linecap: square"/>
   </g>
   <g id="line2d_45">
    <path d="M 135.613664 284.065464 
L 135.613664 10.8 
" clip-path="url(#p22a98be14c)" style="fill: none; stroke-dasharray: 5.55,2.4; stroke-dashoffset: 0; stroke: #808080; stroke-width: 1.5"/>
   </g>
   <g id="line2d_46">
    <path clip-path="url(#p22a98be14c)" style="fill: none; stroke-dasharray: 5.55,2.4; stroke-dashoffset: 0; stroke: #808080; stroke-width: 1.5"/>
   </g>
   <g id="patch_3">
    <path d="M 44.66 284.065464 
L 44.66 10.8 
" style="fill: none; stroke: #000000; stroke-width: 0.8; stroke-linejoin: miter; stroke-linecap: square"/>
   </g>
   <g id="patch_4">
    <path d="M 442.848658 284.065464 
L 442.848658 10.8 
" style="fill: none; stroke: #000000; stroke-width: 0.8; stroke-linejoin: miter; stroke-linecap: square"/>
   </g>
   <g id="patch_5">
    <path d="M 44.66 284.065464 
L 442.848658 284.065464 
" style="fill: none; stroke: #000000; stroke-width: 0.8; stroke-linejoin: miter; stroke-linecap: square"/>
   </g>
   <g id="patch_6">
    <path d="M 44.66 10.8 
L 442.848658 10.8 
" style="fill: none; stroke: #000000; stroke-width: 0.8; stroke-linejoin: miter; stroke-linecap: square"/>
   </g>
   <g id="text_21">
    <!--  3y apj39 -->
    <g transform="translate(174.144659 71.220772) scale(0.1 -0.1)">
     <defs>
      <path id="DejaVuSans-79" d="M 2059 -325 
Q 1816 -950 1584 -1140 
Q 1353 -1331 966 -1331 
L 506 -1331 
L 506 -850 
L 844 -850 
Q 1081 -850 1212 -737 
Q 1344 -625 1503 -206 
L 1606 56 
L 191 3500 
L 800 3500 
L 1894 763 
L 2988 3500 
L 3597 3500 
L 2059 -325 
z
" transform="scale(0.015625)"/>
      <path id="DejaVuSans-70" d="M 1159 525 
L 1159 -1331 
L 581 -1331 
L 581 3500 
L 1159 3500 
L 1159 2969 
Q 1341 3281 1617 3432 
Q 1894 3584 2278 3584 
Q 2916 3584 3314 3078 
Q 3713 2572 3713 1747 
Q 3713 922 3314 415 
Q 2916 -91 2278 -91 
Q 1894 -91 1617 61 
Q 1341 213 1159 525 
z
M 3116 1747 
Q 3116 2381 2855 2742 
Q 2594 3103 2138 3103 
Q 1681 3103 1420 2742 
Q 1159 2381 1159 1747 
Q 1159 1113 1420 752 
Q 1681 391 2138 391 
Q 2594 391 2855 752 
Q 3116 1113 3116 1747 
z
" transform="scale(0.015625)"/>
      <path id="DejaVuSans-6a" d="M 603 3500 
L 1178 3500 
L 1178 -63 
Q 1178 -731 923 -1031 
Q 669 -1331 103 -1331 
L -116 -1331 
L -116 -844 
L 38 -844 
Q 366 -844 484 -692 
Q 603 -541 603 -63 
L 603 3500 
z
M 603 4863 
L 1178 4863 
L 1178 4134 
L 603 4134 
L 603 4863 
z
" transform="scale(0.015625)"/>
     </defs>
     <use xlink:href="#DejaVuSans-20"/>
     <use xlink:href="#DejaVuSans-33" x="31.787109"/>
     <use xlink:href="#DejaVuSans-79" x="95.410156"/>
     <use xlink:href="#DejaVuSans-20" x="154.589844"/>
     <use xlink:href="#DejaVuSans-61" x="186.376953"/>
     <use xlink:href="#DejaVuSans-70" x="247.65625"/>
     <use xlink:href="#DejaVuSans-6a" x="311.132812"/>
     <use xlink:href="#DejaVuSans-33" x="338.916016"/>
     <use xlink:href="#DejaVuSans-39" x="402.539062"/>
    </g>
   </g>
   <g id="text_22">
    <!--  3y cjj39 -->
    <g transform="translate(135.613664 71.220772) scale(0.1 -0.1)">
     <use xlink:href="#DejaVuSans-20"/>
     <use xlink:href="#DejaVuSans-33" x="31.787109"/>
     <use xlink:href="#DejaVuSans-79" x="95.410156"/>
     <use xlink:href="#DejaVuSans-20" x="154.589844"/>
     <use xlink:href="#DejaVuSans-63" x="186.376953"/>
     <use xlink:href="#DejaVuSans-6a" x="241.357422"/>
     <use xlink:href="#DejaVuSans-6a" x="269.140625"/>
     <use xlink:href="#DejaVuSans-33" x="296.923828"/>
     <use xlink:href="#DejaVuSans-39" x="360.546875"/>
    </g>
   </g>
   <g id="PathCollection_1">
    <defs>
     <path id="m307412e405" d="M 0 -5 
L -1.12257 -1.545085 
L -4.755283 -1.545085 
L -1.816356 0.59017 
L -2.938926 4.045085 
L -0 1.90983 
L 2.938926 4.045085 
L 1.816356 0.59017 
L 4.755283 -1.545085 
L 1.12257 -1.545085 
z
" style="stroke: #000000; stroke-width: 0.5"/>
    </defs>
    <g clip-path="url(#p22a98be14c)">
     <use xlink:href="#m307412e405" x="256.61202" y="121.935214" style="fill: #ffd700; stroke: #000000; stroke-width: 0.5"/>
    </g>
   </g>
   <g id="legend_1">
    <g id="patch_7">
     <path d="M 51.66 92.190625 
L 140.86625 92.190625 
Q 142.86625 92.190625 142.86625 90.190625 
L 142.86625 17.8 
Q 142.86625 15.8 140.86625 15.8 
L 51.66 15.8 
Q 49.66 15.8 49.66 17.8 
L 49.66 90.190625 
Q 49.66 92.190625 51.66 92.190625 
z
" style="fill: #ffffff; opacity: 0.8; stroke: #cccccc; stroke-linejoin: miter"/>
    </g>
    <g id="line2d_47">
     <path d="M 53.66 23.898438 
L 63.66 23.898438 
L 73.66 23.898438 
" style="fill: none; stroke: #1f77b4; stroke-width: 1.5; stroke-linecap: square"/>
    </g>
    <g id="text_23">
     <!-- apj39 -->
     <g transform="translate(81.66 27.398438) scale(0.1 -0.1)">
      <use xlink:href="#DejaVuSans-61"/>
      <use xlink:href="#DejaVuSans-70" x="61.279297"/>
      <use xlink:href="#DejaVuSans-6a" x="124.755859"/>
      <use xlink:href="#DejaVuSans-33" x="152.539062"/>
      <use xlink:href="#DejaVuSans-39" x="216.162109"/>
     </g>
    </g>
    <g id="line2d_48">
     <path d="M 53.66 38.576563 
L 63.66 38.576563 
L 73.66 38.576563 
" style="fill: none; stroke-dasharray: 6,2.25; stroke-dashoffset: 0; stroke: #ff7f0e; stroke-width: 1.5"/>
    </g>
    <g id="text_24">
     <!-- cjj39 -->
     <g transform="translate(81.66 42.076563) scale(0.1 -0.1)">
      <use xlink:href="#DejaVuSans-63"/>
      <use xlink:href="#DejaVuSans-6a" x="54.980469"/>
      <use xlink:href="#DejaVuSans-6a" x="82.763672"/>
      <use xlink:href="#DejaVuSans-33" x="110.546875"/>
      <use xlink:href="#DejaVuSans-39" x="174.169922"/>
     </g>
    </g>
    <g id="line2d_49">
     <path d="M 53.66 53.254688 
L 63.66 53.254688 
L 73.66 53.254688 
" style="fill: none; stroke-dasharray: 1.5,1.5; stroke-dashoffset: 0; stroke: #2ca02c; stroke-width: 1.5"/>
    </g>
    <g id="text_25">
     <!-- jb2328 -->
     <g transform="translate(81.66 56.754688) scale(0.1 -0.1)">
      <defs>
       <path id="DejaVuSans-62" d="M 3116 1747 
Q 3116 2381 2855 2742 
Q 2594 3103 2138 3103 
Q 1681 3103 1420 2742 
Q 1159 2381 1159 1747 
Q 1159 1113 1420 752 
Q 1681 391 2138 391 
Q 2594 391 2855 752 
Q 3116 1113 3116 1747 
z
M 1159 2969 
Q 1341 3281 1617 3432 
Q 1894 3584 2278 3584 
Q 2916 3584 3314 3078 
Q 3713 2572 3713 1747 
Q 3713 922 3314 415 
Q 2916 -91 2278 -91 
Q 1894 -91 1617 61 
Q 1341 213 1159 525 
L 1159 0 
L 581 0 
L 581 4863 
L 1159 4863 
L 1159 2969 
z
" transform="scale(0.015625)"/>
       <path id="DejaVuSans-38" d="M 2034 2216 
Q 1584 2216 1326 1975 
Q 1069 1734 1069 1313 
Q 1069 891 1326 650 
Q 1584 409 2034 409 
Q 2484 409 2743 651 
Q 3003 894 3003 1313 
Q 3003 1734 2745 1975 
Q 2488 2216 2034 2216 
z
M 1403 2484 
Q 997 2584 770 2862 
Q 544 3141 544 3541 
Q 544 4100 942 4425 
Q 1341 4750 2034 4750 
Q 2731 4750 3128 4425 
Q 3525 4100 3525 3541 
Q 3525 3141 3298 2862 
Q 3072 2584 2669 2484 
Q 3125 2378 3379 2068 
Q 3634 1759 3634 1313 
Q 3634 634 3220 271 
Q 2806 -91 2034 -91 
Q 1263 -91 848 271 
Q 434 634 434 1313 
Q 434 1759 690 2068 
Q 947 2378 1403 2484 
z
M 1172 3481 
Q 1172 3119 1398 2916 
Q 1625 2713 2034 2713 
Q 2441 2713 2670 2916 
Q 2900 3119 2900 3481 
Q 2900 3844 2670 4047 
Q 2441 4250 2034 4250 
Q 1625 4250 1398 4047 
Q 1172 3844 1172 3481 
z
" transform="scale(0.015625)"/>
      </defs>
      <use xlink:href="#DejaVuSans-6a"/>
      <use xlink:href="#DejaVuSans-62" x="27.783203"/>
      <use xlink:href="#DejaVuSans-32" x="91.259766"/>
      <use xlink:href="#DejaVuSans-33" x="154.882812"/>
      <use xlink:href="#DejaVuSans-32" x="218.505859"/>
      <use xlink:href="#DejaVuSans-38" x="282.128906"/>
     </g>
    </g>
    <g id="line2d_50">
     <path d="M 53.66 67.932813 
L 63.66 67.932813 
L 73.66 67.932813 
" style="fill: none; stroke: #808080; stroke-width: 1.5; stroke-linecap: square"/>
    </g>
    <g id="text_26">
     <!-- Word limit -->
     <g transform="translate(81.66 71.432813) scale(0.1 -0.1)">
      <defs>
       <path id="DejaVuSans-6c" d="M 603 4863 
L 1178 4863 
L 1178 0 
L 603 0 
L 603 4863 
z
" transform="scale(0.015625)"/>
      </defs>
      <use xlink:href="#DejaVuSans-57"/>
      <use xlink:href="#DejaVuSans-6f" x="93.001953"/>
      <use xlink:href="#DejaVuSans-72" x="154.183594"/>
      <use xlink:href="#DejaVuSans-64" x="193.546875"/>
      <use xlink:href="#DejaVuSans-20" x="257.023438"/>
      <use xlink:href="#DejaVuSans-6c" x="288.810547"/>
      <use xlink:href="#DejaVuSans-69" x="316.59375"/>
      <use xlink:href="#DejaVuSans-6d" x="344.376953"/>
      <use xlink:href="#DejaVuSans-69" x="441.789062"/>
      <use xlink:href="#DejaVuSans-74" x="469.572266"/>
     </g>
    </g>
    <g id="PathCollection_2">
     <g>
      <use xlink:href="#m307412e405" x="63.66" y="83.485938" style="fill: #ffd700; stroke: #000000; stroke-width: 0.5"/>
     </g>
    </g>
    <g id="text_27">
     <!-- Submission -->
     <g transform="translate(81.66 86.110938) scale(0.1 -0.1)">
      <defs>
       <path id="DejaVuSans-53" d="M 3425 4513 
L 3425 3897 
Q 3066 4069 2747 4153 
Q 2428 4238 2131 4238 
Q 1616 4238 1336 4038 
Q 1056 3838 1056 3469 
Q 1056 3159 1242 3001 
Q 1428 2844 1947 2747 
L 2328 2669 
Q 3034 2534 3370 2195 
Q 3706 1856 3706 1288 
Q 3706 609 3251 259 
Q 2797 -91 1919 -91 
Q 1588 -91 1214 -16 
Q 841 59 441 206 
L 441 856 
Q 825 641 1194 531 
Q 1563 422 1919 422 
Q 2459 422 2753 634 
Q 3047 847 3047 1241 
Q 3047 1584 2836 1778 
Q 2625 1972 2144 2069 
L 1759 2144 
Q 1053 2284 737 2584 
Q 422 2884 422 3419 
Q 422 4038 858 4394 
Q 1294 4750 2059 4750 
Q 2388 4750 2728 4690 
Q 3069 4631 3425 4513 
z
" transform="scale(0.015625)"/>
       <path id="DejaVuSans-73" d="M 2834 3397 
L 2834 2853 
Q 2591 2978 2328 3040 
Q 2066 3103 1784 3103 
Q 1356 3103 1142 2972 
Q 928 2841 928 2578 
Q 928 2378 1081 2264 
Q 1234 2150 1697 2047 
L 1894 2003 
Q 2506 1872 2764 1633 
Q 3022 1394 3022 966 
Q 3022 478 2636 193 
Q 2250 -91 1575 -91 
Q 1294 -91 989 -36 
Q 684 19 347 128 
L 347 722 
Q 666 556 975 473 
Q 1284 391 1588 391 
Q 1994 391 2212 530 
Q 2431 669 2431 922 
Q 2431 1156 2273 1281 
Q 2116 1406 1581 1522 
L 1381 1569 
Q 847 1681 609 1914 
Q 372 2147 372 2553 
Q 372 3047 722 3315 
Q 1072 3584 1716 3584 
Q 2034 3584 2315 3537 
Q 2597 3491 2834 3397 
z
" transform="scale(0.015625)"/>
      </defs>
      <use xlink:href="#DejaVuSans-53"/>
      <use xlink:href="#DejaVuSans-75" x="63.476562"/>
      <use xlink:href="#DejaVuSans-62" x="126.855469"/>
      <use xlink:href="#DejaVuSans-6d" x="190.332031"/>
      <use xlink:href="#DejaVuSans-69" x="287.744141"/>
      <use xlink:href="#DejaVuSans-73" x="315.527344"/>
      <use xlink:href="#DejaVuSans-73" x="367.626953"/>
      <use xlink:href="#DejaVuSans-69" x="419.726562"/>
      <use xlink:href="#DejaVuSans-6f" x="447.509766"/>
      <use xlink:href="#DejaVuSans-6e" x="508.691406"/>
     </g>
    </g>
   </g>
  </g>
 </g>
 <defs>
  <clipPath id="p22a98be14c">
   <rect x="44.66" y="10.8" width="398.188658" height="273.265464"/>
  </clipPath>
 </defs>
</svg>
