<?xml version="1.0" encoding="utf-8" standalone="no"?>
<!DOCTYPE svg PUBLIC "-//W3C//DTD SVG 1.1//EN"
  "http://www.w3.org/Graphics/SVG/1.1/DTD/svg11.dtd">
<svg xmlns:xlink="http://www.w3.org/1999/xlink" width="460.8pt" height="345.6pt" viewBox="0 0 460.8 345.6" xmlns="http://www.w3.org/2000/svg" version="1.1">
 <metadata>
  <rdf:RDF xmlns:dc="http://purl.org/dc/elements/1.1/" xmlns:cc="http://creativecommons.org/ns#" xmlns:rdf="http://www.w3.org/1999/02/22-rdf-syntax-ns#">
   <cc:Work>
    <dc:type rdf:resource="http://purl.org/dc/dcmitype/StillImage"/>
    <dc:date>2025-02-10T14:38:50.545491</dc:date>
    <dc:format>image/svg+xml</dc:format>
    <dc:creator>
     <cc:Agent>
      <dc:title>Matplotlib v3.7.2, https://matplotlib.org/</dc:title>
     </cc:Agent>
    </dc:creator>
   </cc:Work>
  </rdf:RDF>
 </metadata>
 <defs>
  <style type="text/css">*{stroke-linejoin: round; stroke-linecap: butt}</style>
 </defs>
 <g id="figure_1">
  <g id="patch_1">
   <path d="M 0 345.6 
L 460.8 345.6 
L 460.8 0 
L 0 0 
z
" style="fill: #ffffff"/>
  </g>
  <g id="axes_1">
   <g id="patch_2">
    <path d="M 44.66 284.065464 
L 450 284.065464 
L 450 10.8 
L 44.66 10.8 
z
" style="fill: #ffffff"/>
   </g>
   <g id="PolyCollection_1"/>
   <g id="PolyCollection_2"/>
   <g id="PolyCollection_3"/>
   <g id="matplotlib.axis_1">
    <g id="xtick_1">
     <g id="line2d_1">
      <path d="M 83.035067 284.065464 
L 83.035067 10.8 
" clip-path="url(#p5e24ff7344)" style="fill: none; stroke: #b0b0b0; stroke-width: 0.8; stroke-linecap: square"/>
     </g>
     <g id="line2d_2">
      <defs>
       <path id="m8de182ae24" d="M 0 0 
L 0 3.5 
" style="stroke: #000000; stroke-width: 0.8"/>
      </defs>
      <g>
       <use xlink:href="#m8de182ae24" x="83.035067" y="284.065464" style="stroke: #000000; stroke-width: 0.8"/>
      </g>
     </g>
     <g id="text_1">
      <!-- 2023-11 -->
      <g transform="translate(66.322266 318.53731) rotate(-30) scale(0.1 -0.1)">
       <defs>
        <path id="DejaVuSans-32" d="M 1228 531 
L 3431 531 
L 3431 0 
L 469 0 
L 469 531 
Q 828 903 1448 1529 
Q 2069 2156 2228 2338 
Q 2531 2678 2651 2914 
Q 2772 3150 2772 3378 
Q 2772 3750 2511 3984 
Q 2250 4219 1831 4219 
Q 1534 4219 1204 4116 
Q 875 4013 500 3803 
L 500 4441 
Q 881 4594 1212 4672 
Q 1544 4750 1819 4750 
Q 2544 4750 2975 4387 
Q 3406 4025 3406 3419 
Q 3406 3131 3298 2873 
Q 3191 2616 2906 2266 
Q 2828 2175 2409 1742 
Q 1991 1309 1228 531 
z
" transform="scale(0.015625)"/>
        <path id="DejaVuSans-30" d="M 2034 4250 
Q 1547 4250 1301 3770 
Q 1056 3291 1056 2328 
Q 1056 1369 1301 889 
Q 1547 409 2034 409 
Q 2525 409 2770 889 
Q 3016 1369 3016 2328 
Q 3016 3291 2770 3770 
Q 2525 4250 2034 4250 
z
M 2034 4750 
Q 2819 4750 3233 4129 
Q 3647 3509 3647 2328 
Q 3647 1150 3233 529 
Q 2819 -91 2034 -91 
Q 1250 -91 836 529 
Q 422 1150 422 2328 
Q 422 3509 836 4129 
Q 1250 4750 2034 4750 
z
" transform="scale(0.015625)"/>
        <path id="DejaVuSans-33" d="M 2597 2516 
Q 3050 2419 3304 2112 
Q 3559 1806 3559 1356 
Q 3559 666 3084 287 
Q 2609 -91 1734 -91 
Q 1441 -91 1130 -33 
Q 819 25 488 141 
L 488 750 
Q 750 597 1062 519 
Q 1375 441 1716 441 
Q 2309 441 2620 675 
Q 2931 909 2931 1356 
Q 2931 1769 2642 2001 
Q 2353 2234 1838 2234 
L 1294 2234 
L 1294 2753 
L 1863 2753 
Q 2328 2753 2575 2939 
Q 2822 3125 2822 3475 
Q 2822 3834 2567 4026 
Q 2313 4219 1838 4219 
Q 1578 4219 1281 4162 
Q 984 4106 628 3988 
L 628 4550 
Q 988 4650 1302 4700 
Q 1616 4750 1894 4750 
Q 2613 4750 3031 4423 
Q 3450 4097 3450 3541 
Q 3450 3153 3228 2886 
Q 3006 2619 2597 2516 
z
" transform="scale(0.015625)"/>
        <path id="DejaVuSans-2d" d="M 313 2009 
L 1997 2009 
L 1997 1497 
L 313 1497 
L 313 2009 
z
" transform="scale(0.015625)"/>
        <path id="DejaVuSans-31" d="M 794 531 
L 1825 531 
L 1825 4091 
L 703 3866 
L 703 4441 
L 1819 4666 
L 2450 4666 
L 2450 531 
L 3481 531 
L 3481 0 
L 794 0 
L 794 531 
z
" transform="scale(0.015625)"/>
       </defs>
       <use xlink:href="#DejaVuSans-32"/>
       <use xlink:href="#DejaVuSans-30" x="63.623047"/>
       <use xlink:href="#DejaVuSans-32" x="127.246094"/>
       <use xlink:href="#DejaVuSans-33" x="190.869141"/>
       <use xlink:href="#DejaVuSans-2d" x="254.492188"/>
       <use xlink:href="#DejaVuSans-31" x="290.576172"/>
       <use xlink:href="#DejaVuSans-31" x="354.199219"/>
      </g>
     </g>
    </g>
    <g id="xtick_2">
     <g id="line2d_3">
      <path d="M 130.199835 284.065464 
L 130.199835 10.8 
" clip-path="url(#p5e24ff7344)" style="fill: none; stroke: #b0b0b0; stroke-width: 0.8; stroke-linecap: square"/>
     </g>
     <g id="line2d_4">
      <g>
       <use xlink:href="#m8de182ae24" x="130.199835" y="284.065464" style="stroke: #000000; stroke-width: 0.8"/>
      </g>
     </g>
     <g id="text_2">
      <!-- 2024-01 -->
      <g transform="translate(113.487034 318.53731) rotate(-30) scale(0.1 -0.1)">
       <defs>
        <path id="DejaVuSans-34" d="M 2419 4116 
L 825 1625 
L 2419 1625 
L 2419 4116 
z
M 2253 4666 
L 3047 4666 
L 3047 1625 
L 3713 1625 
L 3713 1100 
L 3047 1100 
L 3047 0 
L 2419 0 
L 2419 1100 
L 313 1100 
L 313 1709 
L 2253 4666 
z
" transform="scale(0.015625)"/>
       </defs>
       <use xlink:href="#DejaVuSans-32"/>
       <use xlink:href="#DejaVuSans-30" x="63.623047"/>
       <use xlink:href="#DejaVuSans-32" x="127.246094"/>
       <use xlink:href="#DejaVuSans-34" x="190.869141"/>
       <use xlink:href="#DejaVuSans-2d" x="254.492188"/>
       <use xlink:href="#DejaVuSans-30" x="290.576172"/>
       <use xlink:href="#DejaVuSans-31" x="354.199219"/>
      </g>
     </g>
    </g>
    <g id="xtick_3">
     <g id="line2d_5">
      <path d="M 176.591409 284.065464 
L 176.591409 10.8 
" clip-path="url(#p5e24ff7344)" style="fill: none; stroke: #b0b0b0; stroke-width: 0.8; stroke-linecap: square"/>
     </g>
     <g id="line2d_6">
      <g>
       <use xlink:href="#m8de182ae24" x="176.591409" y="284.065464" style="stroke: #000000; stroke-width: 0.8"/>
      </g>
     </g>
     <g id="text_3">
      <!-- 2024-03 -->
      <g transform="translate(159.878608 318.53731) rotate(-30) scale(0.1 -0.1)">
       <use xlink:href="#DejaVuSans-32"/>
       <use xlink:href="#DejaVuSans-30" x="63.623047"/>
       <use xlink:href="#DejaVuSans-32" x="127.246094"/>
       <use xlink:href="#DejaVuSans-34" x="190.869141"/>
       <use xlink:href="#DejaVuSans-2d" x="254.492188"/>
       <use xlink:href="#DejaVuSans-30" x="290.576172"/>
       <use xlink:href="#DejaVuSans-33" x="354.199219"/>
      </g>
     </g>
    </g>
    <g id="xtick_4">
     <g id="line2d_7">
      <path d="M 223.756176 284.065464 
L 223.756176 10.8 
" clip-path="url(#p5e24ff7344)" style="fill: none; stroke: #b0b0b0; stroke-width: 0.8; stroke-linecap: square"/>
     </g>
     <g id="line2d_8">
      <g>
       <use xlink:href="#m8de182ae24" x="223.756176" y="284.065464" style="stroke: #000000; stroke-width: 0.8"/>
      </g>
     </g>
     <g id="text_4">
      <!-- 2024-05 -->
      <g transform="translate(207.043375 318.53731) rotate(-30) scale(0.1 -0.1)">
       <defs>
        <path id="DejaVuSans-35" d="M 691 4666 
L 3169 4666 
L 3169 4134 
L 1269 4134 
L 1269 2991 
Q 1406 3038 1543 3061 
Q 1681 3084 1819 3084 
Q 2600 3084 3056 2656 
Q 3513 2228 3513 1497 
Q 3513 744 3044 326 
Q 2575 -91 1722 -91 
Q 1428 -91 1123 -41 
Q 819 9 494 109 
L 494 744 
Q 775 591 1075 516 
Q 1375 441 1709 441 
Q 2250 441 2565 725 
Q 2881 1009 2881 1497 
Q 2881 1984 2565 2268 
Q 2250 2553 1709 2553 
Q 1456 2553 1204 2497 
Q 953 2441 691 2322 
L 691 4666 
z
" transform="scale(0.015625)"/>
       </defs>
       <use xlink:href="#DejaVuSans-32"/>
       <use xlink:href="#DejaVuSans-30" x="63.623047"/>
       <use xlink:href="#DejaVuSans-32" x="127.246094"/>
       <use xlink:href="#DejaVuSans-34" x="190.869141"/>
       <use xlink:href="#DejaVuSans-2d" x="254.492188"/>
       <use xlink:href="#DejaVuSans-30" x="290.576172"/>
       <use xlink:href="#DejaVuSans-35" x="354.199219"/>
      </g>
     </g>
    </g>
    <g id="xtick_5">
     <g id="line2d_9">
      <path d="M 270.920943 284.065464 
L 270.920943 10.8 
" clip-path="url(#p5e24ff7344)" style="fill: none; stroke: #b0b0b0; stroke-width: 0.8; stroke-linecap: square"/>
     </g>
     <g id="line2d_10">
      <g>
       <use xlink:href="#m8de182ae24" x="270.920943" y="284.065464" style="stroke: #000000; stroke-width: 0.8"/>
      </g>
     </g>
     <g id="text_5">
      <!-- 2024-07 -->
      <g transform="translate(254.208142 318.53731) rotate(-30) scale(0.1 -0.1)">
       <defs>
        <path id="DejaVuSans-37" d="M 525 4666 
L 3525 4666 
L 3525 4397 
L 1831 0 
L 1172 0 
L 2766 4134 
L 525 4134 
L 525 4666 
z
" transform="scale(0.015625)"/>
       </defs>
       <use xlink:href="#DejaVuSans-32"/>
       <use xlink:href="#DejaVuSans-30" x="63.623047"/>
       <use xlink:href="#DejaVuSans-32" x="127.246094"/>
       <use xlink:href="#DejaVuSans-34" x="190.869141"/>
       <use xlink:href="#DejaVuSans-2d" x="254.492188"/>
       <use xlink:href="#DejaVuSans-30" x="290.576172"/>
       <use xlink:href="#DejaVuSans-37" x="354.199219"/>
      </g>
     </g>
    </g>
    <g id="xtick_6">
     <g id="line2d_11">
      <path d="M 318.858903 284.065464 
L 318.858903 10.8 
" clip-path="url(#p5e24ff7344)" style="fill: none; stroke: #b0b0b0; stroke-width: 0.8; stroke-linecap: square"/>
     </g>
     <g id="line2d_12">
      <g>
       <use xlink:href="#m8de182ae24" x="318.858903" y="284.065464" style="stroke: #000000; stroke-width: 0.8"/>
      </g>
     </g>
     <g id="text_6">
      <!-- 2024-09 -->
      <g transform="translate(302.146102 318.53731) rotate(-30) scale(0.1 -0.1)">
       <defs>
        <path id="DejaVuSans-39" d="M 703 97 
L 703 672 
Q 941 559 1184 500 
Q 1428 441 1663 441 
Q 2288 441 2617 861 
Q 2947 1281 2994 2138 
Q 2813 1869 2534 1725 
Q 2256 1581 1919 1581 
Q 1219 1581 811 2004 
Q 403 2428 403 3163 
Q 403 3881 828 4315 
Q 1253 4750 1959 4750 
Q 2769 4750 3195 4129 
Q 3622 3509 3622 2328 
Q 3622 1225 3098 567 
Q 2575 -91 1691 -91 
Q 1453 -91 1209 -44 
Q 966 3 703 97 
z
M 1959 2075 
Q 2384 2075 2632 2365 
Q 2881 2656 2881 3163 
Q 2881 3666 2632 3958 
Q 2384 4250 1959 4250 
Q 1534 4250 1286 3958 
Q 1038 3666 1038 3163 
Q 1038 2656 1286 2365 
Q 1534 2075 1959 2075 
z
" transform="scale(0.015625)"/>
       </defs>
       <use xlink:href="#DejaVuSans-32"/>
       <use xlink:href="#DejaVuSans-30" x="63.623047"/>
       <use xlink:href="#DejaVuSans-32" x="127.246094"/>
       <use xlink:href="#DejaVuSans-34" x="190.869141"/>
       <use xlink:href="#DejaVuSans-2d" x="254.492188"/>
       <use xlink:href="#DejaVuSans-30" x="290.576172"/>
       <use xlink:href="#DejaVuSans-39" x="354.199219"/>
      </g>
     </g>
    </g>
    <g id="xtick_7">
     <g id="line2d_13">
      <path d="M 366.023671 284.065464 
L 366.023671 10.8 
" clip-path="url(#p5e24ff7344)" style="fill: none; stroke: #b0b0b0; stroke-width: 0.8; stroke-linecap: square"/>
     </g>
     <g id="line2d_14">
      <g>
       <use xlink:href="#m8de182ae24" x="366.023671" y="284.065464" style="stroke: #000000; stroke-width: 0.8"/>
      </g>
     </g>
     <g id="text_7">
      <!-- 2024-11 -->
      <g transform="translate(349.31087 318.53731) rotate(-30) scale(0.1 -0.1)">
       <use xlink:href="#DejaVuSans-32"/>
       <use xlink:href="#DejaVuSans-30" x="63.623047"/>
       <use xlink:href="#DejaVuSans-32" x="127.246094"/>
       <use xlink:href="#DejaVuSans-34" x="190.869141"/>
       <use xlink:href="#DejaVuSans-2d" x="254.492188"/>
       <use xlink:href="#DejaVuSans-31" x="290.576172"/>
       <use xlink:href="#DejaVuSans-31" x="354.199219"/>
      </g>
     </g>
    </g>
    <g id="xtick_8">
     <g id="line2d_15">
      <path d="M 413.188438 284.065464 
L 413.188438 10.8 
" clip-path="url(#p5e24ff7344)" style="fill: none; stroke: #b0b0b0; stroke-width: 0.8; stroke-linecap: square"/>
     </g>
     <g id="line2d_16">
      <g>
       <use xlink:href="#m8de182ae24" x="413.188438" y="284.065464" style="stroke: #000000; stroke-width: 0.8"/>
      </g>
     </g>
     <g id="text_8">
      <!-- 2025-01 -->
      <g transform="translate(396.475637 318.53731) rotate(-30) scale(0.1 -0.1)">
       <use xlink:href="#DejaVuSans-32"/>
       <use xlink:href="#DejaVuSans-30" x="63.623047"/>
       <use xlink:href="#DejaVuSans-32" x="127.246094"/>
       <use xlink:href="#DejaVuSans-35" x="190.869141"/>
       <use xlink:href="#DejaVuSans-2d" x="254.492188"/>
       <use xlink:href="#DejaVuSans-30" x="290.576172"/>
       <use xlink:href="#DejaVuSans-31" x="354.199219"/>
      </g>
     </g>
    </g>
    <g id="text_9">
     <!-- Date &amp; time -->
     <g transform="translate(217.005781 331.93681) scale(0.1 -0.1)">
      <defs>
       <path id="DejaVuSans-44" d="M 1259 4147 
L 1259 519 
L 2022 519 
Q 2988 519 3436 956 
Q 3884 1394 3884 2338 
Q 3884 3275 3436 3711 
Q 2988 4147 2022 4147 
L 1259 4147 
z
M 628 4666 
L 1925 4666 
Q 3281 4666 3915 4102 
Q 4550 3538 4550 2338 
Q 4550 1131 3912 565 
Q 3275 0 1925 0 
L 628 0 
L 628 4666 
z
" transform="scale(0.015625)"/>
       <path id="DejaVuSans-61" d="M 2194 1759 
Q 1497 1759 1228 1600 
Q 959 1441 959 1056 
Q 959 750 1161 570 
Q 1363 391 1709 391 
Q 2188 391 2477 730 
Q 2766 1069 2766 1631 
L 2766 1759 
L 2194 1759 
z
M 3341 1997 
L 3341 0 
L 2766 0 
L 2766 531 
Q 2569 213 2275 61 
Q 1981 -91 1556 -91 
Q 1019 -91 701 211 
Q 384 513 384 1019 
Q 384 1609 779 1909 
Q 1175 2209 1959 2209 
L 2766 2209 
L 2766 2266 
Q 2766 2663 2505 2880 
Q 2244 3097 1772 3097 
Q 1472 3097 1187 3025 
Q 903 2953 641 2809 
L 641 3341 
Q 956 3463 1253 3523 
Q 1550 3584 1831 3584 
Q 2591 3584 2966 3190 
Q 3341 2797 3341 1997 
z
" transform="scale(0.015625)"/>
       <path id="DejaVuSans-74" d="M 1172 4494 
L 1172 3500 
L 2356 3500 
L 2356 3053 
L 1172 3053 
L 1172 1153 
Q 1172 725 1289 603 
Q 1406 481 1766 481 
L 2356 481 
L 2356 0 
L 1766 0 
Q 1100 0 847 248 
Q 594 497 594 1153 
L 594 3053 
L 172 3053 
L 172 3500 
L 594 3500 
L 594 4494 
L 1172 4494 
z
" transform="scale(0.015625)"/>
       <path id="DejaVuSans-65" d="M 3597 1894 
L 3597 1613 
L 953 1613 
Q 991 1019 1311 708 
Q 1631 397 2203 397 
Q 2534 397 2845 478 
Q 3156 559 3463 722 
L 3463 178 
Q 3153 47 2828 -22 
Q 2503 -91 2169 -91 
Q 1331 -91 842 396 
Q 353 884 353 1716 
Q 353 2575 817 3079 
Q 1281 3584 2069 3584 
Q 2775 3584 3186 3129 
Q 3597 2675 3597 1894 
z
M 3022 2063 
Q 3016 2534 2758 2815 
Q 2500 3097 2075 3097 
Q 1594 3097 1305 2825 
Q 1016 2553 972 2059 
L 3022 2063 
z
" transform="scale(0.015625)"/>
       <path id="DejaVuSans-20" transform="scale(0.015625)"/>
       <path id="DejaVuSans-26" d="M 1556 2509 
Q 1272 2256 1139 2004 
Q 1006 1753 1006 1478 
Q 1006 1022 1337 719 
Q 1669 416 2169 416 
Q 2466 416 2725 514 
Q 2984 613 3213 813 
L 1556 2509 
z
M 1997 2859 
L 3584 1234 
Q 3769 1513 3872 1830 
Q 3975 2147 3994 2503 
L 4575 2503 
Q 4538 2091 4375 1687 
Q 4213 1284 3922 891 
L 4794 0 
L 4006 0 
L 3559 459 
Q 3234 181 2878 45 
Q 2522 -91 2113 -91 
Q 1359 -91 881 339 
Q 403 769 403 1441 
Q 403 1841 612 2192 
Q 822 2544 1241 2853 
Q 1091 3050 1012 3245 
Q 934 3441 934 3628 
Q 934 4134 1281 4442 
Q 1628 4750 2203 4750 
Q 2463 4750 2720 4694 
Q 2978 4638 3244 4525 
L 3244 3956 
Q 2972 4103 2725 4179 
Q 2478 4256 2266 4256 
Q 1938 4256 1733 4082 
Q 1528 3909 1528 3634 
Q 1528 3475 1620 3314 
Q 1713 3153 1997 2859 
z
" transform="scale(0.015625)"/>
       <path id="DejaVuSans-69" d="M 603 3500 
L 1178 3500 
L 1178 0 
L 603 0 
L 603 3500 
z
M 603 4863 
L 1178 4863 
L 1178 4134 
L 603 4134 
L 603 4863 
z
" transform="scale(0.015625)"/>
       <path id="DejaVuSans-6d" d="M 3328 2828 
Q 3544 3216 3844 3400 
Q 4144 3584 4550 3584 
Q 5097 3584 5394 3201 
Q 5691 2819 5691 2113 
L 5691 0 
L 5113 0 
L 5113 2094 
Q 5113 2597 4934 2840 
Q 4756 3084 4391 3084 
Q 3944 3084 3684 2787 
Q 3425 2491 3425 1978 
L 3425 0 
L 2847 0 
L 2847 2094 
Q 2847 2600 2669 2842 
Q 2491 3084 2119 3084 
Q 1678 3084 1418 2786 
Q 1159 2488 1159 1978 
L 1159 0 
L 581 0 
L 581 3500 
L 1159 3500 
L 1159 2956 
Q 1356 3278 1631 3431 
Q 1906 3584 2284 3584 
Q 2666 3584 2933 3390 
Q 3200 3197 3328 2828 
z
" transform="scale(0.015625)"/>
      </defs>
      <use xlink:href="#DejaVuSans-44"/>
      <use xlink:href="#DejaVuSans-61" x="77.001953"/>
      <use xlink:href="#DejaVuSans-74" x="138.28125"/>
      <use xlink:href="#DejaVuSans-65" x="177.490234"/>
      <use xlink:href="#DejaVuSans-20" x="239.013672"/>
      <use xlink:href="#DejaVuSans-26" x="270.800781"/>
      <use xlink:href="#DejaVuSans-20" x="348.779297"/>
      <use xlink:href="#DejaVuSans-74" x="380.566406"/>
      <use xlink:href="#DejaVuSans-69" x="419.775391"/>
      <use xlink:href="#DejaVuSans-6d" x="447.558594"/>
      <use xlink:href="#DejaVuSans-65" x="544.970703"/>
     </g>
    </g>
   </g>
   <g id="matplotlib.axis_2">
    <g id="ytick_1">
     <g id="line2d_17">
      <path d="M 44.66 271.644306 
L 450 271.644306 
" clip-path="url(#p5e24ff7344)" style="fill: none; stroke: #b0b0b0; stroke-width: 0.8; stroke-linecap: square"/>
     </g>
     <g id="line2d_18">
      <defs>
       <path id="m356928f2f0" d="M 0 0 
L -3.5 0 
" style="stroke: #000000; stroke-width: 0.8"/>
      </defs>
      <g>
       <use xlink:href="#m356928f2f0" x="44.66" y="271.644306" style="stroke: #000000; stroke-width: 0.8"/>
      </g>
     </g>
     <g id="text_10">
      <!-- 0 -->
      <g transform="translate(31.2975 275.443525) scale(0.1 -0.1)">
       <use xlink:href="#DejaVuSans-30"/>
      </g>
     </g>
    </g>
    <g id="ytick_2">
     <g id="line2d_19">
      <path d="M 44.66 230.240448 
L 450 230.240448 
" clip-path="url(#p5e24ff7344)" style="fill: none; stroke: #b0b0b0; stroke-width: 0.8; stroke-linecap: square"/>
     </g>
     <g id="line2d_20">
      <g>
       <use xlink:href="#m356928f2f0" x="44.66" y="230.240448" style="stroke: #000000; stroke-width: 0.8"/>
      </g>
     </g>
     <g id="text_11">
      <!-- 10 -->
      <g transform="translate(24.935 234.039667) scale(0.1 -0.1)">
       <use xlink:href="#DejaVuSans-31"/>
       <use xlink:href="#DejaVuSans-30" x="63.623047"/>
      </g>
     </g>
    </g>
    <g id="ytick_3">
     <g id="line2d_21">
      <path d="M 44.66 188.83659 
L 450 188.83659 
" clip-path="url(#p5e24ff7344)" style="fill: none; stroke: #b0b0b0; stroke-width: 0.8; stroke-linecap: square"/>
     </g>
     <g id="line2d_22">
      <g>
       <use xlink:href="#m356928f2f0" x="44.66" y="188.83659" style="stroke: #000000; stroke-width: 0.8"/>
      </g>
     </g>
     <g id="text_12">
      <!-- 20 -->
      <g transform="translate(24.935 192.635809) scale(0.1 -0.1)">
       <use xlink:href="#DejaVuSans-32"/>
       <use xlink:href="#DejaVuSans-30" x="63.623047"/>
      </g>
     </g>
    </g>
    <g id="ytick_4">
     <g id="line2d_23">
      <path d="M 44.66 147.432732 
L 450 147.432732 
" clip-path="url(#p5e24ff7344)" style="fill: none; stroke: #b0b0b0; stroke-width: 0.8; stroke-linecap: square"/>
     </g>
     <g id="line2d_24">
      <g>
       <use xlink:href="#m356928f2f0" x="44.66" y="147.432732" style="stroke: #000000; stroke-width: 0.8"/>
      </g>
     </g>
     <g id="text_13">
      <!-- 30 -->
      <g transform="translate(24.935 151.231951) scale(0.1 -0.1)">
       <use xlink:href="#DejaVuSans-33"/>
       <use xlink:href="#DejaVuSans-30" x="63.623047"/>
      </g>
     </g>
    </g>
    <g id="ytick_5">
     <g id="line2d_25">
      <path d="M 44.66 106.028874 
L 450 106.028874 
" clip-path="url(#p5e24ff7344)" style="fill: none; stroke: #b0b0b0; stroke-width: 0.8; stroke-linecap: square"/>
     </g>
     <g id="line2d_26">
      <g>
       <use xlink:href="#m356928f2f0" x="44.66" y="106.028874" style="stroke: #000000; stroke-width: 0.8"/>
      </g>
     </g>
     <g id="text_14">
      <!-- 40 -->
      <g transform="translate(24.935 109.828093) scale(0.1 -0.1)">
       <use xlink:href="#DejaVuSans-34"/>
       <use xlink:href="#DejaVuSans-30" x="63.623047"/>
      </g>
     </g>
    </g>
    <g id="ytick_6">
     <g id="line2d_27">
      <path d="M 44.66 64.625016 
L 450 64.625016 
" clip-path="url(#p5e24ff7344)" style="fill: none; stroke: #b0b0b0; stroke-width: 0.8; stroke-linecap: square"/>
     </g>
     <g id="line2d_28">
      <g>
       <use xlink:href="#m356928f2f0" x="44.66" y="64.625016" style="stroke: #000000; stroke-width: 0.8"/>
      </g>
     </g>
     <g id="text_15">
      <!-- 50 -->
      <g transform="translate(24.935 68.424234) scale(0.1 -0.1)">
       <use xlink:href="#DejaVuSans-35"/>
       <use xlink:href="#DejaVuSans-30" x="63.623047"/>
      </g>
     </g>
    </g>
    <g id="ytick_7">
     <g id="line2d_29">
      <path d="M 44.66 23.221157 
L 450 23.221157 
" clip-path="url(#p5e24ff7344)" style="fill: none; stroke: #b0b0b0; stroke-width: 0.8; stroke-linecap: square"/>
     </g>
     <g id="line2d_30">
      <g>
       <use xlink:href="#m356928f2f0" x="44.66" y="23.221157" style="stroke: #000000; stroke-width: 0.8"/>
      </g>
     </g>
     <g id="text_16">
      <!-- 60 -->
      <g transform="translate(24.935 27.020376) scale(0.1 -0.1)">
       <defs>
        <path id="DejaVuSans-36" d="M 2113 2584 
Q 1688 2584 1439 2293 
Q 1191 2003 1191 1497 
Q 1191 994 1439 701 
Q 1688 409 2113 409 
Q 2538 409 2786 701 
Q 3034 994 3034 1497 
Q 3034 2003 2786 2293 
Q 2538 2584 2113 2584 
z
M 3366 4563 
L 3366 3988 
Q 3128 4100 2886 4159 
Q 2644 4219 2406 4219 
Q 1781 4219 1451 3797 
Q 1122 3375 1075 2522 
Q 1259 2794 1537 2939 
Q 1816 3084 2150 3084 
Q 2853 3084 3261 2657 
Q 3669 2231 3669 1497 
Q 3669 778 3244 343 
Q 2819 -91 2113 -91 
Q 1303 -91 875 529 
Q 447 1150 447 2328 
Q 447 3434 972 4092 
Q 1497 4750 2381 4750 
Q 2619 4750 2861 4703 
Q 3103 4656 3366 4563 
z
" transform="scale(0.015625)"/>
       </defs>
       <use xlink:href="#DejaVuSans-36"/>
       <use xlink:href="#DejaVuSans-30" x="63.623047"/>
      </g>
     </g>
    </g>
    <g id="text_17">
     <!-- Word count (K) -->
     <g transform="translate(18.855313 184.749138) rotate(-90) scale(0.1 -0.1)">
      <defs>
       <path id="DejaVuSans-57" d="M 213 4666 
L 850 4666 
L 1831 722 
L 2809 4666 
L 3519 4666 
L 4500 722 
L 5478 4666 
L 6119 4666 
L 4947 0 
L 4153 0 
L 3169 4050 
L 2175 0 
L 1381 0 
L 213 4666 
z
" transform="scale(0.015625)"/>
       <path id="DejaVuSans-6f" d="M 1959 3097 
Q 1497 3097 1228 2736 
Q 959 2375 959 1747 
Q 959 1119 1226 758 
Q 1494 397 1959 397 
Q 2419 397 2687 759 
Q 2956 1122 2956 1747 
Q 2956 2369 2687 2733 
Q 2419 3097 1959 3097 
z
M 1959 3584 
Q 2709 3584 3137 3096 
Q 3566 2609 3566 1747 
Q 3566 888 3137 398 
Q 2709 -91 1959 -91 
Q 1206 -91 779 398 
Q 353 888 353 1747 
Q 353 2609 779 3096 
Q 1206 3584 1959 3584 
z
" transform="scale(0.015625)"/>
       <path id="DejaVuSans-72" d="M 2631 2963 
Q 2534 3019 2420 3045 
Q 2306 3072 2169 3072 
Q 1681 3072 1420 2755 
Q 1159 2438 1159 1844 
L 1159 0 
L 581 0 
L 581 3500 
L 1159 3500 
L 1159 2956 
Q 1341 3275 1631 3429 
Q 1922 3584 2338 3584 
Q 2397 3584 2469 3576 
Q 2541 3569 2628 3553 
L 2631 2963 
z
" transform="scale(0.015625)"/>
       <path id="DejaVuSans-64" d="M 2906 2969 
L 2906 4863 
L 3481 4863 
L 3481 0 
L 2906 0 
L 2906 525 
Q 2725 213 2448 61 
Q 2172 -91 1784 -91 
Q 1150 -91 751 415 
Q 353 922 353 1747 
Q 353 2572 751 3078 
Q 1150 3584 1784 3584 
Q 2172 3584 2448 3432 
Q 2725 3281 2906 2969 
z
M 947 1747 
Q 947 1113 1208 752 
Q 1469 391 1925 391 
Q 2381 391 2643 752 
Q 2906 1113 2906 1747 
Q 2906 2381 2643 2742 
Q 2381 3103 1925 3103 
Q 1469 3103 1208 2742 
Q 947 2381 947 1747 
z
" transform="scale(0.015625)"/>
       <path id="DejaVuSans-63" d="M 3122 3366 
L 3122 2828 
Q 2878 2963 2633 3030 
Q 2388 3097 2138 3097 
Q 1578 3097 1268 2742 
Q 959 2388 959 1747 
Q 959 1106 1268 751 
Q 1578 397 2138 397 
Q 2388 397 2633 464 
Q 2878 531 3122 666 
L 3122 134 
Q 2881 22 2623 -34 
Q 2366 -91 2075 -91 
Q 1284 -91 818 406 
Q 353 903 353 1747 
Q 353 2603 823 3093 
Q 1294 3584 2113 3584 
Q 2378 3584 2631 3529 
Q 2884 3475 3122 3366 
z
" transform="scale(0.015625)"/>
       <path id="DejaVuSans-75" d="M 544 1381 
L 544 3500 
L 1119 3500 
L 1119 1403 
Q 1119 906 1312 657 
Q 1506 409 1894 409 
Q 2359 409 2629 706 
Q 2900 1003 2900 1516 
L 2900 3500 
L 3475 3500 
L 3475 0 
L 2900 0 
L 2900 538 
Q 2691 219 2414 64 
Q 2138 -91 1772 -91 
Q 1169 -91 856 284 
Q 544 659 544 1381 
z
M 1991 3584 
L 1991 3584 
z
" transform="scale(0.015625)"/>
       <path id="DejaVuSans-6e" d="M 3513 2113 
L 3513 0 
L 2938 0 
L 2938 2094 
Q 2938 2591 2744 2837 
Q 2550 3084 2163 3084 
Q 1697 3084 1428 2787 
Q 1159 2491 1159 1978 
L 1159 0 
L 581 0 
L 581 3500 
L 1159 3500 
L 1159 2956 
Q 1366 3272 1645 3428 
Q 1925 3584 2291 3584 
Q 2894 3584 3203 3211 
Q 3513 2838 3513 2113 
z
" transform="scale(0.015625)"/>
       <path id="DejaVuSans-28" d="M 1984 4856 
Q 1566 4138 1362 3434 
Q 1159 2731 1159 2009 
Q 1159 1288 1364 580 
Q 1569 -128 1984 -844 
L 1484 -844 
Q 1016 -109 783 600 
Q 550 1309 550 2009 
Q 550 2706 781 3412 
Q 1013 4119 1484 4856 
L 1984 4856 
z
" transform="scale(0.015625)"/>
       <path id="DejaVuSans-4b" d="M 628 4666 
L 1259 4666 
L 1259 2694 
L 3353 4666 
L 4166 4666 
L 1850 2491 
L 4331 0 
L 3500 0 
L 1259 2247 
L 1259 0 
L 628 0 
L 628 4666 
z
" transform="scale(0.015625)"/>
       <path id="DejaVuSans-29" d="M 513 4856 
L 1013 4856 
Q 1481 4119 1714 3412 
Q 1947 2706 1947 2009 
Q 1947 1309 1714 600 
Q 1481 -109 1013 -844 
L 513 -844 
Q 928 -128 1133 580 
Q 1338 1288 1338 2009 
Q 1338 2731 1133 3434 
Q 928 4138 513 4856 
z
" transform="scale(0.015625)"/>
      </defs>
      <use xlink:href="#DejaVuSans-57"/>
      <use xlink:href="#DejaVuSans-6f" x="93.001953"/>
      <use xlink:href="#DejaVuSans-72" x="154.183594"/>
      <use xlink:href="#DejaVuSans-64" x="193.546875"/>
      <use xlink:href="#DejaVuSans-20" x="257.023438"/>
      <use xlink:href="#DejaVuSans-63" x="288.810547"/>
      <use xlink:href="#DejaVuSans-6f" x="343.791016"/>
      <use xlink:href="#DejaVuSans-75" x="404.972656"/>
      <use xlink:href="#DejaVuSans-6e" x="468.351562"/>
      <use xlink:href="#DejaVuSans-74" x="531.730469"/>
      <use xlink:href="#DejaVuSans-20" x="570.939453"/>
      <use xlink:href="#DejaVuSans-28" x="602.726562"/>
      <use xlink:href="#DejaVuSans-4b" x="641.740234"/>
      <use xlink:href="#DejaVuSans-29" x="707.316406"/>
     </g>
    </g>
   </g>
   <g id="line2d_31">
    <path d="M 50.07235 271.644306 
L 50.073979 271.644306 
L 50.127548 262.369842 
L 50.193019 262.369842 
L 50.21906 261.59559 
L 50.310152 261.59559 
L 50.323262 182.497659 
L 51.815999 182.497659 
L 51.815999 182.385869 
L 52.784486 182.385869 
L 52.801936 180.129359 
L 52.820443 180.129359 
L 54.756575 180.129359 
L 54.756575 179.003174 
L 54.852651 179.003174 
L 54.930069 179.003174 
L 54.930069 176.49824 
L 55.598666 176.48996 
L 55.692908 176.117325 
L 57.253487 176.158729 
L 57.253487 175.74469 
L 57.328202 175.748831 
L 57.937772 175.757111 
L 57.937772 175.015982 
L 57.980342 175.984833 
L 59.332606 175.984833 
L 59.332606 178.477345 
L 60.171529 178.477345 
L 60.171529 177.715514 
L 60.922967 177.715514 
L 60.922967 177.504354 
L 60.928247 177.504354 
L 67.091615 177.487793 
L 67.091615 176.39059 
L 67.130615 180.659328 
L 67.142266 180.514415 
L 94.567866 180.514415 
L 94.567866 179.098403 
L 94.999297 179.098403 
L 94.999297 178.456643 
L 95.909875 178.456643 
L 95.909875 178.042604 
L 99.701536 178.042604 
L 99.765244 172.175678 
L 99.787956 172.258485 
L 99.842008 172.258485 
L 99.842482 171.397285 
L 100.52444 171.318618 
L 100.52444 170.337346 
L 100.526024 170.337346 
L 101.36407 170.337346 
L 101.36407 168.482453 
L 101.365511 168.482453 
L 101.918264 168.482453 
L 101.918264 166.962932 
L 103.586821 166.892545 
L 103.665322 162.950898 
L 103.689887 163.286269 
L 104.368471 163.286269 
L 104.368471 161.178813 
L 105.143686 161.108426 
L 105.24242 156.818987 
L 105.821277 156.818987 
L 105.821277 155.146271 
L 105.825716 155.394694 
L 105.935815 155.394694 
L 105.935815 154.877146 
L 105.940182 154.877146 
L 109.074209 154.877146 
L 109.074209 153.771663 
L 109.190841 153.771663 
L 109.190841 152.798672 
L 109.814281 152.798672 
L 109.913911 136.245409 
L 110.550828 136.245409 
L 110.597273 130.970558 
L 111.443759 130.970558 
L 111.443759 128.080569 
L 111.444269 128.080569 
L 136.712705 128.080569 
L 136.712705 126.229816 
L 143.069246 126.229816 
L 143.069246 124.751698 
L 148.491852 124.751698 
L 148.49578 123.095544 
L 149.216201 122.987894 
L 149.216201 121.050194 
L 149.218751 121.050194 
L 160.914082 121.050194 
L 160.914082 119.493408 
L 170.858264 119.493408 
L 170.858264 119.311231 
L 179.435318 119.311231 
L 179.435318 117.696481 
L 179.445144 117.696481 
L 184.678452 117.696481 
L 184.770546 114.533226 
L 184.788703 114.533226 
L 184.797402 114.533226 
L 184.797402 118.379645 
L 184.812418 118.247152 
L 185.457211 118.247152 
L 185.457211 129.335106 
L 185.550236 128.767873 
L 185.606847 128.767873 
L 185.606847 135.17719 
L 186.234601 135.17719 
L 186.345273 133.450649 
L 186.360916 133.450649 
L 186.39818 131.711687 
L 187.117661 131.711687 
L 187.133286 129.533844 
L 187.779582 129.533844 
L 187.779582 128.52773 
L 190.09874 128.52773 
L 190.207721 125.882024 
L 190.241441 125.819918 
L 190.243445 125.327212 
L 190.861847 125.248545 
L 190.885831 124.668891 
L 190.941279 124.780681 
L 191.626959 124.706154 
L 191.656795 124.043692 
L 191.723447 124.043692 
L 191.760675 124.043692 
L 191.760675 123.931902 
L 191.814235 124.1265 
L 192.372106 124.1265 
L 192.39745 123.078983 
L 192.486438 123.078983 
L 192.496936 122.383398 
L 192.585844 124.205168 
L 195.574297 124.263133 
L 195.615892 126.676978 
L 195.680343 126.656276 
L 196.277026 126.643855 
L 196.277026 126.118026 
L 196.29819 126.118026 
L 197.22058 126.118026 
L 197.22058 123.70004 
L 197.293184 123.708321 
L 197.763605 123.708321 
L 197.763605 122.681506 
L 197.787615 122.681506 
L 201.783269 122.681506 
L 201.843299 122.139115 
L 201.843782 122.139115 
L 202.43097 122.139115 
L 202.462954 121.923815 
L 202.470158 122.019044 
L 203.206391 122.019044 
L 203.282583 120.449838 
L 203.315712 121.712655 
L 204.053995 121.696094 
L 204.062398 121.563601 
L 204.072027 121.563601 
L 270.542446 121.588444 
L 270.542446 118.247152 
L 274.470955 118.247152 
L 274.495752 117.915921 
L 276.248412 117.915921 
L 276.248412 118.884772 
L 276.254462 118.884772 
L 276.685284 118.884772 
L 276.704462 117.543287 
L 276.748267 117.799991 
L 277.448195 117.799991 
L 277.448195 117.137529 
L 277.556505 117.303144 
L 278.30873 117.303144 
L 278.30873 116.3964 
L 278.388779 121.248932 
L 279.171332 121.352442 
L 279.171332 121.364863 
L 279.182742 121.364863 
L 279.701999 121.364863 
L 279.752202 121.004649 
L 279.786951 121.273774 
L 279.882339 121.273774 
L 279.882339 121.397986 
L 279.953062 121.141282 
L 282.073284 121.141282 
L 282.150989 99.988051 
L 282.160797 99.996332 
L 283.70831 100.050157 
L 283.70831 100.236474 
L 283.776904 100.211632 
L 293.042136 100.286159 
L 293.042136 100.505599 
L 293.647302 100.505599 
L 293.647302 100.737461 
L 293.672646 100.683636 
L 299.040117 100.683636 
L 299.040117 100.228193 
L 299.147791 101.656626 
L 299.150342 101.640065 
L 299.176258 101.640065 
L 299.176258 101.830523 
L 299.826107 101.830523 
L 299.841938 101.544836 
L 299.851638 101.544836 
L 347.813689 101.548976 
L 347.813689 102.194877 
L 348.439376 102.194877 
L 348.439376 101.424765 
L 348.696158 101.424765 
L 348.696158 100.244755 
L 349.548353 100.244755 
L 349.548353 98.178702 
L 350.154933 98.178702 
L 350.154933 97.541083 
L 350.26599 98.025508 
L 352.464122 98.054491 
L 352.464122 96.298967 
L 352.614787 96.298967 
L 352.614787 95.644786 
L 354.080212 95.636505 
L 354.080212 90.978571 
L 354.146622 91.243556 
L 360.14225 91.318083 
L 360.14225 90.390637 
L 360.172113 90.390637 
L 366.607798 90.407198 
L 366.607798 89.430067 
L 381.190959 89.430067 
L 381.190959 88.539884 
L 400.062406 88.481919 
L 400.062406 88.291461 
L 403.427629 88.291461 
L 403.427629 88.527463 
L 418.329696 88.523323 
L 418.329696 88.523323 
" clip-path="url(#p5e24ff7344)" style="fill: none; stroke: #1f77b4; stroke-width: 1.5; stroke-linecap: square"/>
   </g>
   <g id="line2d_32">
    <path d="M 94.236449 271.644306 
L 100.410609 271.644306 
L 100.410609 270.71272 
L 105.233042 270.704439 
L 105.233042 271.644306 
L 105.234107 269.851519 
L 127.59907 269.851519 
L 127.59907 269.586535 
L 127.701759 269.586535 
L 175.556682 269.586535 
L 175.556682 255.542346 
L 190.312317 255.542346 
L 190.312317 234.322869 
L 195.679636 234.322869 
L 195.679636 232.608749 
L 206.532239 232.575626 
L 206.532239 229.631812 
L 207.078405 229.631812 
L 207.078405 227.718953 
L 207.868046 227.718953 
L 207.868046 223.619971 
L 212.696099 223.619971 
L 212.696099 223.214214 
L 218.807052 223.214214 
L 218.807052 220.887317 
L 230.51586 220.887317 
L 230.51586 218.24161 
L 234.34891 218.24161 
L 234.34891 212.060014 
L 241.143074 212.060014 
L 241.143074 212.320858 
L 244.368676 212.320858 
L 244.368676 210.987654 
L 245.74257 210.987654 
L 245.74257 189.068452 
L 250.579437 189.068452 
L 250.579437 202.499863 
L 251.325568 202.499863 
L 251.325568 201.323994 
L 252.112838 201.323994 
L 252.112838 199.224818 
L 252.951376 199.224818 
L 252.951376 198.914289 
L 256.006347 198.914289 
L 256.006347 195.796579 
L 256.605411 195.796579 
L 256.605411 196.595673 
L 260.432653 196.595673 
L 260.432653 196.065704 
L 263.690569 196.065704 
L 263.690569 190.260883 
L 266.825178 190.260883 
L 266.825178 188.128584 
L 282.250824 188.128584 
L 282.322004 186.224007 
L 282.477466 186.273691 
L 282.477466 187.702124 
L 283.060618 187.702124 
L 283.060618 214.465578 
L 283.072117 214.465578 
L 283.694063 214.465578 
L 283.694063 147.527961 
L 283.82019 147.527961 
L 283.82019 143.896842 
L 304.571534 143.896842 
L 304.571534 137.404718 
L 305.953849 137.404718 
L 305.991085 175.405179 
L 310.75969 175.405179 
L 310.75969 173.877376 
L 311.021868 173.877376 
L 311.021868 172.072168 
L 311.023578 172.084589 
L 311.644915 172.084589 
L 311.644915 170.16759 
L 312.301888 170.16759 
L 312.301888 171.326899 
L 312.37475 170.656156 
L 314.599899 170.656156 
L 314.599899 168.561121 
L 315.461213 168.561121 
L 315.461213 166.975353 
L 316.309756 166.975353 
L 316.309756 163.224163 
L 316.448627 163.224163 
L 316.448627 161.663238 
L 317.223484 161.663238 
L 317.223484 159.853889 
L 317.702953 159.853889 
L 317.702953 153.808926 
L 317.837152 153.808926 
L 317.837152 154.334755 
L 317.838736 154.334755 
L 320.145652 154.334755 
L 320.145652 153.303799 
L 320.816352 153.303799 
L 320.816352 152.057543 
L 320.965657 152.057543 
L 320.965657 150.62911 
L 321.158535 150.62911 
L 321.158535 150.095 
L 333.105448 150.095 
L 333.105448 147.656313 
L 333.437724 147.656313 
L 333.437724 147.527961 
L 334.088799 147.527961 
L 334.088799 145.90493 
L 335.860404 145.90493 
L 335.860404 143.714666 
L 336.555902 143.714666 
L 336.555902 142.286232 
L 337.18175 142.286232 
L 337.18175 138.853853 
L 338.181343 138.853853 
L 338.181343 132.287201 
L 338.683802 132.287201 
L 338.683802 149.531908 
L 338.685449 149.523627 
L 339.556356 149.523627 
L 339.556356 149.738927 
L 348.564706 149.738927 
L 348.564706 149.411836 
L 364.150056 149.411836 
L 364.150056 147.002132 
L 364.853572 147.002132 
L 364.853572 146.886201 
L 365.04142 146.886201 
L 365.04142 147.022834 
L 365.04381 147.002132 
L 365.15561 147.002132 
L 365.15561 147.41617 
L 365.840082 147.41617 
L 365.840082 147.109782 
L 366.579528 147.109782 
L 366.579528 146.637778 
L 367.336694 146.637778 
L 367.336694 145.076852 
L 368.138765 145.076852 
L 368.149378 142.47255 
L 368.718964 142.47255 
L 368.718964 142.021248 
L 368.918464 142.021248 
L 368.918464 139.313435 
L 369.129749 139.313435 
L 369.129749 138.232795 
L 369.522181 138.232795 
L 369.524311 136.117058 
L 371.240128 136.14604 
L 371.240128 128.676784 
L 371.977005 128.676784 
L 371.977005 134.448482 
L 372.14292 134.448482 
L 372.14292 135.272419 
L 372.952276 135.272419 
L 372.952276 132.436255 
L 373.662289 132.436255 
L 373.662289 130.229429 
L 374.292754 130.229429 
L 374.292754 129.819531 
L 374.294356 137.64486 
L 375.080963 137.64486 
L 375.080963 132.034637 
L 376.720777 132.034637 
L 376.720777 119.315372 
L 376.72237 119.315372 
L 377.417948 119.315372 
L 377.417948 118.826806 
L 378.284434 118.826806 
L 378.284434 133.314016 
L 379.188819 133.314016 
L 379.188819 131.74481 
L 379.53085 131.74481 
L 379.53085 131.20656 
L 379.712935 131.20656 
L 379.714492 129.347527 
L 379.976026 129.347527 
L 379.980894 128.610538 
L 380.513878 128.610538 
L 380.513878 124.428748 
L 382.035368 124.428748 
L 382.035368 126.639714 
L 383.506117 126.639714 
L 383.506117 257.041166 
L 383.516838 257.041166 
L 430.160747 257.041166 
L 430.160747 257.041166 
" clip-path="url(#p5e24ff7344)" style="fill: none; stroke-dasharray: 6,2.25; stroke-dashoffset: 0; stroke: #ff7f0e; stroke-width: 1.5"/>
   </g>
   <g id="line2d_33">
    <path d="M 336.951081 271.644306 
L 336.952226 271.644306 
L 336.952226 267.826871 
L 336.965148 267.826871 
L 336.965148 267.82273 
L 337.087526 267.82273 
L 337.087526 197.291258 
L 337.863063 197.291258 
L 337.863063 141.818369 
L 337.87127 141.818369 
L 337.87127 119.83292 
L 337.874983 119.83292 
L 337.874983 119.754253 
L 337.880066 119.754253 
L 337.880066 82.238217 
L 338.668741 82.238217 
L 338.668741 71.402827 
L 339.484191 71.402827 
L 339.484191 76.093884 
L 343.319586 76.093884 
L 343.319586 77.849408 
L 346.992011 77.849408 
L 346.992011 80.830486 
L 347.119883 80.830486 
L 347.119883 84.171777 
L 347.131928 84.171777 
L 347.131928 84.167637 
L 366.5664 84.167637 
L 366.5664 81.766213 
L 369.643511 81.766213 
L 369.643511 80.515816 
L 374.172131 80.515816 
L 374.172131 81.211401 
L 376.491799 81.211401 
L 376.491799 80.184586 
L 376.521017 80.184586 
L 376.521017 79.936162 
L 381.998471 79.936162 
L 381.998471 79.782968 
L 382.038697 79.782968 
L 382.038697 79.787108 
L 393.640117 79.787108 
L 393.640117 74.002989 
L 395.952742 74.002989 
L 395.952742 221.429707 
L 395.956724 221.429707 
L 395.956724 71.233071 
L 397.482975 71.233071 
L 397.482975 71.245493 
L 398.250879 71.245493 
L 398.250879 71.046754 
L 398.357963 71.046754 
L 398.357963 70.24766 
L 399.032063 70.24766 
L 399.032063 69.684567 
L 421.393948 69.684567 
L 421.393948 67.56469 
L 425.369179 67.56469 
L 425.369179 63.337356 
L 426.098254 63.337356 
L 426.098254 58.940266 
L 428.408937 58.940266 
L 428.408937 58.609035 
L 428.420875 58.609035 
L 428.420875 57.714712 
L 428.428992 57.714712 
L 428.428992 58.103908 
L 429.202507 58.103908 
L 429.202507 55.901223 
L 429.237802 55.901223 
L 429.237802 55.607255 
L 429.839219 55.607255 
L 429.839219 52.86632 
L 429.90043 52.86632 
L 429.90043 48.647267 
L 429.991808 48.647267 
L 429.991808 47.82333 
L 433.867536 47.82333 
L 433.867536 39.567401 
L 436.134673 39.567401 
L 436.134673 35.182732 
L 436.914569 35.182732 
L 436.914569 34.934309 
L 441.544205 34.934309 
L 441.544205 33.381664 
L 442.143752 33.381664 
L 442.143752 34.131074 
L 442.42492 34.131074 
L 442.42492 33.890932 
L 444.567488 33.890932 
L 444.567488 28.918328 
L 444.58765 28.918328 
L 444.58765 28.905907 
" clip-path="url(#p5e24ff7344)" style="fill: none; stroke-dasharray: 1.5,1.5; stroke-dashoffset: 0; stroke: #2ca02c; stroke-width: 1.5"/>
   </g>
   <g id="line2d_34"/>
   <g id="line2d_35"/>
   <g id="line2d_36"/>
   <g id="line2d_37">
    <path d="M 44.66 23.221157 
L 450 23.221157 
" clip-path="url(#p5e24ff7344)" style="fill: none; stroke: #808080; stroke-width: 1.5; stroke-linecap: square"/>
   </g>
   <g id="line2d_38">
    <path d="M 200.560389 284.065464 
L 200.560389 10.8 
" clip-path="url(#p5e24ff7344)" style="fill: none; stroke: #808080; stroke-width: 1.5; stroke-linecap: square"/>
   </g>
   <g id="line2d_39">
    <path d="M 154.168815 284.065464 
L 154.168815 10.8 
" clip-path="url(#p5e24ff7344)" style="fill: none; stroke-dasharray: 5.55,2.4; stroke-dashoffset: 0; stroke: #808080; stroke-width: 1.5"/>
   </g>
   <g id="line2d_40">
    <path clip-path="url(#p5e24ff7344)" style="fill: none; stroke-dasharray: 5.55,2.4; stroke-dashoffset: 0; stroke: #808080; stroke-width: 1.5"/>
   </g>
   <g id="patch_3">
    <path d="M 44.66 284.065464 
L 44.66 10.8 
" style="fill: none; stroke: #000000; stroke-width: 0.8; stroke-linejoin: miter; stroke-linecap: square"/>
   </g>
   <g id="patch_4">
    <path d="M 450 284.065464 
L 450 10.8 
" style="fill: none; stroke: #000000; stroke-width: 0.8; stroke-linejoin: miter; stroke-linecap: square"/>
   </g>
   <g id="patch_5">
    <path d="M 44.66 284.065464 
L 450 284.065464 
" style="fill: none; stroke: #000000; stroke-width: 0.8; stroke-linejoin: miter; stroke-linecap: square"/>
   </g>
   <g id="patch_6">
    <path d="M 44.66 10.8 
L 450 10.8 
" style="fill: none; stroke: #000000; stroke-width: 0.8; stroke-linejoin: miter; stroke-linecap: square"/>
   </g>
   <g id="text_18">
    <!--  3y apj39 -->
    <g transform="translate(200.560389 43.923087) scale(0.1 -0.1)">
     <defs>
      <path id="DejaVuSans-79" d="M 2059 -325 
Q 1816 -950 1584 -1140 
Q 1353 -1331 966 -1331 
L 506 -1331 
L 506 -850 
L 844 -850 
Q 1081 -850 1212 -737 
Q 1344 -625 1503 -206 
L 1606 56 
L 191 3500 
L 800 3500 
L 1894 763 
L 2988 3500 
L 3597 3500 
L 2059 -325 
z
" transform="scale(0.015625)"/>
      <path id="DejaVuSans-70" d="M 1159 525 
L 1159 -1331 
L 581 -1331 
L 581 3500 
L 1159 3500 
L 1159 2969 
Q 1341 3281 1617 3432 
Q 1894 3584 2278 3584 
Q 2916 3584 3314 3078 
Q 3713 2572 3713 1747 
Q 3713 922 3314 415 
Q 2916 -91 2278 -91 
Q 1894 -91 1617 61 
Q 1341 213 1159 525 
z
M 3116 1747 
Q 3116 2381 2855 2742 
Q 2594 3103 2138 3103 
Q 1681 3103 1420 2742 
Q 1159 2381 1159 1747 
Q 1159 1113 1420 752 
Q 1681 391 2138 391 
Q 2594 391 2855 752 
Q 3116 1113 3116 1747 
z
" transform="scale(0.015625)"/>
      <path id="DejaVuSans-6a" d="M 603 3500 
L 1178 3500 
L 1178 -63 
Q 1178 -731 923 -1031 
Q 669 -1331 103 -1331 
L -116 -1331 
L -116 -844 
L 38 -844 
Q 366 -844 484 -692 
Q 603 -541 603 -63 
L 603 3500 
z
M 603 4863 
L 1178 4863 
L 1178 4134 
L 603 4134 
L 603 4863 
z
" transform="scale(0.015625)"/>
     </defs>
     <use xlink:href="#DejaVuSans-20"/>
     <use xlink:href="#DejaVuSans-33" x="31.787109"/>
     <use xlink:href="#DejaVuSans-79" x="95.410156"/>
     <use xlink:href="#DejaVuSans-20" x="154.589844"/>
     <use xlink:href="#DejaVuSans-61" x="186.376953"/>
     <use xlink:href="#DejaVuSans-70" x="247.65625"/>
     <use xlink:href="#DejaVuSans-6a" x="311.132812"/>
     <use xlink:href="#DejaVuSans-33" x="338.916016"/>
     <use xlink:href="#DejaVuSans-39" x="402.539062"/>
    </g>
   </g>
   <g id="text_19">
    <!--  3y cjj39 -->
    <g transform="translate(154.168815 43.923087) scale(0.1 -0.1)">
     <use xlink:href="#DejaVuSans-20"/>
     <use xlink:href="#DejaVuSans-33" x="31.787109"/>
     <use xlink:href="#DejaVuSans-79" x="95.410156"/>
     <use xlink:href="#DejaVuSans-20" x="154.589844"/>
     <use xlink:href="#DejaVuSans-63" x="186.376953"/>
     <use xlink:href="#DejaVuSans-6a" x="241.357422"/>
     <use xlink:href="#DejaVuSans-6a" x="269.140625"/>
     <use xlink:href="#DejaVuSans-33" x="296.923828"/>
     <use xlink:href="#DejaVuSans-39" x="360.546875"/>
    </g>
   </g>
   <g id="PathCollection_1">
    <defs>
     <path id="m266f9dcea7" d="M 0 -5 
L -1.12257 -1.545085 
L -4.755283 -1.545085 
L -1.816356 0.59017 
L -2.938926 4.045085 
L -0 1.90983 
L 2.938926 4.045085 
L 1.816356 0.59017 
L 4.755283 -1.545085 
L 1.12257 -1.545085 
z
" style="stroke: #000000; stroke-width: 0.5"/>
    </defs>
    <g clip-path="url(#p5e24ff7344)">
     <use xlink:href="#m266f9dcea7" x="299.851638" y="101.544836" style="fill: #ffd700; stroke: #000000; stroke-width: 0.5"/>
    </g>
   </g>
   <g id="legend_1">
    <g id="patch_7">
     <path d="M 51.66 92.190625 
L 140.86625 92.190625 
Q 142.86625 92.190625 142.86625 90.190625 
L 142.86625 17.8 
Q 142.86625 15.8 140.86625 15.8 
L 51.66 15.8 
Q 49.66 15.8 49.66 17.8 
L 49.66 90.190625 
Q 49.66 92.190625 51.66 92.190625 
z
" style="fill: #ffffff; opacity: 0.8; stroke: #cccccc; stroke-linejoin: miter"/>
    </g>
    <g id="line2d_41">
     <path d="M 53.66 23.898438 
L 63.66 23.898438 
L 73.66 23.898438 
" style="fill: none; stroke: #1f77b4; stroke-width: 1.5; stroke-linecap: square"/>
    </g>
    <g id="text_20">
     <!-- apj39 -->
     <g transform="translate(81.66 27.398438) scale(0.1 -0.1)">
      <use xlink:href="#DejaVuSans-61"/>
      <use xlink:href="#DejaVuSans-70" x="61.279297"/>
      <use xlink:href="#DejaVuSans-6a" x="124.755859"/>
      <use xlink:href="#DejaVuSans-33" x="152.539062"/>
      <use xlink:href="#DejaVuSans-39" x="216.162109"/>
     </g>
    </g>
    <g id="line2d_42">
     <path d="M 53.66 38.576563 
L 63.66 38.576563 
L 73.66 38.576563 
" style="fill: none; stroke-dasharray: 6,2.25; stroke-dashoffset: 0; stroke: #ff7f0e; stroke-width: 1.5"/>
    </g>
    <g id="text_21">
     <!-- cjj39 -->
     <g transform="translate(81.66 42.076563) scale(0.1 -0.1)">
      <use xlink:href="#DejaVuSans-63"/>
      <use xlink:href="#DejaVuSans-6a" x="54.980469"/>
      <use xlink:href="#DejaVuSans-6a" x="82.763672"/>
      <use xlink:href="#DejaVuSans-33" x="110.546875"/>
      <use xlink:href="#DejaVuSans-39" x="174.169922"/>
     </g>
    </g>
    <g id="line2d_43">
     <path d="M 53.66 53.254688 
L 63.66 53.254688 
L 73.66 53.254688 
" style="fill: none; stroke-dasharray: 1.5,1.5; stroke-dashoffset: 0; stroke: #2ca02c; stroke-width: 1.5"/>
    </g>
    <g id="text_22">
     <!-- jb2328 -->
     <g transform="translate(81.66 56.754688) scale(0.1 -0.1)">
      <defs>
       <path id="DejaVuSans-62" d="M 3116 1747 
Q 3116 2381 2855 2742 
Q 2594 3103 2138 3103 
Q 1681 3103 1420 2742 
Q 1159 2381 1159 1747 
Q 1159 1113 1420 752 
Q 1681 391 2138 391 
Q 2594 391 2855 752 
Q 3116 1113 3116 1747 
z
M 1159 2969 
Q 1341 3281 1617 3432 
Q 1894 3584 2278 3584 
Q 2916 3584 3314 3078 
Q 3713 2572 3713 1747 
Q 3713 922 3314 415 
Q 2916 -91 2278 -91 
Q 1894 -91 1617 61 
Q 1341 213 1159 525 
L 1159 0 
L 581 0 
L 581 4863 
L 1159 4863 
L 1159 2969 
z
" transform="scale(0.015625)"/>
       <path id="DejaVuSans-38" d="M 2034 2216 
Q 1584 2216 1326 1975 
Q 1069 1734 1069 1313 
Q 1069 891 1326 650 
Q 1584 409 2034 409 
Q 2484 409 2743 651 
Q 3003 894 3003 1313 
Q 3003 1734 2745 1975 
Q 2488 2216 2034 2216 
z
M 1403 2484 
Q 997 2584 770 2862 
Q 544 3141 544 3541 
Q 544 4100 942 4425 
Q 1341 4750 2034 4750 
Q 2731 4750 3128 4425 
Q 3525 4100 3525 3541 
Q 3525 3141 3298 2862 
Q 3072 2584 2669 2484 
Q 3125 2378 3379 2068 
Q 3634 1759 3634 1313 
Q 3634 634 3220 271 
Q 2806 -91 2034 -91 
Q 1263 -91 848 271 
Q 434 634 434 1313 
Q 434 1759 690 2068 
Q 947 2378 1403 2484 
z
M 1172 3481 
Q 1172 3119 1398 2916 
Q 1625 2713 2034 2713 
Q 2441 2713 2670 2916 
Q 2900 3119 2900 3481 
Q 2900 3844 2670 4047 
Q 2441 4250 2034 4250 
Q 1625 4250 1398 4047 
Q 1172 3844 1172 3481 
z
" transform="scale(0.015625)"/>
      </defs>
      <use xlink:href="#DejaVuSans-6a"/>
      <use xlink:href="#DejaVuSans-62" x="27.783203"/>
      <use xlink:href="#DejaVuSans-32" x="91.259766"/>
      <use xlink:href="#DejaVuSans-33" x="154.882812"/>
      <use xlink:href="#DejaVuSans-32" x="218.505859"/>
      <use xlink:href="#DejaVuSans-38" x="282.128906"/>
     </g>
    </g>
    <g id="line2d_44">
     <path d="M 53.66 67.932813 
L 63.66 67.932813 
L 73.66 67.932813 
" style="fill: none; stroke: #808080; stroke-width: 1.5; stroke-linecap: square"/>
    </g>
    <g id="text_23">
     <!-- Word limit -->
     <g transform="translate(81.66 71.432813) scale(0.1 -0.1)">
      <defs>
       <path id="DejaVuSans-6c" d="M 603 4863 
L 1178 4863 
L 1178 0 
L 603 0 
L 603 4863 
z
" transform="scale(0.015625)"/>
      </defs>
      <use xlink:href="#DejaVuSans-57"/>
      <use xlink:href="#DejaVuSans-6f" x="93.001953"/>
      <use xlink:href="#DejaVuSans-72" x="154.183594"/>
      <use xlink:href="#DejaVuSans-64" x="193.546875"/>
      <use xlink:href="#DejaVuSans-20" x="257.023438"/>
      <use xlink:href="#DejaVuSans-6c" x="288.810547"/>
      <use xlink:href="#DejaVuSans-69" x="316.59375"/>
      <use xlink:href="#DejaVuSans-6d" x="344.376953"/>
      <use xlink:href="#DejaVuSans-69" x="441.789062"/>
      <use xlink:href="#DejaVuSans-74" x="469.572266"/>
     </g>
    </g>
    <g id="PathCollection_2">
     <g>
      <use xlink:href="#m266f9dcea7" x="63.66" y="83.485938" style="fill: #ffd700; stroke: #000000; stroke-width: 0.5"/>
     </g>
    </g>
    <g id="text_24">
     <!-- Submission -->
     <g transform="translate(81.66 86.110938) scale(0.1 -0.1)">
      <defs>
       <path id="DejaVuSans-53" d="M 3425 4513 
L 3425 3897 
Q 3066 4069 2747 4153 
Q 2428 4238 2131 4238 
Q 1616 4238 1336 4038 
Q 1056 3838 1056 3469 
Q 1056 3159 1242 3001 
Q 1428 2844 1947 2747 
L 2328 2669 
Q 3034 2534 3370 2195 
Q 3706 1856 3706 1288 
Q 3706 609 3251 259 
Q 2797 -91 1919 -91 
Q 1588 -91 1214 -16 
Q 841 59 441 206 
L 441 856 
Q 825 641 1194 531 
Q 1563 422 1919 422 
Q 2459 422 2753 634 
Q 3047 847 3047 1241 
Q 3047 1584 2836 1778 
Q 2625 1972 2144 2069 
L 1759 2144 
Q 1053 2284 737 2584 
Q 422 2884 422 3419 
Q 422 4038 858 4394 
Q 1294 4750 2059 4750 
Q 2388 4750 2728 4690 
Q 3069 4631 3425 4513 
z
" transform="scale(0.015625)"/>
       <path id="DejaVuSans-73" d="M 2834 3397 
L 2834 2853 
Q 2591 2978 2328 3040 
Q 2066 3103 1784 3103 
Q 1356 3103 1142 2972 
Q 928 2841 928 2578 
Q 928 2378 1081 2264 
Q 1234 2150 1697 2047 
L 1894 2003 
Q 2506 1872 2764 1633 
Q 3022 1394 3022 966 
Q 3022 478 2636 193 
Q 2250 -91 1575 -91 
Q 1294 -91 989 -36 
Q 684 19 347 128 
L 347 722 
Q 666 556 975 473 
Q 1284 391 1588 391 
Q 1994 391 2212 530 
Q 2431 669 2431 922 
Q 2431 1156 2273 1281 
Q 2116 1406 1581 1522 
L 1381 1569 
Q 847 1681 609 1914 
Q 372 2147 372 2553 
Q 372 3047 722 3315 
Q 1072 3584 1716 3584 
Q 2034 3584 2315 3537 
Q 2597 3491 2834 3397 
z
" transform="scale(0.015625)"/>
      </defs>
      <use xlink:href="#DejaVuSans-53"/>
      <use xlink:href="#DejaVuSans-75" x="63.476562"/>
      <use xlink:href="#DejaVuSans-62" x="126.855469"/>
      <use xlink:href="#DejaVuSans-6d" x="190.332031"/>
      <use xlink:href="#DejaVuSans-69" x="287.744141"/>
      <use xlink:href="#DejaVuSans-73" x="315.527344"/>
      <use xlink:href="#DejaVuSans-73" x="367.626953"/>
      <use xlink:href="#DejaVuSans-69" x="419.726562"/>
      <use xlink:href="#DejaVuSans-6f" x="447.509766"/>
      <use xlink:href="#DejaVuSans-6e" x="508.691406"/>
     </g>
    </g>
   </g>
  </g>
 </g>
 <defs>
  <clipPath id="p5e24ff7344">
   <rect x="44.66" y="10.8" width="405.34" height="273.265464"/>
  </clipPath>
 </defs>
</svg>
