<?xml version="1.0" encoding="utf-8" standalone="no"?>
<!DOCTYPE svg PUBLIC "-//W3C//DTD SVG 1.1//EN"
  "http://www.w3.org/Graphics/SVG/1.1/DTD/svg11.dtd">
<svg xmlns:xlink="http://www.w3.org/1999/xlink" width="460.8pt" height="345.6pt" viewBox="0 0 460.8 345.6" xmlns="http://www.w3.org/2000/svg" version="1.1">
 <metadata>
  <rdf:RDF xmlns:dc="http://purl.org/dc/elements/1.1/" xmlns:cc="http://creativecommons.org/ns#" xmlns:rdf="http://www.w3.org/1999/02/22-rdf-syntax-ns#">
   <cc:Work>
    <dc:type rdf:resource="http://purl.org/dc/dcmitype/StillImage"/>
    <dc:date>2025-05-17T10:27:34.859918</dc:date>
    <dc:format>image/svg+xml</dc:format>
    <dc:creator>
     <cc:Agent>
      <dc:title>Matplotlib v3.7.2, https://matplotlib.org/</dc:title>
     </cc:Agent>
    </dc:creator>
   </cc:Work>
  </rdf:RDF>
 </metadata>
 <defs>
  <style type="text/css">*{stroke-linejoin: round; stroke-linecap: butt}</style>
 </defs>
 <g id="figure_1">
  <g id="patch_1">
   <path d="M 0 345.6 
L 460.8 345.6 
L 460.8 0 
L 0 0 
z
" style="fill: #ffffff"/>
  </g>
  <g id="axes_1">
   <g id="patch_2">
    <path d="M 44.66 284.065464 
L 442.855707 284.065464 
L 442.855707 10.8 
L 44.66 10.8 
z
" style="fill: #ffffff"/>
   </g>
   <g id="PolyCollection_1"/>
   <g id="PolyCollection_2"/>
   <g id="PolyCollection_3"/>
   <g id="matplotlib.axis_1">
    <g id="xtick_1">
     <g id="line2d_1">
      <path d="M 76.532714 284.065464 
L 76.532714 10.8 
" clip-path="url(#p8bddfe617d)" style="fill: none; stroke: #b0b0b0; stroke-width: 0.8; stroke-linecap: square"/>
     </g>
     <g id="line2d_2">
      <defs>
       <path id="m6bdef4e4fe" d="M 0 0 
L 0 3.5 
" style="stroke: #000000; stroke-width: 0.8"/>
      </defs>
      <g>
       <use xlink:href="#m6bdef4e4fe" x="76.532714" y="284.065464" style="stroke: #000000; stroke-width: 0.8"/>
      </g>
     </g>
     <g id="text_1">
      <!-- 2023-11 -->
      <g transform="translate(59.819913 318.53731) rotate(-30) scale(0.1 -0.1)">
       <defs>
        <path id="DejaVuSans-32" d="M 1228 531 
L 3431 531 
L 3431 0 
L 469 0 
L 469 531 
Q 828 903 1448 1529 
Q 2069 2156 2228 2338 
Q 2531 2678 2651 2914 
Q 2772 3150 2772 3378 
Q 2772 3750 2511 3984 
Q 2250 4219 1831 4219 
Q 1534 4219 1204 4116 
Q 875 4013 500 3803 
L 500 4441 
Q 881 4594 1212 4672 
Q 1544 4750 1819 4750 
Q 2544 4750 2975 4387 
Q 3406 4025 3406 3419 
Q 3406 3131 3298 2873 
Q 3191 2616 2906 2266 
Q 2828 2175 2409 1742 
Q 1991 1309 1228 531 
z
" transform="scale(0.015625)"/>
        <path id="DejaVuSans-30" d="M 2034 4250 
Q 1547 4250 1301 3770 
Q 1056 3291 1056 2328 
Q 1056 1369 1301 889 
Q 1547 409 2034 409 
Q 2525 409 2770 889 
Q 3016 1369 3016 2328 
Q 3016 3291 2770 3770 
Q 2525 4250 2034 4250 
z
M 2034 4750 
Q 2819 4750 3233 4129 
Q 3647 3509 3647 2328 
Q 3647 1150 3233 529 
Q 2819 -91 2034 -91 
Q 1250 -91 836 529 
Q 422 1150 422 2328 
Q 422 3509 836 4129 
Q 1250 4750 2034 4750 
z
" transform="scale(0.015625)"/>
        <path id="DejaVuSans-33" d="M 2597 2516 
Q 3050 2419 3304 2112 
Q 3559 1806 3559 1356 
Q 3559 666 3084 287 
Q 2609 -91 1734 -91 
Q 1441 -91 1130 -33 
Q 819 25 488 141 
L 488 750 
Q 750 597 1062 519 
Q 1375 441 1716 441 
Q 2309 441 2620 675 
Q 2931 909 2931 1356 
Q 2931 1769 2642 2001 
Q 2353 2234 1838 2234 
L 1294 2234 
L 1294 2753 
L 1863 2753 
Q 2328 2753 2575 2939 
Q 2822 3125 2822 3475 
Q 2822 3834 2567 4026 
Q 2313 4219 1838 4219 
Q 1578 4219 1281 4162 
Q 984 4106 628 3988 
L 628 4550 
Q 988 4650 1302 4700 
Q 1616 4750 1894 4750 
Q 2613 4750 3031 4423 
Q 3450 4097 3450 3541 
Q 3450 3153 3228 2886 
Q 3006 2619 2597 2516 
z
" transform="scale(0.015625)"/>
        <path id="DejaVuSans-2d" d="M 313 2009 
L 1997 2009 
L 1997 1497 
L 313 1497 
L 313 2009 
z
" transform="scale(0.015625)"/>
        <path id="DejaVuSans-31" d="M 794 531 
L 1825 531 
L 1825 4091 
L 703 3866 
L 703 4441 
L 1819 4666 
L 2450 4666 
L 2450 531 
L 3481 531 
L 3481 0 
L 794 0 
L 794 531 
z
" transform="scale(0.015625)"/>
       </defs>
       <use xlink:href="#DejaVuSans-32"/>
       <use xlink:href="#DejaVuSans-30" x="63.623047"/>
       <use xlink:href="#DejaVuSans-32" x="127.246094"/>
       <use xlink:href="#DejaVuSans-33" x="190.869141"/>
       <use xlink:href="#DejaVuSans-2d" x="254.492188"/>
       <use xlink:href="#DejaVuSans-31" x="290.576172"/>
       <use xlink:href="#DejaVuSans-31" x="354.199219"/>
      </g>
     </g>
    </g>
    <g id="xtick_2">
     <g id="line2d_3">
      <path d="M 115.705783 284.065464 
L 115.705783 10.8 
" clip-path="url(#p8bddfe617d)" style="fill: none; stroke: #b0b0b0; stroke-width: 0.8; stroke-linecap: square"/>
     </g>
     <g id="line2d_4">
      <g>
       <use xlink:href="#m6bdef4e4fe" x="115.705783" y="284.065464" style="stroke: #000000; stroke-width: 0.8"/>
      </g>
     </g>
     <g id="text_2">
      <!-- 2024-01 -->
      <g transform="translate(98.992982 318.53731) rotate(-30) scale(0.1 -0.1)">
       <defs>
        <path id="DejaVuSans-34" d="M 2419 4116 
L 825 1625 
L 2419 1625 
L 2419 4116 
z
M 2253 4666 
L 3047 4666 
L 3047 1625 
L 3713 1625 
L 3713 1100 
L 3047 1100 
L 3047 0 
L 2419 0 
L 2419 1100 
L 313 1100 
L 313 1709 
L 2253 4666 
z
" transform="scale(0.015625)"/>
       </defs>
       <use xlink:href="#DejaVuSans-32"/>
       <use xlink:href="#DejaVuSans-30" x="63.623047"/>
       <use xlink:href="#DejaVuSans-32" x="127.246094"/>
       <use xlink:href="#DejaVuSans-34" x="190.869141"/>
       <use xlink:href="#DejaVuSans-2d" x="254.492188"/>
       <use xlink:href="#DejaVuSans-30" x="290.576172"/>
       <use xlink:href="#DejaVuSans-31" x="354.199219"/>
      </g>
     </g>
    </g>
    <g id="xtick_3">
     <g id="line2d_5">
      <path d="M 154.23667 284.065464 
L 154.23667 10.8 
" clip-path="url(#p8bddfe617d)" style="fill: none; stroke: #b0b0b0; stroke-width: 0.8; stroke-linecap: square"/>
     </g>
     <g id="line2d_6">
      <g>
       <use xlink:href="#m6bdef4e4fe" x="154.23667" y="284.065464" style="stroke: #000000; stroke-width: 0.8"/>
      </g>
     </g>
     <g id="text_3">
      <!-- 2024-03 -->
      <g transform="translate(137.523869 318.53731) rotate(-30) scale(0.1 -0.1)">
       <use xlink:href="#DejaVuSans-32"/>
       <use xlink:href="#DejaVuSans-30" x="63.623047"/>
       <use xlink:href="#DejaVuSans-32" x="127.246094"/>
       <use xlink:href="#DejaVuSans-34" x="190.869141"/>
       <use xlink:href="#DejaVuSans-2d" x="254.492188"/>
       <use xlink:href="#DejaVuSans-30" x="290.576172"/>
       <use xlink:href="#DejaVuSans-33" x="354.199219"/>
      </g>
     </g>
    </g>
    <g id="xtick_4">
     <g id="line2d_7">
      <path d="M 193.409739 284.065464 
L 193.409739 10.8 
" clip-path="url(#p8bddfe617d)" style="fill: none; stroke: #b0b0b0; stroke-width: 0.8; stroke-linecap: square"/>
     </g>
     <g id="line2d_8">
      <g>
       <use xlink:href="#m6bdef4e4fe" x="193.409739" y="284.065464" style="stroke: #000000; stroke-width: 0.8"/>
      </g>
     </g>
     <g id="text_4">
      <!-- 2024-05 -->
      <g transform="translate(176.696938 318.53731) rotate(-30) scale(0.1 -0.1)">
       <defs>
        <path id="DejaVuSans-35" d="M 691 4666 
L 3169 4666 
L 3169 4134 
L 1269 4134 
L 1269 2991 
Q 1406 3038 1543 3061 
Q 1681 3084 1819 3084 
Q 2600 3084 3056 2656 
Q 3513 2228 3513 1497 
Q 3513 744 3044 326 
Q 2575 -91 1722 -91 
Q 1428 -91 1123 -41 
Q 819 9 494 109 
L 494 744 
Q 775 591 1075 516 
Q 1375 441 1709 441 
Q 2250 441 2565 725 
Q 2881 1009 2881 1497 
Q 2881 1984 2565 2268 
Q 2250 2553 1709 2553 
Q 1456 2553 1204 2497 
Q 953 2441 691 2322 
L 691 4666 
z
" transform="scale(0.015625)"/>
       </defs>
       <use xlink:href="#DejaVuSans-32"/>
       <use xlink:href="#DejaVuSans-30" x="63.623047"/>
       <use xlink:href="#DejaVuSans-32" x="127.246094"/>
       <use xlink:href="#DejaVuSans-34" x="190.869141"/>
       <use xlink:href="#DejaVuSans-2d" x="254.492188"/>
       <use xlink:href="#DejaVuSans-30" x="290.576172"/>
       <use xlink:href="#DejaVuSans-35" x="354.199219"/>
      </g>
     </g>
    </g>
    <g id="xtick_5">
     <g id="line2d_9">
      <path d="M 232.582807 284.065464 
L 232.582807 10.8 
" clip-path="url(#p8bddfe617d)" style="fill: none; stroke: #b0b0b0; stroke-width: 0.8; stroke-linecap: square"/>
     </g>
     <g id="line2d_10">
      <g>
       <use xlink:href="#m6bdef4e4fe" x="232.582807" y="284.065464" style="stroke: #000000; stroke-width: 0.8"/>
      </g>
     </g>
     <g id="text_5">
      <!-- 2024-07 -->
      <g transform="translate(215.870006 318.53731) rotate(-30) scale(0.1 -0.1)">
       <defs>
        <path id="DejaVuSans-37" d="M 525 4666 
L 3525 4666 
L 3525 4397 
L 1831 0 
L 1172 0 
L 2766 4134 
L 525 4134 
L 525 4666 
z
" transform="scale(0.015625)"/>
       </defs>
       <use xlink:href="#DejaVuSans-32"/>
       <use xlink:href="#DejaVuSans-30" x="63.623047"/>
       <use xlink:href="#DejaVuSans-32" x="127.246094"/>
       <use xlink:href="#DejaVuSans-34" x="190.869141"/>
       <use xlink:href="#DejaVuSans-2d" x="254.492188"/>
       <use xlink:href="#DejaVuSans-30" x="290.576172"/>
       <use xlink:href="#DejaVuSans-37" x="354.199219"/>
      </g>
     </g>
    </g>
    <g id="xtick_6">
     <g id="line2d_11">
      <path d="M 272.398057 284.065464 
L 272.398057 10.8 
" clip-path="url(#p8bddfe617d)" style="fill: none; stroke: #b0b0b0; stroke-width: 0.8; stroke-linecap: square"/>
     </g>
     <g id="line2d_12">
      <g>
       <use xlink:href="#m6bdef4e4fe" x="272.398057" y="284.065464" style="stroke: #000000; stroke-width: 0.8"/>
      </g>
     </g>
     <g id="text_6">
      <!-- 2024-09 -->
      <g transform="translate(255.685256 318.53731) rotate(-30) scale(0.1 -0.1)">
       <defs>
        <path id="DejaVuSans-39" d="M 703 97 
L 703 672 
Q 941 559 1184 500 
Q 1428 441 1663 441 
Q 2288 441 2617 861 
Q 2947 1281 2994 2138 
Q 2813 1869 2534 1725 
Q 2256 1581 1919 1581 
Q 1219 1581 811 2004 
Q 403 2428 403 3163 
Q 403 3881 828 4315 
Q 1253 4750 1959 4750 
Q 2769 4750 3195 4129 
Q 3622 3509 3622 2328 
Q 3622 1225 3098 567 
Q 2575 -91 1691 -91 
Q 1453 -91 1209 -44 
Q 966 3 703 97 
z
M 1959 2075 
Q 2384 2075 2632 2365 
Q 2881 2656 2881 3163 
Q 2881 3666 2632 3958 
Q 2384 4250 1959 4250 
Q 1534 4250 1286 3958 
Q 1038 3666 1038 3163 
Q 1038 2656 1286 2365 
Q 1534 2075 1959 2075 
z
" transform="scale(0.015625)"/>
       </defs>
       <use xlink:href="#DejaVuSans-32"/>
       <use xlink:href="#DejaVuSans-30" x="63.623047"/>
       <use xlink:href="#DejaVuSans-32" x="127.246094"/>
       <use xlink:href="#DejaVuSans-34" x="190.869141"/>
       <use xlink:href="#DejaVuSans-2d" x="254.492188"/>
       <use xlink:href="#DejaVuSans-30" x="290.576172"/>
       <use xlink:href="#DejaVuSans-39" x="354.199219"/>
      </g>
     </g>
    </g>
    <g id="xtick_7">
     <g id="line2d_13">
      <path d="M 311.571126 284.065464 
L 311.571126 10.8 
" clip-path="url(#p8bddfe617d)" style="fill: none; stroke: #b0b0b0; stroke-width: 0.8; stroke-linecap: square"/>
     </g>
     <g id="line2d_14">
      <g>
       <use xlink:href="#m6bdef4e4fe" x="311.571126" y="284.065464" style="stroke: #000000; stroke-width: 0.8"/>
      </g>
     </g>
     <g id="text_7">
      <!-- 2024-11 -->
      <g transform="translate(294.858325 318.53731) rotate(-30) scale(0.1 -0.1)">
       <use xlink:href="#DejaVuSans-32"/>
       <use xlink:href="#DejaVuSans-30" x="63.623047"/>
       <use xlink:href="#DejaVuSans-32" x="127.246094"/>
       <use xlink:href="#DejaVuSans-34" x="190.869141"/>
       <use xlink:href="#DejaVuSans-2d" x="254.492188"/>
       <use xlink:href="#DejaVuSans-31" x="290.576172"/>
       <use xlink:href="#DejaVuSans-31" x="354.199219"/>
      </g>
     </g>
    </g>
    <g id="xtick_8">
     <g id="line2d_15">
      <path d="M 350.744195 284.065464 
L 350.744195 10.8 
" clip-path="url(#p8bddfe617d)" style="fill: none; stroke: #b0b0b0; stroke-width: 0.8; stroke-linecap: square"/>
     </g>
     <g id="line2d_16">
      <g>
       <use xlink:href="#m6bdef4e4fe" x="350.744195" y="284.065464" style="stroke: #000000; stroke-width: 0.8"/>
      </g>
     </g>
     <g id="text_8">
      <!-- 2025-01 -->
      <g transform="translate(334.031394 318.53731) rotate(-30) scale(0.1 -0.1)">
       <use xlink:href="#DejaVuSans-32"/>
       <use xlink:href="#DejaVuSans-30" x="63.623047"/>
       <use xlink:href="#DejaVuSans-32" x="127.246094"/>
       <use xlink:href="#DejaVuSans-35" x="190.869141"/>
       <use xlink:href="#DejaVuSans-2d" x="254.492188"/>
       <use xlink:href="#DejaVuSans-30" x="290.576172"/>
       <use xlink:href="#DejaVuSans-31" x="354.199219"/>
      </g>
     </g>
    </g>
    <g id="xtick_9">
     <g id="line2d_17">
      <path d="M 388.632901 284.065464 
L 388.632901 10.8 
" clip-path="url(#p8bddfe617d)" style="fill: none; stroke: #b0b0b0; stroke-width: 0.8; stroke-linecap: square"/>
     </g>
     <g id="line2d_18">
      <g>
       <use xlink:href="#m6bdef4e4fe" x="388.632901" y="284.065464" style="stroke: #000000; stroke-width: 0.8"/>
      </g>
     </g>
     <g id="text_9">
      <!-- 2025-03 -->
      <g transform="translate(371.920099 318.53731) rotate(-30) scale(0.1 -0.1)">
       <use xlink:href="#DejaVuSans-32"/>
       <use xlink:href="#DejaVuSans-30" x="63.623047"/>
       <use xlink:href="#DejaVuSans-32" x="127.246094"/>
       <use xlink:href="#DejaVuSans-35" x="190.869141"/>
       <use xlink:href="#DejaVuSans-2d" x="254.492188"/>
       <use xlink:href="#DejaVuSans-30" x="290.576172"/>
       <use xlink:href="#DejaVuSans-33" x="354.199219"/>
      </g>
     </g>
    </g>
    <g id="xtick_10">
     <g id="line2d_19">
      <path d="M 427.805969 284.065464 
L 427.805969 10.8 
" clip-path="url(#p8bddfe617d)" style="fill: none; stroke: #b0b0b0; stroke-width: 0.8; stroke-linecap: square"/>
     </g>
     <g id="line2d_20">
      <g>
       <use xlink:href="#m6bdef4e4fe" x="427.805969" y="284.065464" style="stroke: #000000; stroke-width: 0.8"/>
      </g>
     </g>
     <g id="text_10">
      <!-- 2025-05 -->
      <g transform="translate(411.093168 318.53731) rotate(-30) scale(0.1 -0.1)">
       <use xlink:href="#DejaVuSans-32"/>
       <use xlink:href="#DejaVuSans-30" x="63.623047"/>
       <use xlink:href="#DejaVuSans-32" x="127.246094"/>
       <use xlink:href="#DejaVuSans-35" x="190.869141"/>
       <use xlink:href="#DejaVuSans-2d" x="254.492188"/>
       <use xlink:href="#DejaVuSans-30" x="290.576172"/>
       <use xlink:href="#DejaVuSans-35" x="354.199219"/>
      </g>
     </g>
    </g>
    <g id="text_11">
     <!-- Date &amp; time -->
     <g transform="translate(213.433635 331.93681) scale(0.1 -0.1)">
      <defs>
       <path id="DejaVuSans-44" d="M 1259 4147 
L 1259 519 
L 2022 519 
Q 2988 519 3436 956 
Q 3884 1394 3884 2338 
Q 3884 3275 3436 3711 
Q 2988 4147 2022 4147 
L 1259 4147 
z
M 628 4666 
L 1925 4666 
Q 3281 4666 3915 4102 
Q 4550 3538 4550 2338 
Q 4550 1131 3912 565 
Q 3275 0 1925 0 
L 628 0 
L 628 4666 
z
" transform="scale(0.015625)"/>
       <path id="DejaVuSans-61" d="M 2194 1759 
Q 1497 1759 1228 1600 
Q 959 1441 959 1056 
Q 959 750 1161 570 
Q 1363 391 1709 391 
Q 2188 391 2477 730 
Q 2766 1069 2766 1631 
L 2766 1759 
L 2194 1759 
z
M 3341 1997 
L 3341 0 
L 2766 0 
L 2766 531 
Q 2569 213 2275 61 
Q 1981 -91 1556 -91 
Q 1019 -91 701 211 
Q 384 513 384 1019 
Q 384 1609 779 1909 
Q 1175 2209 1959 2209 
L 2766 2209 
L 2766 2266 
Q 2766 2663 2505 2880 
Q 2244 3097 1772 3097 
Q 1472 3097 1187 3025 
Q 903 2953 641 2809 
L 641 3341 
Q 956 3463 1253 3523 
Q 1550 3584 1831 3584 
Q 2591 3584 2966 3190 
Q 3341 2797 3341 1997 
z
" transform="scale(0.015625)"/>
       <path id="DejaVuSans-74" d="M 1172 4494 
L 1172 3500 
L 2356 3500 
L 2356 3053 
L 1172 3053 
L 1172 1153 
Q 1172 725 1289 603 
Q 1406 481 1766 481 
L 2356 481 
L 2356 0 
L 1766 0 
Q 1100 0 847 248 
Q 594 497 594 1153 
L 594 3053 
L 172 3053 
L 172 3500 
L 594 3500 
L 594 4494 
L 1172 4494 
z
" transform="scale(0.015625)"/>
       <path id="DejaVuSans-65" d="M 3597 1894 
L 3597 1613 
L 953 1613 
Q 991 1019 1311 708 
Q 1631 397 2203 397 
Q 2534 397 2845 478 
Q 3156 559 3463 722 
L 3463 178 
Q 3153 47 2828 -22 
Q 2503 -91 2169 -91 
Q 1331 -91 842 396 
Q 353 884 353 1716 
Q 353 2575 817 3079 
Q 1281 3584 2069 3584 
Q 2775 3584 3186 3129 
Q 3597 2675 3597 1894 
z
M 3022 2063 
Q 3016 2534 2758 2815 
Q 2500 3097 2075 3097 
Q 1594 3097 1305 2825 
Q 1016 2553 972 2059 
L 3022 2063 
z
" transform="scale(0.015625)"/>
       <path id="DejaVuSans-20" transform="scale(0.015625)"/>
       <path id="DejaVuSans-26" d="M 1556 2509 
Q 1272 2256 1139 2004 
Q 1006 1753 1006 1478 
Q 1006 1022 1337 719 
Q 1669 416 2169 416 
Q 2466 416 2725 514 
Q 2984 613 3213 813 
L 1556 2509 
z
M 1997 2859 
L 3584 1234 
Q 3769 1513 3872 1830 
Q 3975 2147 3994 2503 
L 4575 2503 
Q 4538 2091 4375 1687 
Q 4213 1284 3922 891 
L 4794 0 
L 4006 0 
L 3559 459 
Q 3234 181 2878 45 
Q 2522 -91 2113 -91 
Q 1359 -91 881 339 
Q 403 769 403 1441 
Q 403 1841 612 2192 
Q 822 2544 1241 2853 
Q 1091 3050 1012 3245 
Q 934 3441 934 3628 
Q 934 4134 1281 4442 
Q 1628 4750 2203 4750 
Q 2463 4750 2720 4694 
Q 2978 4638 3244 4525 
L 3244 3956 
Q 2972 4103 2725 4179 
Q 2478 4256 2266 4256 
Q 1938 4256 1733 4082 
Q 1528 3909 1528 3634 
Q 1528 3475 1620 3314 
Q 1713 3153 1997 2859 
z
" transform="scale(0.015625)"/>
       <path id="DejaVuSans-69" d="M 603 3500 
L 1178 3500 
L 1178 0 
L 603 0 
L 603 3500 
z
M 603 4863 
L 1178 4863 
L 1178 4134 
L 603 4134 
L 603 4863 
z
" transform="scale(0.015625)"/>
       <path id="DejaVuSans-6d" d="M 3328 2828 
Q 3544 3216 3844 3400 
Q 4144 3584 4550 3584 
Q 5097 3584 5394 3201 
Q 5691 2819 5691 2113 
L 5691 0 
L 5113 0 
L 5113 2094 
Q 5113 2597 4934 2840 
Q 4756 3084 4391 3084 
Q 3944 3084 3684 2787 
Q 3425 2491 3425 1978 
L 3425 0 
L 2847 0 
L 2847 2094 
Q 2847 2600 2669 2842 
Q 2491 3084 2119 3084 
Q 1678 3084 1418 2786 
Q 1159 2488 1159 1978 
L 1159 0 
L 581 0 
L 581 3500 
L 1159 3500 
L 1159 2956 
Q 1356 3278 1631 3431 
Q 1906 3584 2284 3584 
Q 2666 3584 2933 3390 
Q 3200 3197 3328 2828 
z
" transform="scale(0.015625)"/>
      </defs>
      <use xlink:href="#DejaVuSans-44"/>
      <use xlink:href="#DejaVuSans-61" x="77.001953"/>
      <use xlink:href="#DejaVuSans-74" x="138.28125"/>
      <use xlink:href="#DejaVuSans-65" x="177.490234"/>
      <use xlink:href="#DejaVuSans-20" x="239.013672"/>
      <use xlink:href="#DejaVuSans-26" x="270.800781"/>
      <use xlink:href="#DejaVuSans-20" x="348.779297"/>
      <use xlink:href="#DejaVuSans-74" x="380.566406"/>
      <use xlink:href="#DejaVuSans-69" x="419.775391"/>
      <use xlink:href="#DejaVuSans-6d" x="447.558594"/>
      <use xlink:href="#DejaVuSans-65" x="544.970703"/>
     </g>
    </g>
   </g>
   <g id="matplotlib.axis_2">
    <g id="ytick_1">
     <g id="line2d_21">
      <path d="M 44.66 271.644306 
L 442.855707 271.644306 
" clip-path="url(#p8bddfe617d)" style="fill: none; stroke: #b0b0b0; stroke-width: 0.8; stroke-linecap: square"/>
     </g>
     <g id="line2d_22">
      <defs>
       <path id="m21114ece53" d="M 0 0 
L -3.5 0 
" style="stroke: #000000; stroke-width: 0.8"/>
      </defs>
      <g>
       <use xlink:href="#m21114ece53" x="44.66" y="271.644306" style="stroke: #000000; stroke-width: 0.8"/>
      </g>
     </g>
     <g id="text_12">
      <!-- 0 -->
      <g transform="translate(31.2975 275.443525) scale(0.1 -0.1)">
       <use xlink:href="#DejaVuSans-30"/>
      </g>
     </g>
    </g>
    <g id="ytick_2">
     <g id="line2d_23">
      <path d="M 44.66 235.203664 
L 442.855707 235.203664 
" clip-path="url(#p8bddfe617d)" style="fill: none; stroke: #b0b0b0; stroke-width: 0.8; stroke-linecap: square"/>
     </g>
     <g id="line2d_24">
      <g>
       <use xlink:href="#m21114ece53" x="44.66" y="235.203664" style="stroke: #000000; stroke-width: 0.8"/>
      </g>
     </g>
     <g id="text_13">
      <!-- 10 -->
      <g transform="translate(24.935 239.002883) scale(0.1 -0.1)">
       <use xlink:href="#DejaVuSans-31"/>
       <use xlink:href="#DejaVuSans-30" x="63.623047"/>
      </g>
     </g>
    </g>
    <g id="ytick_3">
     <g id="line2d_25">
      <path d="M 44.66 198.763021 
L 442.855707 198.763021 
" clip-path="url(#p8bddfe617d)" style="fill: none; stroke: #b0b0b0; stroke-width: 0.8; stroke-linecap: square"/>
     </g>
     <g id="line2d_26">
      <g>
       <use xlink:href="#m21114ece53" x="44.66" y="198.763021" style="stroke: #000000; stroke-width: 0.8"/>
      </g>
     </g>
     <g id="text_14">
      <!-- 20 -->
      <g transform="translate(24.935 202.56224) scale(0.1 -0.1)">
       <use xlink:href="#DejaVuSans-32"/>
       <use xlink:href="#DejaVuSans-30" x="63.623047"/>
      </g>
     </g>
    </g>
    <g id="ytick_4">
     <g id="line2d_27">
      <path d="M 44.66 162.322379 
L 442.855707 162.322379 
" clip-path="url(#p8bddfe617d)" style="fill: none; stroke: #b0b0b0; stroke-width: 0.8; stroke-linecap: square"/>
     </g>
     <g id="line2d_28">
      <g>
       <use xlink:href="#m21114ece53" x="44.66" y="162.322379" style="stroke: #000000; stroke-width: 0.8"/>
      </g>
     </g>
     <g id="text_15">
      <!-- 30 -->
      <g transform="translate(24.935 166.121597) scale(0.1 -0.1)">
       <use xlink:href="#DejaVuSans-33"/>
       <use xlink:href="#DejaVuSans-30" x="63.623047"/>
      </g>
     </g>
    </g>
    <g id="ytick_5">
     <g id="line2d_29">
      <path d="M 44.66 125.881736 
L 442.855707 125.881736 
" clip-path="url(#p8bddfe617d)" style="fill: none; stroke: #b0b0b0; stroke-width: 0.8; stroke-linecap: square"/>
     </g>
     <g id="line2d_30">
      <g>
       <use xlink:href="#m21114ece53" x="44.66" y="125.881736" style="stroke: #000000; stroke-width: 0.8"/>
      </g>
     </g>
     <g id="text_16">
      <!-- 40 -->
      <g transform="translate(24.935 129.680955) scale(0.1 -0.1)">
       <use xlink:href="#DejaVuSans-34"/>
       <use xlink:href="#DejaVuSans-30" x="63.623047"/>
      </g>
     </g>
    </g>
    <g id="ytick_6">
     <g id="line2d_31">
      <path d="M 44.66 89.441093 
L 442.855707 89.441093 
" clip-path="url(#p8bddfe617d)" style="fill: none; stroke: #b0b0b0; stroke-width: 0.8; stroke-linecap: square"/>
     </g>
     <g id="line2d_32">
      <g>
       <use xlink:href="#m21114ece53" x="44.66" y="89.441093" style="stroke: #000000; stroke-width: 0.8"/>
      </g>
     </g>
     <g id="text_17">
      <!-- 50 -->
      <g transform="translate(24.935 93.240312) scale(0.1 -0.1)">
       <use xlink:href="#DejaVuSans-35"/>
       <use xlink:href="#DejaVuSans-30" x="63.623047"/>
      </g>
     </g>
    </g>
    <g id="ytick_7">
     <g id="line2d_33">
      <path d="M 44.66 53.000451 
L 442.855707 53.000451 
" clip-path="url(#p8bddfe617d)" style="fill: none; stroke: #b0b0b0; stroke-width: 0.8; stroke-linecap: square"/>
     </g>
     <g id="line2d_34">
      <g>
       <use xlink:href="#m21114ece53" x="44.66" y="53.000451" style="stroke: #000000; stroke-width: 0.8"/>
      </g>
     </g>
     <g id="text_18">
      <!-- 60 -->
      <g transform="translate(24.935 56.799669) scale(0.1 -0.1)">
       <defs>
        <path id="DejaVuSans-36" d="M 2113 2584 
Q 1688 2584 1439 2293 
Q 1191 2003 1191 1497 
Q 1191 994 1439 701 
Q 1688 409 2113 409 
Q 2538 409 2786 701 
Q 3034 994 3034 1497 
Q 3034 2003 2786 2293 
Q 2538 2584 2113 2584 
z
M 3366 4563 
L 3366 3988 
Q 3128 4100 2886 4159 
Q 2644 4219 2406 4219 
Q 1781 4219 1451 3797 
Q 1122 3375 1075 2522 
Q 1259 2794 1537 2939 
Q 1816 3084 2150 3084 
Q 2853 3084 3261 2657 
Q 3669 2231 3669 1497 
Q 3669 778 3244 343 
Q 2819 -91 2113 -91 
Q 1303 -91 875 529 
Q 447 1150 447 2328 
Q 447 3434 972 4092 
Q 1497 4750 2381 4750 
Q 2619 4750 2861 4703 
Q 3103 4656 3366 4563 
z
" transform="scale(0.015625)"/>
       </defs>
       <use xlink:href="#DejaVuSans-36"/>
       <use xlink:href="#DejaVuSans-30" x="63.623047"/>
      </g>
     </g>
    </g>
    <g id="ytick_8">
     <g id="line2d_35">
      <path d="M 44.66 16.559808 
L 442.855707 16.559808 
" clip-path="url(#p8bddfe617d)" style="fill: none; stroke: #b0b0b0; stroke-width: 0.8; stroke-linecap: square"/>
     </g>
     <g id="line2d_36">
      <g>
       <use xlink:href="#m21114ece53" x="44.66" y="16.559808" style="stroke: #000000; stroke-width: 0.8"/>
      </g>
     </g>
     <g id="text_19">
      <!-- 70 -->
      <g transform="translate(24.935 20.359027) scale(0.1 -0.1)">
       <use xlink:href="#DejaVuSans-37"/>
       <use xlink:href="#DejaVuSans-30" x="63.623047"/>
      </g>
     </g>
    </g>
    <g id="text_20">
     <!-- Word count (K) -->
     <g transform="translate(18.855313 184.749138) rotate(-90) scale(0.1 -0.1)">
      <defs>
       <path id="DejaVuSans-57" d="M 213 4666 
L 850 4666 
L 1831 722 
L 2809 4666 
L 3519 4666 
L 4500 722 
L 5478 4666 
L 6119 4666 
L 4947 0 
L 4153 0 
L 3169 4050 
L 2175 0 
L 1381 0 
L 213 4666 
z
" transform="scale(0.015625)"/>
       <path id="DejaVuSans-6f" d="M 1959 3097 
Q 1497 3097 1228 2736 
Q 959 2375 959 1747 
Q 959 1119 1226 758 
Q 1494 397 1959 397 
Q 2419 397 2687 759 
Q 2956 1122 2956 1747 
Q 2956 2369 2687 2733 
Q 2419 3097 1959 3097 
z
M 1959 3584 
Q 2709 3584 3137 3096 
Q 3566 2609 3566 1747 
Q 3566 888 3137 398 
Q 2709 -91 1959 -91 
Q 1206 -91 779 398 
Q 353 888 353 1747 
Q 353 2609 779 3096 
Q 1206 3584 1959 3584 
z
" transform="scale(0.015625)"/>
       <path id="DejaVuSans-72" d="M 2631 2963 
Q 2534 3019 2420 3045 
Q 2306 3072 2169 3072 
Q 1681 3072 1420 2755 
Q 1159 2438 1159 1844 
L 1159 0 
L 581 0 
L 581 3500 
L 1159 3500 
L 1159 2956 
Q 1341 3275 1631 3429 
Q 1922 3584 2338 3584 
Q 2397 3584 2469 3576 
Q 2541 3569 2628 3553 
L 2631 2963 
z
" transform="scale(0.015625)"/>
       <path id="DejaVuSans-64" d="M 2906 2969 
L 2906 4863 
L 3481 4863 
L 3481 0 
L 2906 0 
L 2906 525 
Q 2725 213 2448 61 
Q 2172 -91 1784 -91 
Q 1150 -91 751 415 
Q 353 922 353 1747 
Q 353 2572 751 3078 
Q 1150 3584 1784 3584 
Q 2172 3584 2448 3432 
Q 2725 3281 2906 2969 
z
M 947 1747 
Q 947 1113 1208 752 
Q 1469 391 1925 391 
Q 2381 391 2643 752 
Q 2906 1113 2906 1747 
Q 2906 2381 2643 2742 
Q 2381 3103 1925 3103 
Q 1469 3103 1208 2742 
Q 947 2381 947 1747 
z
" transform="scale(0.015625)"/>
       <path id="DejaVuSans-63" d="M 3122 3366 
L 3122 2828 
Q 2878 2963 2633 3030 
Q 2388 3097 2138 3097 
Q 1578 3097 1268 2742 
Q 959 2388 959 1747 
Q 959 1106 1268 751 
Q 1578 397 2138 397 
Q 2388 397 2633 464 
Q 2878 531 3122 666 
L 3122 134 
Q 2881 22 2623 -34 
Q 2366 -91 2075 -91 
Q 1284 -91 818 406 
Q 353 903 353 1747 
Q 353 2603 823 3093 
Q 1294 3584 2113 3584 
Q 2378 3584 2631 3529 
Q 2884 3475 3122 3366 
z
" transform="scale(0.015625)"/>
       <path id="DejaVuSans-75" d="M 544 1381 
L 544 3500 
L 1119 3500 
L 1119 1403 
Q 1119 906 1312 657 
Q 1506 409 1894 409 
Q 2359 409 2629 706 
Q 2900 1003 2900 1516 
L 2900 3500 
L 3475 3500 
L 3475 0 
L 2900 0 
L 2900 538 
Q 2691 219 2414 64 
Q 2138 -91 1772 -91 
Q 1169 -91 856 284 
Q 544 659 544 1381 
z
M 1991 3584 
L 1991 3584 
z
" transform="scale(0.015625)"/>
       <path id="DejaVuSans-6e" d="M 3513 2113 
L 3513 0 
L 2938 0 
L 2938 2094 
Q 2938 2591 2744 2837 
Q 2550 3084 2163 3084 
Q 1697 3084 1428 2787 
Q 1159 2491 1159 1978 
L 1159 0 
L 581 0 
L 581 3500 
L 1159 3500 
L 1159 2956 
Q 1366 3272 1645 3428 
Q 1925 3584 2291 3584 
Q 2894 3584 3203 3211 
Q 3513 2838 3513 2113 
z
" transform="scale(0.015625)"/>
       <path id="DejaVuSans-28" d="M 1984 4856 
Q 1566 4138 1362 3434 
Q 1159 2731 1159 2009 
Q 1159 1288 1364 580 
Q 1569 -128 1984 -844 
L 1484 -844 
Q 1016 -109 783 600 
Q 550 1309 550 2009 
Q 550 2706 781 3412 
Q 1013 4119 1484 4856 
L 1984 4856 
z
" transform="scale(0.015625)"/>
       <path id="DejaVuSans-4b" d="M 628 4666 
L 1259 4666 
L 1259 2694 
L 3353 4666 
L 4166 4666 
L 1850 2491 
L 4331 0 
L 3500 0 
L 1259 2247 
L 1259 0 
L 628 0 
L 628 4666 
z
" transform="scale(0.015625)"/>
       <path id="DejaVuSans-29" d="M 513 4856 
L 1013 4856 
Q 1481 4119 1714 3412 
Q 1947 2706 1947 2009 
Q 1947 1309 1714 600 
Q 1481 -109 1013 -844 
L 513 -844 
Q 928 -128 1133 580 
Q 1338 1288 1338 2009 
Q 1338 2731 1133 3434 
Q 928 4138 513 4856 
z
" transform="scale(0.015625)"/>
      </defs>
      <use xlink:href="#DejaVuSans-57"/>
      <use xlink:href="#DejaVuSans-6f" x="93.001953"/>
      <use xlink:href="#DejaVuSans-72" x="154.183594"/>
      <use xlink:href="#DejaVuSans-64" x="193.546875"/>
      <use xlink:href="#DejaVuSans-20" x="257.023438"/>
      <use xlink:href="#DejaVuSans-63" x="288.810547"/>
      <use xlink:href="#DejaVuSans-6f" x="343.791016"/>
      <use xlink:href="#DejaVuSans-75" x="404.972656"/>
      <use xlink:href="#DejaVuSans-6e" x="468.351562"/>
      <use xlink:href="#DejaVuSans-74" x="531.730469"/>
      <use xlink:href="#DejaVuSans-20" x="570.939453"/>
      <use xlink:href="#DejaVuSans-28" x="602.726562"/>
      <use xlink:href="#DejaVuSans-4b" x="641.740234"/>
      <use xlink:href="#DejaVuSans-29" x="707.316406"/>
     </g>
    </g>
   </g>
   <g id="line2d_37">
    <path d="M 49.15527 271.644306 
L 49.156623 271.644306 
L 49.255492 262.902196 
L 49.352778 262.800163 
L 49.363667 193.183959 
L 51.407855 193.085569 
L 51.422349 191.099554 
L 51.43772 191.099554 
L 53.04579 191.099554 
L 53.04579 190.108369 
L 53.125587 190.108369 
L 53.189887 190.108369 
L 53.189887 187.90371 
L 53.823469 187.798032 
L 53.823469 187.568456 
L 55.11962 187.604896 
L 55.11962 187.24049 
L 55.181675 187.244134 
L 55.687958 187.251422 
L 55.687958 186.599135 
L 55.723315 187.451846 
L 56.846449 187.451846 
L 56.846449 189.645572 
L 57.543223 189.645572 
L 57.543223 188.975065 
L 58.167335 188.975065 
L 58.167335 188.789217 
L 58.171721 188.789217 
L 63.290754 188.774641 
L 63.290754 187.808964 
L 63.323146 191.565994 
L 63.332823 191.438452 
L 86.111371 191.438452 
L 86.111371 190.192182 
L 86.469699 190.192182 
L 86.469699 189.627352 
L 87.225987 189.627352 
L 87.225987 189.262946 
L 90.375181 189.262946 
L 90.428094 184.099307 
L 90.446958 184.172188 
L 90.491851 184.172188 
L 90.492245 183.414223 
L 91.058651 183.344985 
L 91.058651 182.481342 
L 91.059966 182.481342 
L 91.756012 182.481342 
L 91.756012 180.848801 
L 91.757209 180.848801 
L 92.216302 180.848801 
L 92.216302 179.51143 
L 93.602135 179.449481 
L 93.667334 175.980331 
L 93.687737 176.275501 
L 94.25134 176.275501 
L 94.25134 174.420672 
L 94.895202 174.358723 
L 94.977206 170.583472 
L 95.45798 170.583472 
L 95.553111 168.874406 
L 95.556738 168.874406 
L 98.159728 168.874406 
L 98.256598 167.045086 
L 98.774401 167.045086 
L 98.857149 152.476117 
L 99.386146 152.476117 
L 99.424721 147.833579 
L 100.127776 147.833579 
L 100.127776 145.290022 
L 100.1282 145.290022 
L 121.115099 145.290022 
L 121.115099 143.661125 
L 126.394574 143.661125 
L 126.394574 142.360195 
L 130.898362 142.360195 
L 130.901624 140.902569 
L 131.499976 140.807823 
L 131.499976 139.102401 
L 131.502094 139.102401 
L 141.215742 139.102401 
L 141.215742 137.732233 
L 149.474961 137.732233 
L 149.474961 137.571894 
L 156.598701 137.571894 
L 156.598701 136.150709 
L 156.606862 136.150709 
L 160.953427 136.150709 
L 161.029917 133.366644 
L 161.052222 136.75198 
L 161.062546 136.708251 
L 161.600232 136.63537 
L 161.600232 146.394174 
L 161.677494 145.894937 
L 161.724513 145.894937 
L 161.724513 151.535948 
L 162.245899 151.535948 
L 162.350811 149.662899 
L 162.351175 149.662899 
L 162.366345 149.662899 
L 162.366345 149.881543 
L 162.381761 148.485867 
L 162.979331 148.485867 
L 162.992309 146.569089 
L 163.529095 146.569089 
L 163.529095 145.683581 
L 165.45529 145.683581 
L 165.54828 143.300363 
L 165.573811 143.300363 
L 165.575476 142.866719 
L 166.089095 142.797482 
L 166.109015 142.287313 
L 166.155067 142.385703 
L 166.724565 142.32011 
L 166.835624 141.63867 
L 166.875671 141.63867 
L 166.880108 141.809941 
L 167.343452 141.809941 
L 167.44713 140.27579 
L 167.447695 140.283078 
L 167.520974 140.283078 
L 167.589577 141.955703 
L 167.596311 141.941127 
L 170.003057 141.930195 
L 170.037604 144.054684 
L 170.098195 144.036464 
L 170.586714 144.025532 
L 170.586714 143.562736 
L 170.604292 143.562736 
L 171.370391 143.562736 
L 171.370391 141.434602 
L 171.430692 141.44189 
L 171.821404 141.44189 
L 171.834783 140.538162 
L 171.841346 140.538162 
L 175.159968 140.538162 
L 175.209826 140.06079 
L 175.210227 140.06079 
L 175.697921 140.06079 
L 175.697921 139.871299 
L 175.730468 139.955112 
L 176.341953 139.955112 
L 176.405235 138.574012 
L 176.448589 139.685451 
L 177.045937 139.670875 
L 177.052916 139.554265 
L 177.139566 139.554265 
L 232.268443 139.576129 
L 232.268443 136.63537 
L 235.531297 136.63537 
L 235.551893 136.343844 
L 237.007579 136.343844 
L 237.007579 137.196555 
L 237.012603 137.196555 
L 237.370426 137.196555 
L 237.386354 136.015879 
L 237.422737 136.241811 
L 238.004068 136.241811 
L 238.004068 135.65876 
L 238.094025 135.804523 
L 238.718792 135.804523 
L 238.718792 135.006473 
L 238.785277 139.277316 
L 239.875982 139.37935 
L 239.917679 139.062316 
L 239.94654 139.299181 
L 240.084505 139.408502 
L 240.084505 139.18257 
L 241.845472 139.18257 
L 241.91001 120.565046 
L 241.918156 120.572334 
L 243.203455 120.619707 
L 243.203455 120.78369 
L 243.260427 120.761826 
L 250.955738 120.827419 
L 250.955738 121.020554 
L 251.458364 121.020554 
L 251.458364 121.224622 
L 251.479413 121.177249 
L 255.937408 121.177249 
L 255.937408 120.776402 
L 256.026838 122.033604 
L 256.028956 122.019028 
L 256.050481 122.019028 
L 256.050481 122.186655 
L 256.590218 122.186655 
L 256.603367 121.935214 
L 256.611424 121.935214 
L 296.446683 121.938858 
L 296.446683 122.507332 
L 296.966352 122.507332 
L 296.966352 121.829536 
L 297.179624 121.829536 
L 297.179624 120.790978 
L 297.887421 120.790978 
L 297.887421 118.97259 
L 298.391221 118.97259 
L 298.391221 118.411404 
L 298.49157 118.863268 
L 300.309136 118.863268 
L 300.309136 117.318185 
L 300.434273 117.318185 
L 300.542247 116.735135 
L 300.542886 116.735135 
L 301.651392 116.735135 
L 301.651392 112.635562 
L 301.70655 112.868782 
L 306.686266 112.934376 
L 306.686266 112.118105 
L 306.711069 112.118105 
L 312.056278 112.132681 
L 312.056278 111.272682 
L 324.168437 111.272682 
L 324.168437 110.489208 
L 339.842265 110.438192 
L 339.842265 110.270565 
L 342.637278 110.270565 
L 342.637278 110.478276 
L 355.014308 110.474632 
L 355.014308 110.474632 
" clip-path="url(#p8bddfe617d)" style="fill: none; stroke: #1f77b4; stroke-width: 1.5; stroke-linecap: square"/>
   </g>
   <g id="line2d_38">
    <path d="M 85.83611 271.644306 
L 90.964107 271.644306 
L 90.964107 270.824392 
L 94.969417 270.817104 
L 94.969417 271.644306 
L 94.970301 270.066427 
L 113.545697 270.066427 
L 113.545697 269.833207 
L 113.630987 269.833207 
L 153.377269 269.833207 
L 153.377269 257.472541 
L 165.632678 257.472541 
L 165.632678 238.796711 
L 170.090547 238.796711 
L 170.090547 237.288069 
L 179.104262 237.258916 
L 179.104262 234.667986 
L 179.557885 234.667986 
L 179.557885 232.984429 
L 180.213727 232.984429 
L 180.213727 229.376805 
L 184.223705 229.376805 
L 184.223705 229.019687 
L 189.299205 229.019687 
L 189.299205 226.971723 
L 199.024047 226.971723 
L 199.024047 224.643166 
L 202.207617 224.643166 
L 202.207617 219.202578 
L 207.850564 219.202578 
L 207.850564 219.432154 
L 210.529612 219.432154 
L 210.529612 218.258765 
L 211.670711 218.258765 
L 211.670711 198.967089 
L 215.688009 198.967089 
L 215.688009 210.788433 
L 216.307714 210.788433 
L 216.307714 209.753519 
L 216.961587 209.753519 
L 216.961587 207.905978 
L 217.658042 207.905978 
L 217.658042 207.632674 
L 220.195372 207.632674 
L 220.195372 204.888693 
L 220.692929 204.888693 
L 220.692929 205.591998 
L 223.871675 205.591998 
L 223.871675 205.125557 
L 226.577563 205.125557 
L 226.577563 200.016579 
L 229.181037 200.016579 
L 229.181037 198.139886 
L 241.992929 198.139886 
L 242.052048 196.463617 
L 242.181168 196.507345 
L 242.181168 197.764548 
L 242.66551 197.764548 
L 242.66551 221.319779 
L 242.675061 221.319779 
L 243.191623 221.319779 
L 243.296379 159.210348 
L 260.53157 159.210348 
L 260.53157 153.496455 
L 261.679663 153.496455 
L 261.71059 186.941677 
L 265.671192 186.941677 
L 265.671192 185.597017 
L 265.888946 185.597017 
L 265.888946 184.008205 
L 265.890366 184.019137 
L 266.406423 184.019137 
L 266.406423 182.331935 
L 266.952076 182.331935 
L 266.952076 183.352273 
L 267.012593 182.761935 
L 268.860708 182.761935 
L 268.860708 180.918038 
L 269.576079 180.918038 
L 269.576079 179.522362 
L 270.280843 179.522362 
L 270.280843 176.22084 
L 270.396183 176.22084 
L 270.396183 174.847027 
L 271.039747 174.847027 
L 271.039747 173.254571 
L 271.437974 173.254571 
L 271.437974 167.934238 
L 271.549434 167.934238 
L 271.549434 168.397034 
L 271.55075 168.397034 
L 273.466777 168.397034 
L 273.466777 167.489662 
L 274.023832 167.489662 
L 274.023832 166.392798 
L 274.147838 166.392798 
L 274.147838 165.135596 
L 274.308034 165.135596 
L 274.308034 164.665512 
L 284.230637 164.665512 
L 284.230637 162.519158 
L 284.506612 162.519158 
L 284.506612 162.406192 
L 285.047367 162.406192 
L 285.047367 160.977719 
L 286.518788 160.977719 
L 286.518788 159.050009 
L 287.096439 159.050009 
L 287.096439 157.792807 
L 287.616242 157.792807 
L 287.616242 154.771877 
L 288.446462 154.771877 
L 288.446462 148.992391 
L 288.863783 148.992391 
L 288.863783 164.169919 
L 288.865151 164.162631 
L 289.588489 164.162631 
L 289.588489 164.352122 
L 297.070446 164.352122 
L 297.070446 164.064241 
L 310.014981 164.064241 
L 310.014981 161.943396 
L 310.850151 161.943396 
L 310.850151 162.307802 
L 311.418645 162.307802 
L 311.418645 162.038142 
L 312.032798 162.038142 
L 312.032798 161.622718 
L 312.661668 161.622718 
L 312.661668 160.248906 
L 313.327834 160.248906 
L 313.336649 157.95679 
L 313.809723 157.95679 
L 313.809723 157.559587 
L 313.975419 157.559587 
L 313.975419 155.176369 
L 314.150904 155.176369 
L 314.150904 154.225268 
L 314.476841 154.225268 
L 314.47861 152.363151 
L 315.903695 152.388659 
L 315.903695 145.814767 
L 316.515715 145.814767 
L 316.515715 150.894593 
L 316.653517 150.894593 
L 316.653517 151.619762 
L 317.325733 151.619762 
L 317.325733 149.123578 
L 317.91544 149.123578 
L 317.91544 147.181292 
L 318.439078 147.181292 
L 318.439078 146.820529 
L 318.440409 153.707811 
L 319.093732 153.707811 
L 319.093732 148.770104 
L 320.455692 148.770104 
L 320.455692 137.575538 
L 320.457015 137.575538 
L 321.034733 137.575538 
L 321.034733 137.145539 
L 321.7544 137.145539 
L 321.7544 149.896119 
L 322.505544 149.896119 
L 322.505544 148.515019 
L 322.78962 148.515019 
L 322.78962 148.041291 
L 322.940852 148.041291 
L 322.942145 146.405106 
L 323.159365 146.405106 
L 323.163408 145.756462 
L 323.606082 145.756462 
L 323.606082 142.075957 
L 324.869768 142.075957 
L 324.869768 144.021888 
L 326.09131 144.021888 
L 326.09131 258.791692 
L 326.100214 258.791692 
L 404.607551 258.791692 
L 404.607551 148.117816 
L 421.775997 148.117816 
L 421.775997 146.700275 
L 433.931667 146.700275 
L 433.931667 145.304598 
L 433.931667 145.304598 
" clip-path="url(#p8bddfe617d)" style="fill: none; stroke-dasharray: 6,2.25; stroke-dashoffset: 0; stroke: #ff7f0e; stroke-width: 1.5"/>
   </g>
   <g id="line2d_39">
    <path d="M 287.424658 271.644306 
L 287.425609 271.644306 
L 287.436342 268.280835 
L 287.537983 268.280835 
L 287.537983 206.2042 
L 288.182112 206.2042 
L 288.196234 104.942943 
L 288.851274 104.942943 
L 288.851274 95.406426 
L 289.528552 95.406426 
L 289.528552 99.535151 
L 292.71407 99.535151 
L 292.71407 101.080235 
L 295.764231 101.080235 
L 295.870436 106.644721 
L 312.021894 106.641077 
L 312.021894 104.527519 
L 314.577613 104.527519 
L 314.577613 103.427012 
L 318.338894 103.427012 
L 318.338894 104.039215 
L 320.265512 104.039215 
L 320.28978 102.916843 
L 324.839123 102.916843 
L 324.839123 102.782013 
L 324.872532 102.785657 
L 334.508183 102.785657 
L 334.508183 97.694899 
L 336.428952 97.694899 
L 336.428952 227.449095 
L 336.432259 95.25702 
L 338.337688 95.267952 
L 338.426627 94.389733 
L 338.986506 94.389733 
L 338.986506 93.89414 
L 357.559345 93.89414 
L 357.559345 92.028379 
L 360.861005 92.028379 
L 360.861005 88.307789 
L 361.466544 88.307789 
L 361.466544 84.437793 
L 363.3857 84.437793 
L 363.395615 83.35915 
L 363.402357 83.701692 
L 364.044806 83.701692 
L 364.07412 81.504321 
L 364.573632 81.504321 
L 364.624471 75.378649 
L 364.700366 75.378649 
L 364.700366 74.65348 
L 367.919382 74.65348 
L 367.919382 67.387216 
L 369.802371 67.387216 
L 369.802371 63.528152 
L 370.45012 63.528152 
L 370.45012 63.309508 
L 374.2953 63.309508 
L 374.2953 61.942984 
L 374.793258 61.942984 
L 374.793258 62.60256 
L 375.026785 62.60256 
L 375.026785 62.391204 
L 376.806311 62.391204 
L 376.823057 58.003751 
L 377.579798 58.003751 
L 377.591163 66.279421 
L 378.165908 66.279421 
L 378.187492 61.58951 
L 378.831554 61.58951 
L 378.831554 57.650277 
L 379.455169 57.650277 
L 379.462051 61.440103 
L 381.277307 61.440103 
L 381.352681 59.792986 
L 381.410017 59.792986 
L 381.410017 58.510276 
L 382.183377 58.510276 
L 382.183377 57.770531 
L 384.037044 57.770531 
L 384.037044 60.514511 
L 384.589707 60.514511 
L 384.589707 60.007986 
L 387.828226 60.026207 
L 387.828226 59.698241 
L 390.450311 59.698241 
L 390.450311 58.750784 
L 392.323905 58.750784 
L 392.323905 58.178666 
L 392.833473 58.178666 
L 392.930893 53.89689 
L 394.864878 53.89689 
L 394.864878 52.94579 
L 395.372394 52.94579 
L 395.372394 52.060282 
L 395.532843 52.060282 
L 395.532843 52.723502 
L 396.752341 52.723502 
L 396.752341 53.33206 
L 396.764092 52.803671 
L 400.562908 52.803671 
L 400.562908 23.221157 
L 400.669878 51.750537 
L 419.092868 51.750537 
L 419.092868 49.403759 
L 419.24019 49.403759 
L 419.24019 49.239776 
L 423.562971 49.239776 
L 423.562971 47.086134 
L 423.57108 47.173592 
L 435.340586 47.173592 
L 435.340586 45.424441 
L 436.497278 45.424441 
L 436.497278 41.674699 
L 437.088353 41.674699 
L 437.088353 36.405382 
L 438.347653 36.405382 
L 438.360437 23.443445 
L 438.360437 23.443445 
" clip-path="url(#p8bddfe617d)" style="fill: none; stroke-dasharray: 1.5,1.5; stroke-dashoffset: 0; stroke: #2ca02c; stroke-width: 1.5"/>
   </g>
   <g id="line2d_40"/>
   <g id="line2d_41"/>
   <g id="line2d_42"/>
   <g id="line2d_43">
    <path d="M 44.66 53.000451 
L 442.855707 53.000451 
" clip-path="url(#p8bddfe617d)" style="fill: none; stroke: #808080; stroke-width: 1.5; stroke-linecap: square"/>
   </g>
   <g id="line2d_44">
    <path d="M 174.144295 284.065464 
L 174.144295 10.8 
" clip-path="url(#p8bddfe617d)" style="fill: none; stroke: #808080; stroke-width: 1.5; stroke-linecap: square"/>
   </g>
   <g id="line2d_45">
    <path d="M 135.613408 284.065464 
L 135.613408 10.8 
" clip-path="url(#p8bddfe617d)" style="fill: none; stroke-dasharray: 5.55,2.4; stroke-dashoffset: 0; stroke: #808080; stroke-width: 1.5"/>
   </g>
   <g id="line2d_46">
    <path clip-path="url(#p8bddfe617d)" style="fill: none; stroke-dasharray: 5.55,2.4; stroke-dashoffset: 0; stroke: #808080; stroke-width: 1.5"/>
   </g>
   <g id="patch_3">
    <path d="M 44.66 284.065464 
L 44.66 10.8 
" style="fill: none; stroke: #000000; stroke-width: 0.8; stroke-linejoin: miter; stroke-linecap: square"/>
   </g>
   <g id="patch_4">
    <path d="M 442.855707 284.065464 
L 442.855707 10.8 
" style="fill: none; stroke: #000000; stroke-width: 0.8; stroke-linejoin: miter; stroke-linecap: square"/>
   </g>
   <g id="patch_5">
    <path d="M 44.66 284.065464 
L 442.855707 284.065464 
" style="fill: none; stroke: #000000; stroke-width: 0.8; stroke-linejoin: miter; stroke-linecap: square"/>
   </g>
   <g id="patch_6">
    <path d="M 44.66 10.8 
L 442.855707 10.8 
" style="fill: none; stroke: #000000; stroke-width: 0.8; stroke-linejoin: miter; stroke-linecap: square"/>
   </g>
   <g id="text_21">
    <!--  3y apj39 -->
    <g transform="translate(174.144295 71.220772) scale(0.1 -0.1)">
     <defs>
      <path id="DejaVuSans-79" d="M 2059 -325 
Q 1816 -950 1584 -1140 
Q 1353 -1331 966 -1331 
L 506 -1331 
L 506 -850 
L 844 -850 
Q 1081 -850 1212 -737 
Q 1344 -625 1503 -206 
L 1606 56 
L 191 3500 
L 800 3500 
L 1894 763 
L 2988 3500 
L 3597 3500 
L 2059 -325 
z
" transform="scale(0.015625)"/>
      <path id="DejaVuSans-70" d="M 1159 525 
L 1159 -1331 
L 581 -1331 
L 581 3500 
L 1159 3500 
L 1159 2969 
Q 1341 3281 1617 3432 
Q 1894 3584 2278 3584 
Q 2916 3584 3314 3078 
Q 3713 2572 3713 1747 
Q 3713 922 3314 415 
Q 2916 -91 2278 -91 
Q 1894 -91 1617 61 
Q 1341 213 1159 525 
z
M 3116 1747 
Q 3116 2381 2855 2742 
Q 2594 3103 2138 3103 
Q 1681 3103 1420 2742 
Q 1159 2381 1159 1747 
Q 1159 1113 1420 752 
Q 1681 391 2138 391 
Q 2594 391 2855 752 
Q 3116 1113 3116 1747 
z
" transform="scale(0.015625)"/>
      <path id="DejaVuSans-6a" d="M 603 3500 
L 1178 3500 
L 1178 -63 
Q 1178 -731 923 -1031 
Q 669 -1331 103 -1331 
L -116 -1331 
L -116 -844 
L 38 -844 
Q 366 -844 484 -692 
Q 603 -541 603 -63 
L 603 3500 
z
M 603 4863 
L 1178 4863 
L 1178 4134 
L 603 4134 
L 603 4863 
z
" transform="scale(0.015625)"/>
     </defs>
     <use xlink:href="#DejaVuSans-20"/>
     <use xlink:href="#DejaVuSans-33" x="31.787109"/>
     <use xlink:href="#DejaVuSans-79" x="95.410156"/>
     <use xlink:href="#DejaVuSans-20" x="154.589844"/>
     <use xlink:href="#DejaVuSans-61" x="186.376953"/>
     <use xlink:href="#DejaVuSans-70" x="247.65625"/>
     <use xlink:href="#DejaVuSans-6a" x="311.132812"/>
     <use xlink:href="#DejaVuSans-33" x="338.916016"/>
     <use xlink:href="#DejaVuSans-39" x="402.539062"/>
    </g>
   </g>
   <g id="text_22">
    <!--  3y cjj39 -->
    <g transform="translate(135.613408 71.220772) scale(0.1 -0.1)">
     <use xlink:href="#DejaVuSans-20"/>
     <use xlink:href="#DejaVuSans-33" x="31.787109"/>
     <use xlink:href="#DejaVuSans-79" x="95.410156"/>
     <use xlink:href="#DejaVuSans-20" x="154.589844"/>
     <use xlink:href="#DejaVuSans-63" x="186.376953"/>
     <use xlink:href="#DejaVuSans-6a" x="241.357422"/>
     <use xlink:href="#DejaVuSans-6a" x="269.140625"/>
     <use xlink:href="#DejaVuSans-33" x="296.923828"/>
     <use xlink:href="#DejaVuSans-39" x="360.546875"/>
    </g>
   </g>
   <g id="PathCollection_1">
    <defs>
     <path id="me3e6b69445" d="M 0 -5 
L -1.12257 -1.545085 
L -4.755283 -1.545085 
L -1.816356 0.59017 
L -2.938926 4.045085 
L -0 1.90983 
L 2.938926 4.045085 
L 1.816356 0.59017 
L 4.755283 -1.545085 
L 1.12257 -1.545085 
z
" style="stroke: #000000; stroke-width: 0.5"/>
    </defs>
    <g clip-path="url(#p8bddfe617d)">
     <use xlink:href="#me3e6b69445" x="256.611424" y="121.935214" style="fill: #ffd700; stroke: #000000; stroke-width: 0.5"/>
    </g>
   </g>
   <g id="legend_1">
    <g id="patch_7">
     <path d="M 51.66 92.190625 
L 140.86625 92.190625 
Q 142.86625 92.190625 142.86625 90.190625 
L 142.86625 17.8 
Q 142.86625 15.8 140.86625 15.8 
L 51.66 15.8 
Q 49.66 15.8 49.66 17.8 
L 49.66 90.190625 
Q 49.66 92.190625 51.66 92.190625 
z
" style="fill: #ffffff; opacity: 0.8; stroke: #cccccc; stroke-linejoin: miter"/>
    </g>
    <g id="line2d_47">
     <path d="M 53.66 23.898438 
L 63.66 23.898438 
L 73.66 23.898438 
" style="fill: none; stroke: #1f77b4; stroke-width: 1.5; stroke-linecap: square"/>
    </g>
    <g id="text_23">
     <!-- apj39 -->
     <g transform="translate(81.66 27.398438) scale(0.1 -0.1)">
      <use xlink:href="#DejaVuSans-61"/>
      <use xlink:href="#DejaVuSans-70" x="61.279297"/>
      <use xlink:href="#DejaVuSans-6a" x="124.755859"/>
      <use xlink:href="#DejaVuSans-33" x="152.539062"/>
      <use xlink:href="#DejaVuSans-39" x="216.162109"/>
     </g>
    </g>
    <g id="line2d_48">
     <path d="M 53.66 38.576563 
L 63.66 38.576563 
L 73.66 38.576563 
" style="fill: none; stroke-dasharray: 6,2.25; stroke-dashoffset: 0; stroke: #ff7f0e; stroke-width: 1.5"/>
    </g>
    <g id="text_24">
     <!-- cjj39 -->
     <g transform="translate(81.66 42.076563) scale(0.1 -0.1)">
      <use xlink:href="#DejaVuSans-63"/>
      <use xlink:href="#DejaVuSans-6a" x="54.980469"/>
      <use xlink:href="#DejaVuSans-6a" x="82.763672"/>
      <use xlink:href="#DejaVuSans-33" x="110.546875"/>
      <use xlink:href="#DejaVuSans-39" x="174.169922"/>
     </g>
    </g>
    <g id="line2d_49">
     <path d="M 53.66 53.254688 
L 63.66 53.254688 
L 73.66 53.254688 
" style="fill: none; stroke-dasharray: 1.5,1.5; stroke-dashoffset: 0; stroke: #2ca02c; stroke-width: 1.5"/>
    </g>
    <g id="text_25">
     <!-- jb2328 -->
     <g transform="translate(81.66 56.754688) scale(0.1 -0.1)">
      <defs>
       <path id="DejaVuSans-62" d="M 3116 1747 
Q 3116 2381 2855 2742 
Q 2594 3103 2138 3103 
Q 1681 3103 1420 2742 
Q 1159 2381 1159 1747 
Q 1159 1113 1420 752 
Q 1681 391 2138 391 
Q 2594 391 2855 752 
Q 3116 1113 3116 1747 
z
M 1159 2969 
Q 1341 3281 1617 3432 
Q 1894 3584 2278 3584 
Q 2916 3584 3314 3078 
Q 3713 2572 3713 1747 
Q 3713 922 3314 415 
Q 2916 -91 2278 -91 
Q 1894 -91 1617 61 
Q 1341 213 1159 525 
L 1159 0 
L 581 0 
L 581 4863 
L 1159 4863 
L 1159 2969 
z
" transform="scale(0.015625)"/>
       <path id="DejaVuSans-38" d="M 2034 2216 
Q 1584 2216 1326 1975 
Q 1069 1734 1069 1313 
Q 1069 891 1326 650 
Q 1584 409 2034 409 
Q 2484 409 2743 651 
Q 3003 894 3003 1313 
Q 3003 1734 2745 1975 
Q 2488 2216 2034 2216 
z
M 1403 2484 
Q 997 2584 770 2862 
Q 544 3141 544 3541 
Q 544 4100 942 4425 
Q 1341 4750 2034 4750 
Q 2731 4750 3128 4425 
Q 3525 4100 3525 3541 
Q 3525 3141 3298 2862 
Q 3072 2584 2669 2484 
Q 3125 2378 3379 2068 
Q 3634 1759 3634 1313 
Q 3634 634 3220 271 
Q 2806 -91 2034 -91 
Q 1263 -91 848 271 
Q 434 634 434 1313 
Q 434 1759 690 2068 
Q 947 2378 1403 2484 
z
M 1172 3481 
Q 1172 3119 1398 2916 
Q 1625 2713 2034 2713 
Q 2441 2713 2670 2916 
Q 2900 3119 2900 3481 
Q 2900 3844 2670 4047 
Q 2441 4250 2034 4250 
Q 1625 4250 1398 4047 
Q 1172 3844 1172 3481 
z
" transform="scale(0.015625)"/>
      </defs>
      <use xlink:href="#DejaVuSans-6a"/>
      <use xlink:href="#DejaVuSans-62" x="27.783203"/>
      <use xlink:href="#DejaVuSans-32" x="91.259766"/>
      <use xlink:href="#DejaVuSans-33" x="154.882812"/>
      <use xlink:href="#DejaVuSans-32" x="218.505859"/>
      <use xlink:href="#DejaVuSans-38" x="282.128906"/>
     </g>
    </g>
    <g id="line2d_50">
     <path d="M 53.66 67.932813 
L 63.66 67.932813 
L 73.66 67.932813 
" style="fill: none; stroke: #808080; stroke-width: 1.5; stroke-linecap: square"/>
    </g>
    <g id="text_26">
     <!-- Word limit -->
     <g transform="translate(81.66 71.432813) scale(0.1 -0.1)">
      <defs>
       <path id="DejaVuSans-6c" d="M 603 4863 
L 1178 4863 
L 1178 0 
L 603 0 
L 603 4863 
z
" transform="scale(0.015625)"/>
      </defs>
      <use xlink:href="#DejaVuSans-57"/>
      <use xlink:href="#DejaVuSans-6f" x="93.001953"/>
      <use xlink:href="#DejaVuSans-72" x="154.183594"/>
      <use xlink:href="#DejaVuSans-64" x="193.546875"/>
      <use xlink:href="#DejaVuSans-20" x="257.023438"/>
      <use xlink:href="#DejaVuSans-6c" x="288.810547"/>
      <use xlink:href="#DejaVuSans-69" x="316.59375"/>
      <use xlink:href="#DejaVuSans-6d" x="344.376953"/>
      <use xlink:href="#DejaVuSans-69" x="441.789062"/>
      <use xlink:href="#DejaVuSans-74" x="469.572266"/>
     </g>
    </g>
    <g id="PathCollection_2">
     <g>
      <use xlink:href="#me3e6b69445" x="63.66" y="83.485938" style="fill: #ffd700; stroke: #000000; stroke-width: 0.5"/>
     </g>
    </g>
    <g id="text_27">
     <!-- Submission -->
     <g transform="translate(81.66 86.110938) scale(0.1 -0.1)">
      <defs>
       <path id="DejaVuSans-53" d="M 3425 4513 
L 3425 3897 
Q 3066 4069 2747 4153 
Q 2428 4238 2131 4238 
Q 1616 4238 1336 4038 
Q 1056 3838 1056 3469 
Q 1056 3159 1242 3001 
Q 1428 2844 1947 2747 
L 2328 2669 
Q 3034 2534 3370 2195 
Q 3706 1856 3706 1288 
Q 3706 609 3251 259 
Q 2797 -91 1919 -91 
Q 1588 -91 1214 -16 
Q 841 59 441 206 
L 441 856 
Q 825 641 1194 531 
Q 1563 422 1919 422 
Q 2459 422 2753 634 
Q 3047 847 3047 1241 
Q 3047 1584 2836 1778 
Q 2625 1972 2144 2069 
L 1759 2144 
Q 1053 2284 737 2584 
Q 422 2884 422 3419 
Q 422 4038 858 4394 
Q 1294 4750 2059 4750 
Q 2388 4750 2728 4690 
Q 3069 4631 3425 4513 
z
" transform="scale(0.015625)"/>
       <path id="DejaVuSans-73" d="M 2834 3397 
L 2834 2853 
Q 2591 2978 2328 3040 
Q 2066 3103 1784 3103 
Q 1356 3103 1142 2972 
Q 928 2841 928 2578 
Q 928 2378 1081 2264 
Q 1234 2150 1697 2047 
L 1894 2003 
Q 2506 1872 2764 1633 
Q 3022 1394 3022 966 
Q 3022 478 2636 193 
Q 2250 -91 1575 -91 
Q 1294 -91 989 -36 
Q 684 19 347 128 
L 347 722 
Q 666 556 975 473 
Q 1284 391 1588 391 
Q 1994 391 2212 530 
Q 2431 669 2431 922 
Q 2431 1156 2273 1281 
Q 2116 1406 1581 1522 
L 1381 1569 
Q 847 1681 609 1914 
Q 372 2147 372 2553 
Q 372 3047 722 3315 
Q 1072 3584 1716 3584 
Q 2034 3584 2315 3537 
Q 2597 3491 2834 3397 
z
" transform="scale(0.015625)"/>
      </defs>
      <use xlink:href="#DejaVuSans-53"/>
      <use xlink:href="#DejaVuSans-75" x="63.476562"/>
      <use xlink:href="#DejaVuSans-62" x="126.855469"/>
      <use xlink:href="#DejaVuSans-6d" x="190.332031"/>
      <use xlink:href="#DejaVuSans-69" x="287.744141"/>
      <use xlink:href="#DejaVuSans-73" x="315.527344"/>
      <use xlink:href="#DejaVuSans-73" x="367.626953"/>
      <use xlink:href="#DejaVuSans-69" x="419.726562"/>
      <use xlink:href="#DejaVuSans-6f" x="447.509766"/>
      <use xlink:href="#DejaVuSans-6e" x="508.691406"/>
     </g>
    </g>
   </g>
  </g>
 </g>
 <defs>
  <clipPath id="p8bddfe617d">
   <rect x="44.66" y="10.8" width="398.195707" height="273.265464"/>
  </clipPath>
 </defs>
</svg>
